<svg width="487" height="295" viewBox="0 0 487 295" fill="none" xmlns="http://www.w3.org/2000/svg">
<g clip-path="url(#clip0_163_553)">
<line x1="240.571" y1="147.118" x2="239.9" y2="280.184" stroke="white" stroke-width="10.6068"/>
<path d="M409.319 153.385L409.319 160.565C409.319 192.286 383.604 218.001 351.883 218.001V218.001L237.011 218.001L122.139 218.001V218.001C90.4178 218.001 64.7027 192.286 64.7027 160.565L64.7027 153.385" stroke="white" stroke-width="10.6068"/>
<ellipse cx="239.89" cy="284.048" rx="52.0699" ry="10.6058" transform="rotate(0.28883 239.89 284.048)" fill="white"/>
<path d="M19.1709 35.0199L118.488 35.5205C118.488 35.5205 159.213 136.828 117.822 167.622C86.7032 190.773 49.3889 190.585 18.5049 167.121C-22.5737 135.912 19.1709 35.0199 19.1709 35.0199Z" fill="white"/>
<mask id="mask0_163_553" style="mask-type:alpha" maskUnits="userSpaceOnUse" x="15" y="94" width="106" height="76">
<rect x="15.084" y="94.9275" width="104.996" height="74.9973" fill="#D9D9D9"/>
</mask>
<g mask="url(#mask0_163_553)">
</g>
<path d="M189.163 35.0205L288.48 35.5212C288.48 35.5212 329.205 136.829 287.814 167.623C256.695 190.774 219.381 190.586 188.497 167.122C147.418 135.913 189.163 35.0205 189.163 35.0205Z" fill="white"/>
<mask id="mask1_163_553" style="mask-type:alpha" maskUnits="userSpaceOnUse" x="185" y="124" width="106" height="46">
<rect x="185.083" y="124.924" width="104.996" height="44.9984" fill="#D9D9D9"/>
</mask>
<g mask="url(#mask1_163_553)">
</g>
<path d="M359.157 35.0205L458.474 35.5212C458.474 35.5212 499.199 136.829 457.808 167.623C426.689 190.774 389.375 190.586 358.491 167.122C317.412 135.913 359.157 35.0205 359.157 35.0205Z" fill="white"/>
<mask id="mask2_163_553" style="mask-type:alpha" maskUnits="userSpaceOnUse" x="355" y="79" width="106" height="91">
<rect x="355.076" y="79.9275" width="104.996" height="89.9967" fill="#D9D9D9"/>
</mask>
<g mask="url(#mask2_163_553)">
</g>
<path d="M290.249 88.4762L279.222 74.7117C275.123 69.5957 277.841 61.9547 284.25 60.5765V60.5765L290.249 88.4762Z" fill="#9D0000"/>
<mask id="mask3_163_553" style="mask-type:alpha" maskUnits="userSpaceOnUse" x="151" y="93" width="164" height="98">
<path d="M314.129 161.193L164.852 190.865L151.461 123.494V123.494C191.667 140.338 237.639 135.92 273.902 111.726L300.738 93.8219L314.129 161.193Z" fill="#D9D9D9"/>
</mask>
<g mask="url(#mask3_163_553)">
<path d="M202.685 49.8738L281.485 53.2349C281.485 53.2349 310.779 134.844 277.014 158.046C251.628 175.489 222.023 174.227 198.214 154.685C166.547 128.692 202.685 49.8738 202.685 49.8738Z" fill="#9D0000"/>
</g>
</g>
<defs>
<clipPath id="clip0_163_553">
<rect width="487" height="295" fill="white"/>
</clipPath>
</defs>
</svg>
