<svg width="1411" height="936" viewBox="0 0 1411 936" fill="none" xmlns="http://www.w3.org/2000/svg">
<path d="M75.1787 697.681C67.511 703.037 60.5086 705.286 54.1717 704.427C47.8347 703.568 42.3058 699.759 37.585 693.001C32.6221 685.897 30.8841 679.118 32.3709 672.665C33.9011 666.181 38.8683 660.004 47.2725 654.133C51.0414 651.501 53.7513 649.382 55.4023 647.777C57.0229 646.13 57.9096 644.769 58.0621 643.695C58.2147 642.622 57.8825 641.5 57.0654 640.331L65.123 634.702C67.1505 637.605 68.2108 640.184 68.3039 642.439C68.3969 644.695 67.3144 647.159 65.0563 649.832C62.8113 652.432 58.9813 655.623 53.5662 659.406C46.6349 664.248 42.4918 668.882 41.1368 673.31C39.7818 677.737 40.7384 682.29 44.0066 686.969L44.5059 687.683L45.2857 687.139C42.7083 679.85 46.3799 672.741 56.3003 665.811C60.5457 662.846 64.5736 660.999 68.3839 660.271C72.2073 659.469 75.6206 659.696 78.6237 660.95C81.6702 662.173 84.1921 664.215 86.1894 667.074C89.4879 671.796 90.3077 676.799 88.6488 682.083C86.9899 687.368 82.4999 692.567 75.1787 697.681ZM70.4054 691.54C75.1707 688.211 78.1263 684.922 79.2724 681.672C80.4315 678.348 80.0729 675.343 78.1967 672.657C76.3508 670.015 73.6983 668.709 70.2393 668.74C66.7934 668.698 62.6878 670.341 57.9225 673.67C53.1139 677.029 50.1366 680.334 48.9906 683.584C47.8143 686.79 48.1491 689.715 49.995 692.358C51.8712 695.043 54.5474 696.429 58.0236 696.515C61.4696 696.557 65.5968 694.899 70.4054 691.54Z" fill="white"/>
<path d="M154.083 602.873L165.108 599.919L154.635 645.972C153.263 652.083 151.322 656.679 148.81 659.759C146.349 662.826 142.847 664.968 138.305 666.185C136.926 666.554 135.674 666.78 134.547 666.864C133.434 666.998 132.204 666.999 130.856 666.868L128.743 658.982C130.888 659.228 132.981 659.077 135.022 658.53C137.779 657.792 139.856 656.661 141.253 655.137C142.65 653.614 143.747 651.378 144.543 648.429L144.741 647.638L113.35 613.787L124.376 610.833L143.708 633.062C145.62 635.503 146.816 637.617 147.295 639.404L147.336 639.557L148.484 639.249L148.443 639.096C147.923 637.157 147.876 634.735 148.302 631.831L154.083 602.873Z" fill="white"/>
<path d="M222.353 682.776C213.66 681.603 207.332 678.909 203.368 674.695C199.404 670.481 197.829 665.362 198.642 659.34C199.143 655.622 200.505 652.446 202.727 649.813C204.955 647.128 207.96 645.214 211.74 644.071C215.527 642.876 219.961 642.621 225.04 643.307C231.272 644.148 235.945 645.871 239.06 648.478C242.233 651.039 244.065 654.059 244.556 657.538L245.498 657.665L245.657 656.487C246.498 650.255 245.087 645.106 241.423 641.039C237.767 636.919 231.854 634.308 223.684 633.206C215.724 632.131 208.783 632.394 202.862 633.995L203.943 625.982C209.446 624.326 216.439 624.07 224.923 625.214C235.606 626.656 243.438 630.459 248.418 636.624C253.45 642.795 255.309 650.751 253.995 660.491C253.295 665.676 251.726 669.997 249.286 673.453C246.738 677.322 243.194 680.07 238.656 681.697C234.124 683.271 228.69 683.631 222.353 682.776ZM223.874 675.063C229.582 675.833 234.029 675.287 237.213 673.424C240.449 671.567 242.301 668.911 242.767 665.455C243.248 661.894 242.17 658.816 239.534 656.22C236.951 653.632 232.805 651.953 227.097 651.183C221.493 650.426 217.073 650.976 213.837 652.832C210.607 654.636 208.756 657.292 208.282 660.801C207.816 664.257 208.897 667.309 211.526 669.957C214.155 672.605 218.271 674.307 223.874 675.063Z" fill="white"/>
<path d="M317.895 606.279C322.758 603.395 327.05 602.293 330.772 602.974C334.493 603.654 337.499 605.926 339.79 609.79C342.055 613.608 342.593 617.312 341.406 620.904C340.218 624.496 337.193 627.734 332.33 630.618L307.65 645.256L287.19 610.758L295.576 605.785L301.601 615.943L317.895 606.279ZM327.834 624.437C330.062 623.117 331.469 621.606 332.058 619.905C332.62 618.159 332.402 616.445 331.405 614.763C330.38 613.036 328.981 612.023 327.206 611.724C325.404 611.379 323.39 611.867 321.163 613.188L305.073 622.731L311.745 633.98L327.834 624.437Z" fill="white"/>
<path d="M471.419 504.937C466.555 507.821 461.902 509.506 457.459 509.991C453.061 510.449 449.145 509.853 445.709 508.204C442.319 506.528 439.613 503.986 437.592 500.577C435.57 497.169 434.637 493.575 434.792 489.797C434.966 485.946 436.308 482.201 438.819 478.561C441.375 474.895 445.085 471.619 449.948 468.735C454.357 466.12 458.611 464.488 462.711 463.838C466.856 463.162 470.57 463.416 473.854 464.602C477.183 465.761 479.928 467.696 482.089 470.408L473.635 475.422C471.707 473.31 469.007 472.177 465.537 472.023C462.067 471.869 458.218 473.046 453.991 475.553C450.901 477.386 448.538 479.463 446.904 481.784C445.27 484.104 444.397 486.465 444.285 488.866C444.173 491.267 444.737 493.513 445.977 495.604C447.217 497.695 448.918 499.267 451.078 500.32C453.239 501.373 455.729 501.739 458.549 501.418C461.369 501.097 464.325 500.02 467.416 498.187C471.643 495.681 474.521 492.868 476.05 489.749C477.579 486.63 477.88 483.718 476.951 481.012L485.405 475.999C486.748 479.196 487.13 482.533 486.55 486.01C485.989 489.414 484.418 492.773 481.836 496.086C479.3 499.372 475.827 502.322 471.419 504.937Z" fill="white"/>
<path d="M536.643 485.911C530.977 484.393 526.367 482.2 522.813 479.333C519.311 476.48 516.949 473.249 515.728 469.639C514.507 466.029 514.409 462.31 515.435 458.482C516.461 454.654 518.405 451.482 521.267 448.967C524.143 446.4 527.811 444.757 532.271 444.037C536.782 443.331 541.871 443.737 547.536 445.255C553.202 446.773 557.786 448.959 561.289 451.813C564.843 454.679 567.223 457.943 568.431 461.604C569.652 465.214 569.749 468.933 568.724 472.761C567.698 476.589 565.754 479.761 562.891 482.276C560.029 484.792 556.342 486.403 551.831 487.109C547.371 487.828 542.308 487.429 536.643 485.911ZM538.674 478.331C542.349 479.316 545.638 479.596 548.542 479.17C551.446 478.745 553.79 477.759 555.572 476.212C557.419 474.628 558.663 472.636 559.306 470.237C559.949 467.838 559.86 465.517 559.039 463.273C558.282 460.991 556.753 458.94 554.451 457.12C552.149 455.299 549.16 453.897 545.485 452.912C541.81 451.927 538.52 451.647 535.616 452.073C532.712 452.498 530.336 453.503 528.49 455.087C526.708 456.634 525.495 458.606 524.852 461.006C524.209 463.405 524.266 465.745 525.023 468.026C525.844 470.271 527.405 472.303 529.708 474.123C532.01 475.944 534.999 477.346 538.674 478.331Z" fill="white"/>
<path d="M599.385 503.5C591.326 498.752 586.371 493.318 584.518 487.197C582.666 481.076 583.832 474.465 588.017 467.362C592.416 459.895 597.86 455.497 604.347 454.168C610.88 452.865 618.563 454.815 627.395 460.019C631.356 462.353 634.41 463.937 636.555 464.772C638.727 465.561 640.333 465.802 641.373 465.495C642.413 465.188 643.295 464.419 644.019 463.19L652.488 468.179C650.69 471.23 648.785 473.266 646.772 474.288C644.76 475.31 642.068 475.35 638.698 474.407C635.401 473.446 630.907 471.288 625.215 467.935C617.931 463.643 611.994 461.801 607.404 462.409C602.814 463.016 599.07 465.778 596.173 470.696L595.73 471.447L596.55 471.93C602.108 466.556 610.1 466.941 620.526 473.084C624.988 475.713 628.341 478.609 630.587 481.772C632.905 484.916 634.118 488.115 634.225 491.368C634.378 494.647 633.57 497.789 631.799 500.794C628.875 505.757 624.666 508.582 619.17 509.269C613.674 509.957 607.079 508.034 599.385 503.5ZM602.987 496.606C607.995 499.557 612.215 500.878 615.647 500.57C619.152 500.243 621.736 498.668 623.399 495.845C625.036 493.068 625.121 490.113 623.655 486.98C622.261 483.828 619.06 480.776 614.052 477.826C608.998 474.848 604.755 473.514 601.323 473.822C597.917 474.085 595.396 475.605 593.76 478.382C592.097 481.205 591.949 484.215 593.316 487.412C594.709 490.564 597.933 493.629 602.987 496.606Z" fill="white"/>
<path d="M664.681 545.528C659.621 542.562 655.758 539.225 653.093 535.518C650.472 531.837 649.053 528.095 648.833 524.291C648.613 520.487 649.505 516.875 651.51 513.456C653.515 510.037 656.231 507.495 659.658 505.829C663.111 504.117 667.084 503.506 671.575 503.995C676.112 504.511 680.91 506.253 685.97 509.219C691.03 512.186 694.87 515.51 697.491 519.19C700.156 522.897 701.586 526.676 701.779 530.525C701.998 534.33 701.106 537.941 699.101 541.36C697.097 544.779 694.381 547.322 690.954 548.988C687.527 550.654 683.545 551.229 679.008 550.713C674.517 550.223 669.741 548.495 664.681 545.528ZM668.65 538.759C671.933 540.683 675.03 541.826 677.943 542.186C680.856 542.546 683.377 542.217 685.505 541.199C687.706 540.161 689.435 538.571 690.691 536.429C691.947 534.286 692.477 532.024 692.281 529.643C692.157 527.242 691.226 524.859 689.49 522.493C687.753 520.127 685.243 517.982 681.961 516.057C678.679 514.133 675.581 512.991 672.668 512.63C669.756 512.27 667.199 512.609 664.998 513.646C662.869 514.664 661.177 516.245 659.921 518.387C658.664 520.53 658.098 522.801 658.222 525.202C658.419 527.583 659.385 529.957 661.122 532.323C662.859 534.689 665.368 536.834 668.65 538.759Z" fill="white"/>
<path d="M702.152 570.307L730.789 542.225L737.393 548.959L721.546 564.499C719.66 566.349 717.983 567.808 716.515 568.878C715.084 569.985 713.41 571.108 711.494 572.248L712.326 573.097L756.151 568.088L766.807 578.954L738.17 607.036L731.621 600.358L747.468 584.819C749.392 582.932 751.07 581.435 752.5 580.328C754.006 579.222 755.661 578.117 757.465 577.013L756.688 576.221L712.863 581.229L702.152 570.307ZM753.176 557.129C749.18 553.054 746.977 548.997 746.568 544.957C746.16 540.918 747.316 537.304 750.038 534.117L755.809 540.003C754.334 541.82 753.736 543.813 754.013 545.983C754.291 548.153 755.54 550.37 757.76 552.634C759.98 554.897 762.153 556.171 764.28 556.453C766.445 556.773 768.449 556.213 770.294 554.774L776.122 560.717C772.845 563.338 769.191 564.404 765.16 563.916C761.166 563.466 757.171 561.204 753.176 557.129Z" fill="white"/>
<path d="M921.291 705.264C915.97 707.176 911.082 707.95 906.627 707.585C902.222 707.203 898.489 705.877 895.428 703.608C892.416 701.321 890.24 698.313 888.9 694.583C887.56 690.853 887.323 687.148 888.191 683.467C889.09 679.719 891.116 676.296 894.27 673.197C897.474 670.08 901.737 667.566 907.058 665.654C911.882 663.921 916.368 663.123 920.516 663.261C924.715 663.38 928.314 664.333 931.314 666.119C934.364 667.887 936.693 670.307 938.302 673.378L929.052 676.702C927.558 674.263 925.122 672.639 921.743 671.832C918.365 671.025 914.363 671.452 909.738 673.114C906.357 674.329 903.644 675.921 901.6 677.891C899.557 679.86 898.253 682.014 897.688 684.35C897.124 686.687 897.253 688.999 898.075 691.286C898.897 693.574 900.269 695.439 902.192 696.882C904.114 698.325 906.49 699.156 909.32 699.374C912.15 699.593 915.256 699.094 918.637 697.879C923.262 696.217 926.621 694 928.712 691.227C930.804 688.454 931.65 685.651 931.25 682.819L940.5 679.495C941.214 682.888 940.957 686.237 939.73 689.542C938.535 692.779 936.357 695.78 933.195 698.544C930.083 701.291 926.115 703.531 921.291 705.264Z" fill="white"/>
<path d="M1122.87 642.694C1116.8 649.03 1110.9 652.56 1105.16 653.283C1099.42 654.005 1094.35 652.265 1089.96 648.063C1087.25 645.468 1085.49 642.498 1084.67 639.152C1083.81 635.769 1084.03 632.214 1085.33 628.486C1086.59 624.721 1089 620.987 1092.54 617.285C1096.89 612.742 1101.04 609.98 1104.98 608.997C1108.92 607.94 1112.44 608.237 1115.54 609.889L1116.19 609.202L1115.34 608.38C1110.79 604.031 1105.8 602.14 1100.36 602.707C1094.87 603.237 1089.28 606.479 1083.58 612.434C1078.03 618.236 1074.15 624.001 1071.96 629.729L1066.12 624.138C1068.02 618.715 1071.93 612.911 1077.85 606.728C1085.31 598.941 1092.99 594.85 1100.91 594.454C1108.86 594.019 1116.38 597.201 1123.48 603.998C1127.26 607.616 1129.83 611.429 1131.19 615.435C1132.81 619.773 1132.95 624.255 1131.59 628.882C1130.2 633.472 1127.29 638.076 1122.87 642.694ZM1117.53 636.924C1121.51 632.763 1123.69 628.848 1124.05 625.177C1124.46 621.468 1123.4 618.408 1120.88 615.996C1118.29 613.511 1115.17 612.569 1111.52 613.172C1107.9 613.736 1104.1 616.099 1100.12 620.259C1096.21 624.343 1094.05 628.24 1093.65 631.949C1093.2 635.621 1094.26 638.682 1096.82 641.13C1099.34 643.542 1102.44 644.465 1106.13 643.899C1109.82 643.333 1113.62 641.008 1117.53 636.924Z" fill="white"/>
<path d="M1176.61 605.486L1134.08 569.852L1140.34 562.379L1147.94 570.711L1148.7 569.8C1146.64 566.418 1145.9 562.695 1146.48 558.63C1147.05 554.491 1149.15 550.254 1152.78 545.92C1155.8 542.315 1159.12 539.753 1162.74 538.233C1166.36 536.714 1169.99 536.28 1173.65 536.933C1177.3 537.511 1180.69 539.106 1183.81 541.719C1186.93 544.333 1189.11 547.403 1190.36 550.932C1191.6 554.386 1191.79 558.026 1190.93 561.853C1190.03 565.647 1188.07 569.346 1185.05 572.951C1181.38 577.325 1177.6 580.154 1173.7 581.436C1169.8 582.718 1166 582.64 1162.31 581.203L1161.55 582.114C1164.19 583.643 1166.4 585.006 1168.15 586.201C1169.94 587.356 1171.75 588.697 1173.57 590.224L1182.87 598.013L1176.61 605.486ZM1176.74 570.645C1180.17 566.554 1181.9 562.594 1181.94 558.765C1181.93 554.901 1180.45 551.731 1177.5 549.253C1174.54 546.776 1171.18 545.891 1167.42 546.598C1163.61 547.271 1160 549.654 1156.57 553.745C1153.11 557.876 1151.38 561.874 1151.38 565.737C1151.34 569.567 1152.8 572.72 1155.76 575.197C1158.72 577.675 1162.1 578.577 1165.9 577.904C1169.67 577.196 1173.28 574.777 1176.74 570.645Z" fill="white"/>
<path d="M1214.09 480.641L1219.69 470.696L1245.27 510.397C1248.68 515.652 1250.61 520.255 1251.05 524.204C1251.52 528.108 1250.6 532.109 1248.29 536.206C1247.59 537.449 1246.88 538.503 1246.15 539.366C1245.47 540.255 1244.61 541.135 1243.57 542.007L1236.46 538C1238.13 536.639 1239.49 535.038 1240.53 533.196C1241.93 530.71 1242.57 528.435 1242.46 526.371C1242.35 524.307 1241.52 521.959 1239.97 519.327L1239.54 518.632L1193.39 517.382L1198.99 507.437L1228.4 509.173C1231.49 509.515 1233.83 510.139 1235.44 511.047L1235.58 511.125L1236.17 510.089L1236.03 510.011C1234.28 509.026 1232.51 507.365 1230.74 505.029L1214.09 480.641Z" fill="white"/>
<path d="M1268.42 426.197C1269.46 423.14 1271.07 420.961 1273.25 419.659C1275.43 418.357 1277.77 418.061 1280.26 418.769C1283.87 419.796 1286.21 422.385 1287.28 426.536C1288.32 430.621 1287.62 436.933 1285.19 445.472C1282.79 453.909 1279.91 459.6 1276.54 462.543C1273.18 465.486 1269.44 466.372 1265.32 465.201L1264.48 464.962L1267.15 455.585L1267.76 455.759C1269.69 456.308 1271.54 455.707 1273.3 453.956C1275.03 452.139 1276.63 448.639 1278.1 443.455C1279.65 438.016 1280.26 434.208 1279.95 432.031C1279.6 429.789 1278.58 428.429 1276.91 427.952C1275.18 427.46 1273.62 428.031 1272.22 429.666C1270.78 431.236 1269.33 434.587 1267.87 439.721L1265.46 448.183L1259.37 446.448L1261.77 437.985C1263.13 433.207 1263.66 429.814 1263.35 427.803C1262.99 425.778 1262.03 424.542 1260.45 424.094C1258.93 423.66 1257.49 424.267 1256.14 425.917C1254.74 427.551 1253.32 430.91 1251.87 435.993C1250.51 440.77 1250.12 444.367 1250.7 446.784C1251.24 449.135 1252.37 450.557 1254.1 451.048L1254.71 451.222L1252.04 460.599L1251.2 460.361C1247.24 459.233 1244.59 456.557 1243.27 452.334C1241.96 448.06 1242.44 441.933 1244.71 433.954C1247.02 425.821 1249.66 420.309 1252.63 417.417C1255.56 414.46 1258.57 413.422 1261.67 414.304C1264.01 414.969 1265.71 416.332 1266.77 418.392C1267.85 420.402 1268.04 422.902 1267.36 425.893L1268.42 426.197Z" fill="white"/>
<path d="M1259.76 357.168C1259.19 351.543 1259.99 347.185 1262.17 344.093C1264.35 341.001 1267.67 339.227 1272.14 338.769C1276.56 338.317 1280.15 339.384 1282.91 341.97C1285.67 344.555 1287.34 348.661 1287.91 354.285L1290.84 382.83L1250.94 386.916L1249.94 377.217L1261.69 376.014L1259.76 357.168ZM1280.42 355.77C1280.15 353.194 1279.37 351.282 1278.08 350.034C1276.73 348.791 1275.08 348.269 1273.13 348.468C1271.14 348.673 1269.63 349.518 1268.61 351.003C1267.54 352.493 1267.14 354.527 1267.41 357.102L1269.31 375.712L1282.32 374.379L1280.42 355.77Z" fill="white"/>
<path d="M1249.27 248.445L1288.62 256.192L1286.74 265.758L1273.83 263.216L1270.74 278.926C1270.35 280.897 1270.35 282.539 1270.74 283.854C1271.13 285.169 1272.04 286.291 1273.47 287.219L1281.51 292.356L1279.19 304.1L1272.74 299.518C1270.38 297.867 1268.82 296.322 1268.08 294.884C1267.3 293.384 1267.07 291.426 1267.38 289.01L1266.29 288.796C1265.45 291.969 1263.81 294.311 1261.35 295.821C1258.9 297.332 1256.15 297.786 1253.09 297.183C1249.04 296.387 1246.16 294.365 1244.43 291.116C1242.7 287.867 1242.39 283.417 1243.5 277.765L1249.27 248.445ZM1267.56 261.417L1254.88 258.921L1251 278.675C1250.5 281.216 1250.68 283.272 1251.56 284.845C1252.43 286.418 1253.86 287.398 1255.83 287.786C1257.74 288.163 1259.41 287.79 1260.81 286.667C1262.22 285.543 1263.17 283.711 1263.67 281.171L1267.56 261.417Z" fill="white"/>
<path d="M1289.14 235.486L1259.54 208.424L1269.75 197.25L1295.2 203.01C1297.93 203.786 1299.74 204.583 1300.64 205.403L1300.81 205.564L1301.62 204.686L1301.44 204.526C1300.7 203.848 1299.74 202.115 1298.57 199.324L1290.61 174.434L1300.77 163.318L1330.37 190.381L1324.06 197.284L1306.22 180.972C1303.37 178.369 1301.01 175.707 1299.13 172.986L1298.33 173.864L1308.31 205.115L1301.84 212.194L1269.82 205.046L1269.07 205.865C1272.22 207.743 1275.09 209.859 1277.66 212.212L1295.5 228.524L1289.14 235.486Z" fill="white"/>
<path d="M1352.13 189.463L1350.58 149.385L1360.01 149.02L1360.86 171.198C1360.97 173.838 1360.92 176.061 1360.73 177.866C1360.58 179.67 1360.29 181.664 1359.85 183.85L1361.03 183.804L1386.78 147.985L1401.99 147.397L1403.54 187.475L1394.19 187.837L1393.33 165.659C1393.23 162.966 1393.25 160.718 1393.39 158.914C1393.58 157.056 1393.87 155.088 1394.27 153.01L1393.16 153.053L1367.42 188.872L1352.13 189.463Z" fill="white"/>
<path d="M45.4443 408.375L52.3909 404.63L45.4443 408.375L50.3536 417.481C128.007 561.512 343.495 528.354 374.257 367.64C389.648 287.578 277.612 252.051 244.056 326.359L243.184 328.29C241.563 331.88 240.275 335.568 239.118 338.883C239.062 339.042 239.007 339.2 238.952 339.357C237.709 342.912 236.591 346.058 235.211 349.006C223.477 374.082 186.571 377.045 172.784 351.473L166.437 354.895L172.784 351.473L167.875 342.367C149.647 308.559 107.464 295.928 73.6557 314.156C39.8474 332.383 27.2168 374.567 45.4443 408.375Z" fill="white" stroke="white" stroke-width="15.7837" stroke-linecap="round"/>
<path d="M159.074 434.964L165.913 397.551L189.383 407.264L159.074 434.964Z" fill="black"/>
<path d="M216.49 442.869L200.121 406.022L224.895 403.435L216.49 442.869Z" fill="black"/>
<path d="M264.586 424.263L231.555 400.32L253.087 387.332L264.586 424.263Z" fill="black"/>
<path d="M300.132 386.818L259.149 381.525L275.047 360.531L300.132 386.818Z" fill="black"/>
<path d="M319.412 344.656L278.915 352.877L287.184 327.875L319.412 344.656Z" fill="black"/>
<path d="M236.832 425.115L233.376 465.765L257.276 457.951L236.832 425.115Z" fill="black"/>
<path d="M283.54 401.021L294.549 440.851L313.096 422.156L283.54 401.021Z" fill="black"/>
<path d="M143.248 414.489L114.111 438.933L134.159 454.53L143.248 414.489Z" fill="black"/>
<path d="M309.755 363.131L338.316 392.995L345.795 367.745L309.755 363.131Z" fill="black"/>
<path d="M189.864 427.268L171.486 463.156L196.079 467.106L189.864 427.268Z" fill="black"/>
<path d="M111.972 384.316L78.9137 400.897L94.4232 421.689L111.972 384.316Z" fill="black"/>
<path d="M120.537 401.146L143.05 371.804L160.547 390.953L120.537 401.146Z" fill="black"/>
<path d="M91.0386 362.225L122.344 342.533L132.098 366.569L91.0386 362.225Z" fill="black"/>
<path d="M1042.53 437.539L1165.26 288.702C1192.52 255.643 1192.28 207.831 1164.69 175.05L1140.43 146.231C1113.75 114.537 1081.42 88.0732 1045.08 68.1853L1016.97 52.8022C979.598 32.347 932.96 41.3284 905.854 74.2017L779.154 227.858C745.861 268.235 745.872 326.548 779.181 366.912C811.136 405.634 850.009 438.081 893.82 462.6L897.633 464.733C946.156 491.889 1007.16 480.441 1042.53 437.539Z" fill="white" stroke="white" stroke-width="24.7173"/>
<path d="M955.016 146.777L958.394 99.0887L990.91 107.278L955.016 146.777Z" fill="black"/>
<path d="M996.192 160.893L1004.62 112.458L1035.07 124.757L996.192 160.893Z" fill="black"/>
<path d="M1032.15 184.41L1051.27 135.922L1076.11 156.406L1032.15 184.41Z" fill="black"/>
<path d="M1065.4 218.394L1090.72 172.132L1110.88 197.623L1065.4 218.394Z" fill="black"/>
<path d="M1086.96 254.38L1121.01 213.225L1133 245.086L1086.96 254.38Z" fill="black"/>
<path d="M849.189 274.893L803.018 287.295L817.253 317.656L849.189 274.893Z" fill="black"/>
<path d="M870.887 312.625L824.946 330.131L842.821 357.674L870.887 312.625Z" fill="black"/>
<path d="M900.841 343.456L856.883 371.46L881.725 391.944L900.841 343.456Z" fill="black"/>
<path d="M940.539 369.605L899.948 403.271L928.815 418.212L940.539 369.605Z" fill="black"/>
<path d="M979.963 383.914L946.051 425.186L979.612 430.882L979.963 383.914Z" fill="black"/>
<circle cx="600.682" cy="754.489" r="137.805" transform="rotate(33.1347 600.682 754.489)" fill="white" stroke="white" stroke-width="14.296"/>
<path d="M535.067 779.856L506.744 790.269L503.032 769.431L535.067 779.856Z" fill="black"/>
<path d="M534.072 745.898L503.283 749.786L505.063 729.136L534.072 745.898Z" fill="black"/>
<path d="M542.707 721.48L510.95 712.886L522.059 695.867L542.707 721.48Z" fill="black"/>
<path d="M564.179 702.415L536.13 684.489L553.048 672.882L564.179 702.415Z" fill="black"/>
<path d="M590.564 690.435L569.863 663.82L591.136 660.793L590.564 690.435Z" fill="black"/>
<path d="M603.721 824.685L605.587 854.804L626.157 849.816L603.721 824.685Z" fill="black"/>
<path d="M635.206 811.915L644.037 841.664L662.224 831.725L635.206 811.915Z" fill="black"/>
<path d="M654.08 794.184L674.727 819.796L685.836 802.778L654.08 794.184Z" fill="black"/>
<path d="M662.897 766.864L690.595 785.327L694.413 765.168L662.897 766.864Z" fill="black"/>
<path d="M663.245 737.889L695.941 746.129L690.15 725.436L663.245 737.889Z" fill="black"/>
</svg>
