<svg width="1195" height="731" viewBox="0 0 1195 731" fill="none" xmlns="http://www.w3.org/2000/svg">
<path d="M232.893 226.993V226.993C337.057 572.103 816.806 595.465 954.01 262.109L968.464 226.993" stroke="black" stroke-width="452.659" stroke-linecap="round"/>
<circle cx="229.751" cy="230.103" r="229.473" fill="black"/>
<path d="M399.695 464.509L438.924 330.515L520.916 374.925L399.695 464.509Z" fill="white"/>
<path d="M606.314 515.266L560.596 374.491L652.032 374.491L606.314 515.266Z" fill="white"/>
<path d="M789.003 465.693L677.53 365.682L761.095 326.469L789.003 465.693Z" fill="white"/>
<path d="M933.067 342.514L785.449 307.57L851.497 236.978L933.067 342.514Z" fill="white"/>
<path d="M1019.53 195.903L868.537 210.484L908.261 122.35L1019.53 195.903Z" fill="white"/>
<path d="M687.359 458.233L659.245 605.332L749.487 585.913L687.359 458.233Z" fill="white"/>
<path d="M867.073 388.059L892.088 537.68L966.93 476.49L867.073 388.059Z" fill="white"/>
<path d="M349.728 383.731L234.025 461.874L301.279 526.463L349.728 383.731Z" fill="white"/>
<path d="M977.225 259.701L1070.12 379.625L1107.06 290.285L977.225 259.701Z" fill="white"/>
<path d="M515.037 448.175L434.257 572.201L522.542 595.997L515.037 448.175Z" fill="white"/>
<path d="M247.029 261.654L120.007 309.591L168.709 391.419L247.029 261.654Z" fill="white"/>
<path d="M271.869 326.394L365.25 227.841L421.838 304.428L271.869 326.394Z" fill="white"/>
<path d="M179.008 173.01L300.814 113.045L327.264 204.523L179.008 173.01Z" fill="white"/>
</svg>
