<svg width="631" height="388" viewBox="0 0 631 388" fill="none" xmlns="http://www.w3.org/2000/svg">
<path d="M123.515 120.859V120.859C178.017 301.432 429.037 313.656 500.826 139.234L508.389 120.859" stroke="white" stroke-width="236.846" stroke-linecap="round"/>
<circle cx="121.867" cy="122.488" r="120.068" fill="white"/>
<path d="M210.794 245.137L231.32 175.027L274.221 198.264L210.794 245.137Z" fill="black"/>
<path d="M318.893 271.694L294.971 198.036L342.814 198.036L318.893 271.694Z" fill="black"/>
<path d="M414.473 245.751L356.147 193.422L399.871 172.905L414.473 245.751Z" fill="black"/>
<path d="M489.873 181.3L412.635 163.016L447.194 126.08L489.873 181.3Z" fill="black"/>
<path d="M535.108 104.592L456.103 112.221L476.887 66.107L535.108 104.592Z" fill="black"/>
<path d="M361.297 241.848L346.587 318.815L393.804 308.654L361.297 241.848Z" fill="black"/>
<path d="M455.327 205.129L468.416 283.416L507.576 251.399L455.327 205.129Z" fill="black"/>
<path d="M184.64 202.868L124.101 243.755L159.29 277.55L184.64 202.868Z" fill="black"/>
<path d="M512.975 137.971L561.583 200.719L580.907 153.973L512.975 137.971Z" fill="black"/>
<path d="M271.146 236.59L228.88 301.484L275.073 313.935L271.146 236.59Z" fill="black"/>
<path d="M130.903 138.993L64.4416 164.075L89.9241 206.89L130.903 138.993Z" fill="black"/>
<path d="M143.907 172.867L192.767 121.301L222.376 161.374L143.907 172.867Z" fill="black"/>
<path d="M95.3168 92.6147L159.049 61.239L172.889 109.103L95.3168 92.6147Z" fill="black"/>
<path d="M123.515 120.859V120.859C178.017 301.432 429.037 313.656 500.826 139.234L508.389 120.859" stroke="white" stroke-width="236.846" stroke-linecap="round"/>
<circle cx="121.867" cy="122.488" r="120.068" fill="white"/>
<path d="M210.794 245.137L231.32 175.027L274.221 198.264L210.794 245.137Z" fill="black"/>
<path d="M318.893 271.694L294.971 198.036L342.814 198.036L318.893 271.694Z" fill="black"/>
<path d="M414.473 245.751L356.147 193.422L399.871 172.905L414.473 245.751Z" fill="black"/>
<path d="M489.873 181.3L412.635 163.016L447.194 126.08L489.873 181.3Z" fill="black"/>
<path d="M535.108 104.592L456.103 112.221L476.887 66.107L535.108 104.592Z" fill="black"/>
<path d="M361.297 241.848L346.587 318.815L393.804 308.654L361.297 241.848Z" fill="black"/>
<path d="M455.327 205.129L468.416 283.416L507.576 251.399L455.327 205.129Z" fill="black"/>
<path d="M184.64 202.868L124.101 243.755L159.29 277.55L184.64 202.868Z" fill="black"/>
<path d="M512.975 137.971L561.583 200.719L580.907 153.973L512.975 137.971Z" fill="black"/>
<path d="M271.146 236.59L228.88 301.484L275.073 313.935L271.146 236.59Z" fill="black"/>
<path d="M130.903 138.993L64.4416 164.075L89.9241 206.89L130.903 138.993Z" fill="black"/>
<path d="M143.907 172.867L192.767 121.301L222.376 161.374L143.907 172.867Z" fill="black"/>
<path d="M95.3168 92.6147L159.049 61.239L172.889 109.103L95.3168 92.6147Z" fill="black"/>
</svg>
