<svg width="1440" height="808" viewBox="0 0 1440 808" fill="none" xmlns="http://www.w3.org/2000/svg">
<path d="M1182.83 1.12414e-05C1272.68 7.31369e-06 1351.27 60.5067 1374.25 147.376L1384.64 186.674C1420.95 323.937 1421.64 468.191 1386.67 605.798L1373.2 658.774C1350.89 746.55 1271.87 808 1181.3 808L290.951 808C183.251 808 89.3505 734.751 63.1383 630.289L59.9188 617.458C22.5912 468.698 23.8457 312.873 63.5637 164.733V164.733C89.6163 67.5626 177.679 5.51778e-05 278.282 5.07803e-05L1182.83 1.12414e-05Z" fill="black"/>
<path d="M1108.4 205.778L1197.92 142.029L1230.95 211.676L1108.4 205.778Z" fill="white"/>
<path d="M1143.57 299.466L1241.81 243.587L1264.52 315.57L1143.57 299.466Z" fill="white"/>
<path d="M1153.61 396.822L1267.8 359.463L1267.8 434.18L1153.61 396.822Z" fill="white"/>
<path d="M1142.81 506.296L1261.88 483.538L1246.16 556.586L1142.81 506.296Z" fill="white"/>
<path d="M1110.5 597.161L1233.3 597.371L1194.32 665.225L1110.5 597.161Z" fill="white"/>
</svg>
