<svg width="1939" height="808" viewBox="0 0 1939 808" fill="none" xmlns="http://www.w3.org/2000/svg">
<path d="M1660.87 1.21573e-05C1740.94 8.65765e-06 1812.47 50.0092 1839.97 125.201V125.201C1904 300.259 1905.21 492.122 1843.4 667.974L1840.39 676.525C1812.71 755.292 1738.32 808 1654.83 808L241.931 808C155.06 808 77.7229 752.973 49.247 670.902L44.3746 656.859C-15.3445 484.74 -13.3706 297.214 49.9587 126.39V126.39C78.1231 50.4199 150.588 7.8174e-05 231.611 7.46323e-05L1660.87 1.21573e-05Z" fill="black"/>
<path d="M1594.54 203.778L1684.06 140.029L1717.09 209.676L1594.54 203.778Z" fill="white"/>
<path d="M1629.71 297.466L1727.95 241.586L1750.66 313.569L1629.71 297.466Z" fill="white"/>
<path d="M1639.75 394.821L1753.94 357.463L1753.94 432.18L1639.75 394.821Z" fill="white"/>
<path d="M1628.95 504.296L1748.02 481.538L1732.3 554.586L1628.95 504.296Z" fill="white"/>
<path d="M1596.64 595.16L1719.44 595.371L1680.46 663.225L1596.64 595.16Z" fill="white"/>
</svg>
