<svg width="463" height="339" viewBox="0 0 463 339" fill="none" xmlns="http://www.w3.org/2000/svg">
<path d="M425.238 197.905C425.238 126.742 367.55 69.0534 296.387 69.0534L244.022 69.0534C239.668 69.0534 235.462 67.4747 232.184 64.61V64.61C225.236 58.5393 222.798 48.7872 226.071 40.161L230.416 28.7102L221.64 31.6013C207.519 36.253 196.588 47.5487 192.401 61.814V61.814C191.578 64.6206 187.813 65.1184 186.261 62.6393V62.6393C181.152 54.4796 174.791 47.1205 167.448 40.8952L153.074 28.7102L159.302 51.2394C160.845 56.8242 156.644 62.3441 150.85 62.3441V62.3441C150.693 62.3441 150.559 62.23 150.533 62.0747L149.404 55.1229C145.628 31.8758 129.532 12.5095 107.368 4.54434L96.2919 0.563875V0.563875C107.246 15.144 109.869 34.3568 103.223 51.3395L100.524 58.2369C98.5075 63.3916 91.8765 64.8219 87.8801 60.9921V60.9921C83.6862 56.9728 81.8383 51.0563 83.0251 45.3699L86.5019 28.7102L81.9286 31.8658C68.8453 40.8933 58.0043 53.0112 50.4233 66.9825V66.9825C49.7351 68.2508 48.401 69.0534 46.958 69.0534V69.0534C32.7542 69.0534 19.0993 63.5668 8.84427 53.7391L0.349278 45.5981V45.5981C4.19002 67.0689 13.9074 87.0547 28.4222 103.336L31.2995 106.563C42.893 119.567 49.2996 136.381 49.2996 153.803L49.2996 184.454V184.454C49.2996 248.187 100.966 299.854 164.7 299.854L237.269 299.854L331.254 299.854L370.701 299.854C375.606 299.854 380.386 301.4 384.361 304.273L389.441 307.944V307.944C405.31 319.94 423.441 328.603 442.743 333.412L462.44 338.32L455.959 334.601C436.957 323.699 425.238 303.466 425.238 281.558V281.558L425.238 210.723L425.238 197.905Z" fill="white"/>
<path d="M407.693 204.156C407.693 138.279 353.938 85.061 288.064 85.7229L237.97 86.2262C226.002 86.9452 215.33 78.7485 212.936 67.0004L212.324 63.9962L206.247 73.8579C203.543 78.2456 201.242 82.8692 199.372 87.672C197.493 92.4984 190.959 93.2124 188.082 88.9057L185.153 84.521L172.141 65.8453L171.871 69.2879C170.976 80.706 160.725 89.0628 149.361 87.6393C142.916 86.832 138.08 81.3528 138.08 74.8576L138.08 70.2111C138.08 63.4904 136.198 56.904 132.647 51.198L121.624 33.4865C126.457 47.6151 123.818 63.2294 114.612 74.9856L113.096 76.921C107.261 84.3719 97.4954 87.5486 88.3933 84.957L86.9316 84.5408C82.4302 83.2591 78.8776 79.7956 77.482 75.3283L73.5952 62.8868L71.6268 65.3477C66.1981 72.1347 65.8227 81.6661 70.7009 88.859C71.4607 89.9795 70.6581 91.4936 69.3043 91.4936L60.4114 91.4936C54.1693 91.4936 47.9991 90.1616 42.3128 87.5865L29.0105 81.5624L33.8609 86.602C41.58 94.6221 48.5049 103.37 54.5389 112.724C66.1398 130.708 71.102 152.176 68.5698 173.426L67.0893 185.85C70.1204 237.658 113.018 278.119 164.914 278.119L237.97 278.119L280.065 278.119L322.16 278.119L363.683 278.119L372.755 278.119C379.107 278.119 385.359 279.709 390.939 282.745C395.082 284.999 398.995 287.655 402.62 290.673L412.86 299.199C409.446 290.567 407.693 281.368 407.693 272.086L407.693 260.553L407.693 204.156Z" fill="#9D0000"/>
<path d="M407.693 204.156C407.693 138.279 353.938 85.061 288.064 85.7229L237.97 86.2262C226.002 86.9452 215.33 78.7485 212.936 67.0004L212.324 63.9962L206.247 73.8579C203.543 78.2456 201.242 82.8692 199.372 87.672C197.493 92.4984 190.959 93.2124 188.082 88.9057L185.153 84.521L172.141 65.8453L171.871 69.2879C170.976 80.706 160.725 89.0628 149.361 87.6393C142.916 86.832 138.08 81.3528 138.08 74.8576L138.08 70.2111C138.08 63.4904 136.198 56.904 132.647 51.198L121.624 33.4865C126.457 47.6151 123.818 63.2294 114.612 74.9856L113.096 76.921C107.261 84.3719 97.4954 87.5486 88.3933 84.957L86.9316 84.5408C82.4302 83.2591 78.8776 79.7956 77.482 75.3283L73.5952 62.8868L71.6268 65.3477C66.1981 72.1347 65.8227 81.6661 70.7009 88.859C71.4607 89.9795 70.6581 91.4936 69.3043 91.4936L60.4114 91.4936C54.1693 91.4936 47.9991 90.1616 42.3128 87.5865L29.0105 81.5624L33.8609 86.602C41.58 94.6221 48.5049 103.37 54.5389 112.724C66.1398 130.708 71.102 152.176 68.5698 173.426L67.0893 185.85C70.1204 237.658 113.018 278.119 164.914 278.119L237.97 278.119L280.065 278.119L322.16 278.119L363.683 278.119L372.755 278.119C379.107 278.119 385.359 279.709 390.939 282.745C395.082 284.999 398.995 287.655 402.62 290.673L412.86 299.199C409.446 290.567 407.693 281.368 407.693 272.086L407.693 260.553L407.693 204.156Z" stroke="white"/>
<path d="M108.875 164.967L110.261 153.801L119.947 155.003L116.052 186.394L106.366 185.192L107.885 172.949L90.6197 170.807L89.1006 183.05L79.4142 181.848L83.3093 150.457L92.9957 151.659L91.6102 162.825L108.875 164.967ZM159.459 191.78L149.189 190.506L147.829 185.692L132.312 183.767L129.817 188.102L119.547 186.828L137.658 157.2L149.093 158.619L159.459 191.78ZM136.28 176.746L145.697 177.914L143.926 171.639C143.454 169.819 143.15 168.355 143.014 167.245C142.912 166.109 142.928 165.003 143.062 163.927L143.084 163.748L142.277 163.647L142.254 163.827C142.121 164.903 141.851 165.978 141.445 167.05C141.072 168.097 140.434 169.445 139.531 171.093L136.28 176.746ZM164.081 192.991C162.377 192.779 160.897 192.353 159.641 191.711L160.631 183.729C161.263 184.02 161.953 184.212 162.7 184.304C164.135 184.483 165.205 184.297 165.911 183.747C166.647 183.2 167.202 182.146 167.578 180.584L172.269 161.495L203.885 165.418L199.99 196.809L190.303 195.607L193.208 172.198L179.754 170.529L176.7 183.401C175.829 186.996 174.382 189.609 172.358 191.24C170.338 192.841 167.579 193.425 164.081 192.991ZM206.459 197.612L210.354 166.221L219.681 167.378L217.634 183.881C217.393 185.824 217.067 187.468 216.657 188.814C216.247 190.16 215.733 191.492 215.114 192.812L215.921 192.912L232.417 168.958L247.44 170.822L243.545 202.213L234.262 201.062L236.31 184.559C236.555 182.586 236.882 180.926 237.292 179.581C237.705 178.205 238.218 176.888 238.83 175.628L237.978 175.522L221.526 199.481L206.459 197.612ZM280.278 190.47C282.793 190.995 284.64 192.013 285.819 193.525C287.001 195.008 287.458 196.825 287.191 198.978C286.486 204.658 282.217 207.012 274.385 206.04L249.989 203.013L253.884 171.622L278.504 174.677C282.002 175.111 284.519 176.106 286.056 177.663C287.623 179.224 288.264 181.155 287.979 183.457C287.737 185.4 286.958 186.912 285.64 187.993C284.322 189.074 282.573 189.586 280.395 189.528L280.278 190.47ZM262.305 180.089L261.687 185.067L274.513 186.658C275.559 186.788 276.379 186.662 276.973 186.28C277.567 185.899 277.912 185.319 278.008 184.542C278.105 183.765 277.91 183.133 277.424 182.648C276.941 182.133 276.177 181.81 275.13 181.68L262.305 180.089ZM273.946 198.564C275.082 198.704 275.964 198.571 276.591 198.163C277.219 197.755 277.584 197.133 277.688 196.296C277.796 195.429 277.595 194.721 277.087 194.172C276.578 193.623 275.756 193.278 274.62 193.137L260.897 191.435L260.224 196.861L273.946 198.564ZM326.618 212.521L316.348 211.247L314.988 206.434L299.472 204.508L296.976 208.843L286.706 207.569L304.817 177.942L316.252 179.361L326.618 212.521ZM303.439 197.487L312.856 198.656L311.085 192.38C310.613 190.561 310.309 189.096 310.173 187.987C310.071 186.851 310.087 185.745 310.221 184.668L310.243 184.489L309.436 184.389L309.413 184.568C309.28 185.645 309.01 186.719 308.604 187.792C308.231 188.838 307.593 190.186 306.69 191.835L303.439 197.487ZM330.131 212.957L334.026 181.566L343.354 182.724L341.306 199.226C341.065 201.17 340.739 202.814 340.33 204.16C339.92 205.505 339.405 206.838 338.786 208.157L339.594 208.257L356.09 184.304L371.112 186.168L367.217 217.559L357.935 216.407L359.982 199.904C360.227 197.931 360.554 196.272 360.964 194.926C361.378 193.551 361.89 192.233 362.502 190.974L361.65 190.868L345.199 214.827L330.131 212.957ZM353.722 181.369C349.626 180.861 346.626 179.715 344.723 177.93C342.853 176.12 341.941 173.806 341.987 170.988L349.745 171.951C349.79 172.806 350.183 173.553 350.924 174.192C351.664 174.83 352.842 175.249 354.456 175.45C356.071 175.65 357.315 175.531 358.189 175.093C359.063 174.655 359.611 174.025 359.835 173.203L367.638 174.171C366.994 176.914 365.529 178.933 363.243 180.228C360.991 181.497 357.817 181.877 353.722 181.369ZM381.942 208.503L375.799 207.741L375.275 199.115L376.794 186.873L386.122 188.03L384.603 200.273L381.942 208.503ZM377.44 219.465C376.005 219.287 374.893 218.709 374.104 217.73C373.315 216.752 373.001 215.605 373.165 214.29C373.332 212.945 373.915 211.909 374.916 211.183C375.921 210.427 377.14 210.139 378.575 210.317C380.04 210.498 381.167 211.079 381.957 212.057C382.75 213.005 383.063 214.152 382.896 215.497C382.733 216.813 382.149 217.848 381.144 218.604C380.14 219.36 378.905 219.647 377.44 219.465Z" fill="white"/>
</svg>
