<svg width="463" height="339" viewBox="0 0 463 339" fill="none" xmlns="http://www.w3.org/2000/svg">
<path d="M37.7613 198.285C37.7613 127.123 95.45 69.4341 166.612 69.4341H218.978C223.331 69.4341 227.537 67.8554 230.816 64.9907V64.9907C237.764 58.92 240.202 49.168 236.929 40.5417L232.584 29.091L241.36 31.982C255.48 36.6337 266.412 47.9294 270.598 62.1947V62.1947C271.422 65.0013 275.187 65.4991 276.739 63.02V63.02C281.847 54.8603 288.209 47.5012 295.552 41.2759L309.925 29.091L303.698 51.6201C302.154 57.2049 306.355 62.7248 312.149 62.7248V62.7248C312.307 62.7248 312.441 62.6107 312.466 62.4554L313.595 55.5036C317.372 32.2565 333.467 12.8902 355.631 4.92504L366.708 0.94458V0.94458C355.753 15.5247 353.131 34.7375 359.776 51.7202L362.475 58.6176C364.492 63.7723 371.123 65.2026 375.119 61.3728V61.3728C379.313 57.3536 381.161 51.437 379.974 45.7506L376.498 29.091L381.071 32.2465C394.154 41.274 404.995 53.3919 412.576 67.3632V67.3632C413.264 68.6315 414.599 69.4341 416.041 69.4341V69.4341C430.245 69.4341 443.9 63.9475 454.155 54.1198L462.65 45.9788V45.9788C458.809 67.4495 449.092 87.4354 434.577 103.716L431.7 106.944C420.107 119.948 413.7 136.761 413.7 154.183V184.834V184.834C413.7 248.568 362.033 300.234 298.3 300.234H225.731H131.746H92.299C87.3939 300.234 82.6137 301.781 78.6382 304.654L73.559 308.325V308.325C57.6899 320.32 39.5589 328.984 20.2562 333.793L0.559082 338.701L7.04091 334.982C26.0428 324.08 37.7613 303.846 37.7613 281.939V281.939V211.104V198.285Z" fill="white"/>
<path d="M55.3056 204.537C55.3056 138.659 109.061 85.4418 174.935 86.1036L225.029 86.6069C236.997 87.3259 247.669 79.1292 250.063 67.3811L250.675 64.3769L256.752 74.2386C259.456 78.6263 261.757 83.2499 263.627 88.0527C265.506 92.8791 272.04 93.5931 274.917 89.2864L277.846 84.9017L290.858 66.226L291.128 69.6686C292.023 81.0867 302.274 89.4435 313.638 88.02C320.083 87.2127 324.919 81.7335 324.919 75.2383V70.5918C324.919 63.8711 326.801 57.2847 330.352 51.5788L341.375 33.8672C336.542 47.9959 339.181 63.6101 348.387 75.3663L349.903 77.3017C355.738 84.7526 365.504 87.9293 374.606 85.3377L376.067 84.9215C380.569 83.6398 384.121 80.1764 385.517 75.709L389.404 63.2675L391.372 65.7284C396.801 72.5154 397.176 82.0469 392.298 89.2397C391.538 90.3602 392.341 91.8743 393.695 91.8743H402.588C408.83 91.8743 415 90.5423 420.686 87.9673L433.989 81.9431L429.138 86.9828C421.419 95.0028 414.494 103.751 408.46 113.105C396.859 131.088 391.897 152.556 394.429 173.807L395.91 186.231C392.879 238.039 349.981 278.5 298.085 278.5H225.029H182.934H140.839H99.3163H90.2443C83.8919 278.5 77.6405 280.09 72.0604 283.126C67.9167 285.38 64.0042 288.035 60.3791 291.054L50.1392 299.579C53.5528 290.948 55.3056 281.749 55.3056 272.467V260.934V204.537Z" fill="#9D0000"/>
<path d="M55.3056 204.537C55.3056 138.659 109.061 85.4418 174.935 86.1036L225.029 86.6069C236.997 87.3259 247.669 79.1292 250.063 67.3811L250.675 64.3769L256.752 74.2386C259.456 78.6263 261.757 83.2499 263.627 88.0527C265.506 92.8791 272.04 93.5931 274.917 89.2864L277.846 84.9017L290.858 66.226L291.128 69.6686C292.023 81.0867 302.274 89.4435 313.638 88.02C320.083 87.2127 324.919 81.7335 324.919 75.2383V70.5918C324.919 63.8711 326.801 57.2847 330.352 51.5788L341.375 33.8672C336.542 47.9959 339.181 63.6101 348.387 75.3663L349.903 77.3017C355.738 84.7526 365.504 87.9293 374.606 85.3377L376.067 84.9215C380.569 83.6398 384.121 80.1764 385.517 75.709L389.404 63.2675L391.372 65.7284C396.801 72.5154 397.176 82.0469 392.298 89.2397C391.538 90.3602 392.341 91.8743 393.695 91.8743H402.588C408.83 91.8743 415 90.5423 420.686 87.9673L433.989 81.9431L429.138 86.9828C421.419 95.0028 414.494 103.751 408.46 113.105C396.859 131.088 391.897 152.556 394.429 173.807L395.91 186.231C392.879 238.039 349.981 278.5 298.085 278.5H225.029H182.934H140.839H99.3163H90.2443C83.8919 278.5 77.6405 280.09 72.0604 283.126C67.9167 285.38 64.0042 288.035 60.3791 291.054L50.1392 299.579C53.5528 290.948 55.3056 281.749 55.3056 272.467V260.934V204.537Z" stroke="white"/>
<path d="M119.108 231.266L108.733 234.485L105.351 230.469L89.6747 235.333L89.1605 240.559L78.7854 243.778L83.3067 207.607L94.8597 204.022L119.108 231.266ZM90.4359 226.901L99.9502 223.949L95.5433 218.711C94.305 217.174 93.3813 215.905 92.772 214.902C92.1836 213.859 91.7207 212.794 91.3833 211.707L91.3271 211.526L90.5116 211.779L90.5678 211.96C90.9052 213.047 91.1114 214.192 91.1863 215.394C91.2821 216.556 91.2544 218.121 91.1033 220.088L90.4359 226.901ZM143.546 201.283L140.045 190.002L149.831 186.965L159.672 218.679L149.886 221.716L146.048 209.347L128.605 214.76L132.443 227.128L122.657 230.165L112.816 198.451L122.603 195.414L126.103 206.695L143.546 201.283ZM188.429 174.988L190.763 182.509L168.472 189.426L169.949 194.183L189.068 188.25L191.134 194.91L172.015 200.843L173.646 206.098L195.936 199.182L198.27 206.702L166.193 216.656L156.353 184.941L188.429 174.988ZM218.935 182.211L239.184 194.007L226.544 197.929L208.95 186.849L213.631 201.936L203.845 204.972L194.004 173.258L203.791 170.222L208.205 184.448L216.204 166.37L228.437 162.574L218.935 182.211ZM274.591 174.378L279.393 172.888L284.187 188.337L274.809 191.247L272.461 183.681L247.543 191.413L249.891 198.979L240.467 201.904L235.673 186.454L237.621 185.85C238.829 185.475 239.673 184.832 240.152 183.922C240.631 183.012 240.716 181.843 240.405 180.416L236.615 160.037L267.196 150.547L274.591 174.378ZM265.213 177.288L260.264 161.341L247.488 165.305L249.687 176.394C249.958 177.8 250.028 178.987 249.898 179.954C249.768 180.922 249.406 181.73 248.812 182.377L265.213 177.288ZM305.522 174.118C300.961 175.533 296.86 176.028 293.218 175.602C289.566 175.145 286.541 173.932 284.141 171.961C281.762 169.951 280.086 167.375 279.111 164.234C278.136 161.093 278.065 158.036 278.897 155.062C279.75 152.049 281.558 149.336 284.319 146.923C287.07 144.48 290.727 142.551 295.288 141.135C299.848 139.72 303.954 139.241 307.606 139.697C311.248 140.123 314.258 141.341 316.637 143.352C319.037 145.322 320.724 147.878 321.699 151.019C322.673 154.161 322.734 157.238 321.881 160.251C321.049 163.224 319.257 165.933 316.505 168.376C313.744 170.789 310.083 172.703 305.522 174.118ZM303.062 166.19C305.569 165.412 307.57 164.393 309.067 163.134C310.554 161.845 311.519 160.419 311.962 158.858C312.435 157.288 312.419 155.687 311.912 154.056C311.406 152.425 310.514 151.096 309.235 150.069C307.986 149.033 306.389 148.419 304.442 148.228C302.486 148.007 300.255 148.286 297.748 149.064C295.241 149.842 293.244 150.875 291.756 152.165C290.26 153.424 289.275 154.839 288.802 156.409C288.359 157.97 288.391 159.566 288.897 161.198C289.403 162.829 290.28 164.162 291.529 165.199C292.808 166.226 294.426 166.849 296.381 167.07C298.328 167.261 300.555 166.967 303.062 166.19ZM349.283 159.844L339.496 162.881L332.158 139.231L319.789 143.069L317.287 135.004L351.81 124.292L354.313 132.356L341.944 136.194L349.283 159.844ZM368.866 141.897L362.659 143.823L358.431 135.797L354.593 123.429L364.016 120.504L367.854 132.873L368.866 141.897ZM369.297 154.329C367.847 154.779 366.533 154.706 365.355 154.112C364.177 153.517 363.382 152.555 362.97 151.226C362.548 149.867 362.659 148.624 363.303 147.497C363.937 146.34 364.979 145.536 366.429 145.087C367.909 144.627 369.238 144.695 370.416 145.29C371.584 145.854 372.38 146.816 372.801 148.176C373.214 149.504 373.103 150.748 372.468 151.905C371.834 153.062 370.777 153.87 369.297 154.329Z" fill="white"/>
</svg>
