<svg width="463" height="339" viewBox="0 0 463 339" fill="none" xmlns="http://www.w3.org/2000/svg">
<path d="M425.438 198.303C425.438 127.141 367.75 69.452 296.587 69.452L244.222 69.452C239.868 69.452 235.662 67.8733 232.384 65.0087V65.0087C225.436 58.9379 222.998 49.1859 226.271 40.5597L230.616 29.1089L221.84 31.9999C207.72 36.6516 196.788 47.9473 192.601 62.2126V62.2126C191.778 65.0193 188.013 65.5171 186.461 63.0379V63.0379C181.352 54.8783 174.991 47.5191 167.648 41.2939L153.274 29.1089L159.502 51.6381C161.046 57.2228 156.845 62.7427 151.05 62.7427V62.7427C150.893 62.7427 150.759 62.6286 150.734 62.4734L149.604 55.5215C145.828 32.2744 129.732 12.9082 107.568 4.94296L96.4921 0.962492V0.962492C107.446 15.5426 110.069 34.7555 103.424 51.7382L100.725 58.6355C98.7076 63.7902 92.0767 65.2206 88.0803 61.3907V61.3907C83.8863 57.3715 82.0385 51.455 83.2253 45.7685L86.7021 29.1089L82.1287 32.2644C69.0455 41.2919 58.2045 53.4099 50.6235 67.3811V67.3811C49.9353 68.6494 48.6012 69.452 47.1582 69.452V69.452C32.9544 69.452 19.2995 63.9654 9.04446 54.1377L0.549465 45.9967V45.9967C4.39021 67.4675 14.1076 87.4533 28.6223 103.734L31.4997 106.962C43.0932 119.966 49.4998 136.779 49.4998 154.201L49.4998 184.852V184.852C49.4998 248.586 101.166 300.252 164.9 300.252L237.469 300.252L331.454 300.252L370.901 300.252C375.806 300.252 380.586 301.799 384.562 304.672L389.641 308.343V308.343C405.51 320.338 423.641 329.002 442.944 333.811L462.641 338.719L456.159 335C437.157 324.098 425.438 303.864 425.438 281.957V281.957L425.438 211.122L425.438 198.303Z" fill="white"/>
<path d="M407.895 204.555C407.895 138.677 354.14 85.4596 288.266 86.1214L238.172 86.6247C226.204 87.3437 215.531 79.147 213.138 67.3989L212.526 64.3947L206.449 74.2564C203.745 78.6441 201.444 83.2677 199.574 88.0705C197.695 92.8969 191.161 93.6109 188.284 89.3042L185.354 84.9195L172.342 66.2438L172.073 69.6864C171.177 81.1045 160.927 89.4613 149.562 88.0378C143.118 87.2305 138.282 81.7513 138.282 75.2561L138.282 70.6096C138.282 63.8889 136.4 57.3025 132.849 51.5966L121.826 33.885C126.659 48.0137 124.02 63.6279 114.813 75.3841L113.297 77.3195C107.462 84.7704 97.6971 87.9471 88.595 85.3555L87.1333 84.9393C82.6319 83.6576 79.0793 80.1942 77.6837 75.7268L73.7968 63.2853L71.8284 65.7462C66.3997 72.5332 66.0244 82.0646 70.9025 89.2575C71.6624 90.378 70.8598 91.8921 69.5059 91.8921L60.6131 91.8921C54.371 91.8921 48.2007 90.5601 42.5145 87.985L29.2121 81.9609L34.0626 87.0005C41.7816 95.0206 48.7065 103.769 54.7406 113.123C66.3415 131.106 71.3037 152.574 68.7714 173.825L67.2909 186.249C70.322 238.057 113.219 278.518 165.116 278.518L238.172 278.518L280.267 278.518L322.361 278.518L363.884 278.518L372.956 278.518C379.309 278.518 385.56 280.108 391.14 283.144C395.284 285.398 399.196 288.053 402.822 291.071L413.062 299.597C409.648 290.965 407.895 281.767 407.895 272.485L407.895 260.951L407.895 204.555Z" fill="#9D0000"/>
<path d="M407.895 204.555C407.895 138.677 354.14 85.4596 288.266 86.1214L238.172 86.6247C226.204 87.3437 215.531 79.147 213.138 67.3989L212.526 64.3947L206.449 74.2564C203.745 78.6441 201.444 83.2677 199.574 88.0705C197.695 92.8969 191.161 93.6109 188.284 89.3042L185.354 84.9195L172.342 66.2438L172.073 69.6864C171.177 81.1045 160.927 89.4613 149.562 88.0378C143.118 87.2305 138.282 81.7513 138.282 75.2561L138.282 70.6096C138.282 63.8889 136.4 57.3025 132.849 51.5966L121.826 33.885C126.659 48.0137 124.02 63.6279 114.813 75.3841L113.297 77.3195C107.462 84.7704 97.6971 87.9471 88.595 85.3555L87.1333 84.9393C82.6319 83.6576 79.0793 80.1942 77.6837 75.7268L73.7968 63.2853L71.8284 65.7462C66.3997 72.5332 66.0244 82.0646 70.9025 89.2575C71.6624 90.378 70.8598 91.8921 69.5059 91.8921L60.6131 91.8921C54.371 91.8921 48.2007 90.5601 42.5145 87.985L29.2121 81.9609L34.0626 87.0005C41.7816 95.0206 48.7065 103.769 54.7406 113.123C66.3415 131.106 71.3037 152.574 68.7714 173.825L67.2909 186.249C70.322 238.057 113.219 278.518 165.116 278.518L238.172 278.518L280.267 278.518L322.361 278.518L363.884 278.518L372.956 278.518C379.309 278.518 385.56 280.108 391.14 283.144C395.284 285.398 399.196 288.053 402.822 291.071L413.062 299.597C409.648 290.965 407.895 281.767 407.895 272.485L407.895 260.951L407.895 204.555Z" stroke="white"/>
<path d="M87.8797 183.957L78.7121 182.99L81.8463 153.28L115.885 156.871L112.751 186.581L103.583 185.614L105.921 163.459L90.2169 161.802L87.8797 183.957ZM137.614 189.804C133.342 189.354 129.776 188.305 126.917 186.659C124.061 184.984 121.991 182.906 120.708 180.425C119.456 177.918 118.986 175.194 119.296 172.251C119.606 169.308 120.634 166.756 122.378 164.594C124.154 162.407 126.611 160.806 129.751 159.793C132.894 158.751 136.601 158.456 140.874 158.906C145.146 159.357 148.71 160.42 151.566 162.094C154.425 163.741 156.481 165.817 157.733 168.324C159.016 170.805 159.502 173.517 159.192 176.46C158.881 179.402 157.838 181.967 156.063 184.155C154.318 186.317 151.875 187.919 148.732 188.96C145.593 189.974 141.887 190.255 137.614 189.804ZM138.398 182.377C140.746 182.625 142.763 182.494 144.447 181.985C146.134 181.448 147.438 180.613 148.359 179.48C149.308 178.35 149.863 177.021 150.024 175.493C150.185 173.965 149.92 172.549 149.228 171.246C148.564 169.946 147.461 168.871 145.92 168.022C144.382 167.144 142.439 166.582 140.09 166.334C137.742 166.086 135.724 166.231 134.036 166.768C132.352 167.277 131.035 168.096 130.086 169.227C129.166 170.36 128.625 171.69 128.463 173.218C128.302 174.746 128.554 176.16 129.218 177.46C129.91 178.764 131.025 179.854 132.563 180.732C134.104 181.581 136.049 182.129 138.398 182.377ZM192.574 195.602C188.301 195.152 184.735 194.103 181.876 192.457C179.02 190.782 176.951 188.704 175.668 186.223C174.416 183.716 173.945 180.992 174.255 178.049C174.566 175.106 175.593 172.554 177.338 170.392C179.113 168.205 181.571 166.604 184.71 165.591C187.853 164.549 191.561 164.254 195.833 164.704C200.106 165.155 203.67 166.218 206.526 167.892C209.385 169.539 211.44 171.615 212.692 174.122C213.975 176.603 214.462 179.315 214.151 182.258C213.841 185.2 212.798 187.765 211.022 189.953C209.278 192.115 206.834 193.716 203.692 194.758C200.552 195.772 196.846 196.053 192.574 195.602ZM193.357 188.175C195.706 188.423 197.722 188.292 199.406 187.783C201.094 187.246 202.398 186.411 203.318 185.278C204.267 184.148 204.822 182.819 204.984 181.291C205.145 179.763 204.879 178.347 204.187 177.044C203.523 175.744 202.421 174.669 200.88 173.82C199.341 172.942 197.398 172.379 195.05 172.132C192.701 171.884 190.683 172.029 188.996 172.566C187.311 173.075 185.995 173.894 185.046 175.025C184.125 176.158 183.584 177.488 183.423 179.016C183.262 180.544 183.513 181.958 184.177 183.258C184.869 184.562 185.984 185.652 187.523 186.529C189.064 187.379 191.009 187.927 193.357 188.175ZM250.722 193.669L255.221 194.143L253.694 208.616L244.909 207.689L245.657 200.601L222.313 198.139L221.566 205.227L212.738 204.295L214.264 189.823L216.089 190.015C217.221 190.135 218.147 189.903 218.866 189.321C219.586 188.739 220.071 187.803 220.321 186.513L224.429 168.322L253.077 171.344L250.722 193.669ZM241.937 192.742L243.513 177.802L231.544 176.54L229.422 186.486C229.146 187.745 228.782 188.751 228.331 189.504C227.88 190.258 227.294 190.797 226.573 191.121L241.937 192.742ZM285.997 185.503L287.112 174.935L296.28 175.902L293.145 205.611L283.978 204.644L285.2 193.057L268.86 191.334L267.638 202.92L258.47 201.953L261.604 172.244L270.772 173.211L269.657 183.779L285.997 185.503ZM317.994 208.833C313.721 208.383 310.156 207.334 307.297 205.688C304.441 204.013 302.371 201.935 301.088 199.454C299.836 196.947 299.365 194.223 299.676 191.28C299.986 188.337 301.014 185.785 302.758 183.623C304.534 181.436 306.991 179.835 310.131 178.822C313.273 177.78 316.981 177.485 321.253 177.935C325.526 178.386 329.09 179.449 331.946 181.123C334.805 182.77 336.86 184.846 338.112 187.353C339.396 189.834 339.882 192.546 339.571 195.489C339.261 198.432 338.218 200.997 336.442 203.184C334.698 205.346 332.254 206.948 329.112 207.989C325.972 209.003 322.266 209.284 317.994 208.833ZM318.777 201.406C321.126 201.654 323.142 201.523 324.827 201.014C326.514 200.477 327.818 199.642 328.739 198.509C329.688 197.379 330.243 196.05 330.404 194.522C330.565 192.994 330.3 191.578 329.607 190.275C328.943 188.975 327.841 187.9 326.3 187.051C324.762 186.173 322.818 185.611 320.47 185.363C318.121 185.115 316.103 185.26 314.416 185.797C312.732 186.306 311.415 187.126 310.466 188.256C309.545 189.389 309.004 190.719 308.843 192.247C308.682 193.775 308.933 195.189 309.597 196.489C310.29 197.793 311.405 198.883 312.943 199.761C314.484 200.61 316.429 201.158 318.777 201.406ZM342.982 210.869L346.116 181.159L354.944 182.09L353.296 197.709C353.102 199.548 352.823 201.107 352.46 202.385C352.096 203.662 351.633 204.929 351.072 206.186L351.836 206.267L366.998 183.362L381.216 184.862L378.081 214.572L369.296 213.645L370.944 198.026C371.141 196.159 371.421 194.586 371.785 193.308C372.151 192.002 372.613 190.749 373.168 189.549L372.362 189.464L357.242 212.373L342.982 210.869ZM364.711 180.632C360.834 180.223 357.982 179.192 356.153 177.54C354.356 175.863 353.455 173.694 353.45 171.033L360.792 171.807C360.85 172.614 361.234 173.313 361.944 173.903C362.655 174.493 363.774 174.868 365.302 175.029C366.83 175.191 368.002 175.057 368.82 174.628C369.638 174.199 370.145 173.595 370.342 172.815L377.727 173.594C377.166 176.195 375.818 178.127 373.682 179.39C371.578 180.627 368.587 181.041 364.711 180.632Z" fill="white"/>
</svg>
