<svg width="470" height="425" viewBox="0 0 470 425" fill="none" xmlns="http://www.w3.org/2000/svg">
<path d="M431.197 213.319C431.197 142.156 373.509 84.4675 302.346 84.4675L249.981 84.4676C245.627 84.4676 241.421 82.8889 238.143 80.0242V80.0242C231.195 73.9534 228.757 64.2014 232.03 55.5752L236.375 44.1244L227.599 47.0155C213.478 51.6671 202.547 62.9629 198.36 77.2282V77.2282C197.536 80.0348 193.772 80.5326 192.22 78.0534V78.0534C187.111 69.8938 180.75 62.5347 173.407 56.3094L159.033 44.1244L165.261 66.6536C166.804 72.2384 162.603 77.7583 156.809 77.7583V77.7583C156.652 77.7583 156.518 77.6442 156.492 77.4889L155.363 70.5371C151.587 47.29 135.491 27.9237 113.327 19.9585L102.251 15.9781V15.9781C113.205 30.5582 115.828 49.771 109.182 66.7537L106.483 73.6511C104.466 78.8057 97.8355 80.2361 93.8391 76.4063V76.4063C89.6451 72.387 87.7973 66.4705 88.9841 60.7841L92.4609 44.1244L87.8875 47.28C74.8043 56.3075 63.9632 68.4254 56.3823 82.3967V82.3967C55.6941 83.665 54.36 84.4676 52.917 84.4676V84.4676C38.7132 84.4676 25.0583 78.981 14.8033 69.1533L6.30826 61.0123V61.0123C10.149 82.483 19.8664 102.469 34.3812 118.75L37.2585 121.977C48.852 134.981 55.2586 151.795 55.2586 169.217L55.2586 199.868V199.868C55.2586 263.601 106.925 315.268 170.659 315.268L243.228 315.268L337.213 315.268L376.659 315.268C381.565 315.268 386.345 316.814 390.32 319.687L395.4 323.358V323.358C411.269 335.354 429.4 344.017 448.702 348.827L468.399 353.735L461.918 350.016C442.916 339.114 431.197 318.88 431.197 296.973V296.973L431.197 226.138L431.197 213.319Z" fill="white"/>
<path d="M413.653 219.57C413.653 153.693 359.898 100.475 294.024 101.137L243.93 101.64C231.962 102.359 221.289 94.1625 218.896 82.4144L218.284 79.4103L212.207 89.2719C209.503 93.6597 207.202 98.2832 205.332 103.086C203.453 107.912 196.919 108.626 194.042 104.32L191.112 99.935L178.1 81.2594L177.831 84.7019C176.935 96.12 166.685 104.477 155.321 103.053C148.876 102.246 144.04 96.7669 144.04 90.2717L144.04 85.6252C144.04 78.9044 142.158 72.318 138.607 66.6121L127.584 48.9005C132.417 63.0292 129.778 78.6434 120.571 90.3996L119.056 92.3351C113.22 99.786 103.455 102.963 94.353 100.371L92.8913 99.9548C88.39 98.6732 84.8373 95.2097 83.4417 90.7424L79.5549 78.3008L77.5865 80.7618C72.1578 87.5488 71.7824 97.0802 76.6606 104.273C77.4204 105.394 76.6178 106.908 75.264 106.908L66.3711 106.908C60.129 106.908 53.9588 105.576 48.2726 103.001L34.9702 96.9765L39.8207 102.016C47.5397 110.036 54.4646 118.784 60.4987 128.138C72.0996 146.122 77.0617 167.59 74.5295 188.84L73.049 201.264C76.0801 253.072 118.977 293.533 170.874 293.533L243.93 293.533L286.025 293.533L328.119 293.533L369.642 293.533L378.714 293.533C385.067 293.533 391.318 295.124 396.898 298.159C401.042 300.413 404.955 303.069 408.58 306.087L418.82 314.613C415.406 305.981 413.653 296.782 413.653 287.5L413.653 275.967L413.653 219.57Z" fill="white"/>
<path d="M413.653 219.57C413.653 153.693 359.898 100.475 294.024 101.137L243.93 101.64C231.962 102.359 221.289 94.1625 218.896 82.4144L218.284 79.4103L212.207 89.2719C209.503 93.6597 207.202 98.2832 205.332 103.086C203.453 107.912 196.919 108.626 194.042 104.32L191.112 99.935L178.1 81.2594L177.831 84.7019C176.935 96.12 166.685 104.477 155.321 103.053C148.876 102.246 144.04 96.7669 144.04 90.2717L144.04 85.6252C144.04 78.9044 142.158 72.318 138.607 66.6121L127.584 48.9005C132.417 63.0292 129.778 78.6434 120.571 90.3996L119.056 92.3351C113.22 99.786 103.455 102.963 94.353 100.371L92.8913 99.9548C88.39 98.6732 84.8373 95.2097 83.4417 90.7424L79.5549 78.3008L77.5865 80.7618C72.1578 87.5488 71.7824 97.0802 76.6606 104.273C77.4204 105.394 76.6178 106.908 75.264 106.908L66.3711 106.908C60.129 106.908 53.9588 105.576 48.2726 103.001L34.9702 96.9765L39.8207 102.016C47.5397 110.036 54.4646 118.784 60.4987 128.138C72.0996 146.122 77.0617 167.59 74.5295 188.84L73.049 201.264C76.0801 253.072 118.977 293.533 170.874 293.533L243.93 293.533L286.025 293.533L328.119 293.533L369.642 293.533L378.714 293.533C385.067 293.533 391.318 295.124 396.898 298.159C401.042 300.413 404.955 303.069 408.58 306.087L418.82 314.613C415.406 305.981 413.653 296.782 413.653 287.5L413.653 275.967L413.653 219.57Z" stroke="white"/>
<path d="M124.943 170.297C129.398 170.849 132.638 172.253 134.666 174.508C136.693 176.763 137.49 179.64 137.056 183.138C136.622 186.636 135.146 189.23 132.629 190.921C130.112 192.613 126.626 193.182 122.172 192.629L111.409 191.294L110.285 200.352L100.599 199.15L104.494 167.759L124.943 170.297ZM122.669 184.95C124.075 185.124 125.175 184.942 125.97 184.403C126.769 183.835 127.236 183.012 127.369 181.936C127.503 180.86 127.25 179.963 126.61 179.246C125.974 178.499 124.954 178.039 123.549 177.864L112.696 176.518L111.817 183.603L122.669 184.95ZM172.804 208.11L162.535 206.835L161.174 202.022L145.658 200.097L143.162 204.432L132.893 203.157L151.004 173.53L162.439 174.949L172.804 208.11ZM149.626 193.076L159.043 194.244L157.272 187.968C156.799 186.149 156.495 184.685 156.36 183.575C156.258 182.439 156.274 181.333 156.407 180.257L156.429 180.077L155.622 179.977L155.6 180.157C155.466 181.233 155.196 182.307 154.79 183.38C154.417 184.427 153.78 185.774 152.877 187.423L149.626 193.076ZM193.996 211.377C189.572 210.828 185.877 209.656 182.912 207.861C179.981 206.04 177.875 203.806 176.595 201.158C175.318 198.48 174.873 195.586 175.259 192.477C175.645 189.368 176.782 186.686 178.671 184.431C180.563 182.146 183.151 180.494 186.434 179.475C189.752 178.429 193.623 178.181 198.047 178.73C202.203 179.246 205.688 180.27 208.503 181.803C211.348 183.34 213.483 185.214 214.909 187.425C216.365 189.639 217.129 192.041 217.202 194.631L207.516 193.429C207.313 191.886 206.351 190.461 204.631 189.155C202.941 187.852 200.422 186.993 197.073 186.578C194.682 186.281 192.602 186.402 190.835 186.942C189.102 187.456 187.737 188.303 186.741 189.485C185.744 190.667 185.146 192.065 184.945 193.679C184.745 195.293 184.983 196.795 185.661 198.185C186.339 199.574 187.453 200.745 189.005 201.696C190.59 202.621 192.578 203.232 194.97 203.529C198.318 203.944 200.971 203.727 202.928 202.877C204.916 202.031 206.196 200.885 206.77 199.438L216.457 200.64C215.749 203.163 214.434 205.322 212.511 207.117C210.588 208.912 208.06 210.208 204.926 211.003C201.795 211.768 198.152 211.892 193.996 211.377ZM236.803 216.051L227.116 214.849L230.021 191.44L217.779 189.921L218.769 181.939L252.94 186.179L251.95 194.161L239.707 192.642L236.803 216.051ZM289.104 190.666L285.208 222.057L275.522 220.855L276.835 210.272L270.781 209.521C269.466 209.357 268.425 209.426 267.66 209.725C266.898 209.995 266.265 210.569 265.761 211.448L261.441 219.108L249.871 217.672L253.347 212.047C254.481 210.245 255.631 209.052 256.796 208.468C257.965 207.855 259.42 207.625 261.162 207.781L261.262 206.973C259.748 206.695 258.401 206.057 257.219 205.06C256.071 204.037 255.21 202.777 254.637 201.279C254.064 199.781 253.882 198.195 254.089 196.521C254.468 193.472 255.876 191.172 258.315 189.623C260.753 188.074 264.14 187.568 268.475 188.106L289.104 190.666ZM278.08 204.643L279.032 196.975L268.762 195.701C267.267 195.515 266.072 195.731 265.176 196.349C264.283 196.936 263.765 197.813 263.62 198.979C263.475 200.145 263.749 201.12 264.441 201.904C265.163 202.691 266.286 203.18 267.811 203.369L278.08 204.643ZM321.13 205.978L322.516 194.812L332.202 196.014L328.307 227.405L318.621 226.203L320.14 213.96L302.875 211.818L301.356 224.061L291.669 222.859L295.564 191.468L305.251 192.67L303.865 203.836L321.13 205.978ZM334.762 228.206L338.657 196.815L347.985 197.972L345.937 214.475C345.696 216.418 345.37 218.062 344.96 219.408C344.551 220.754 344.036 222.086 343.417 223.406L344.224 223.506L360.72 199.552L375.743 201.416L371.848 232.808L362.565 231.656L364.613 215.153C364.858 213.18 365.185 211.52 365.595 210.175C366.009 208.799 366.521 207.482 367.133 206.222L366.281 206.116L349.83 230.075L334.762 228.206Z" fill="#9D0000"/>
</svg>
