<svg width="624" height="595" viewBox="0 0 624 595" fill="none" xmlns="http://www.w3.org/2000/svg">
<path d="M122.427 308.351C122.427 237.188 180.115 179.5 251.278 179.5H303.643C307.997 179.5 312.203 177.921 315.481 175.056V175.056C322.429 168.986 324.867 159.234 321.594 150.607L317.249 139.157L326.025 142.048C340.146 146.699 351.077 157.995 355.264 172.26V172.26C356.088 175.067 359.852 175.565 361.404 173.086V173.086C366.513 164.926 372.874 157.567 380.217 151.342L394.591 139.157L388.363 161.686C386.82 167.271 391.021 172.79 396.815 172.79V172.79C396.972 172.79 397.106 172.676 397.132 172.521L398.261 165.569C402.038 142.322 418.133 122.956 440.297 114.991L451.373 111.01V111.01C440.419 125.59 437.796 144.803 444.442 161.786L447.141 168.683C449.158 173.838 455.789 175.268 459.785 171.438V171.438C463.979 167.419 465.827 161.503 464.64 155.816L461.163 139.157L465.736 142.312C478.82 151.34 489.661 163.458 497.242 177.429V177.429C497.93 178.697 499.264 179.5 500.707 179.5V179.5C514.911 179.5 528.566 174.013 538.821 164.185L547.316 156.044V156.044C543.475 177.515 533.758 197.501 519.243 213.782L516.366 217.009C504.772 230.014 498.365 246.827 498.365 264.249V294.9V294.9C498.365 358.634 446.699 410.3 382.965 410.3H310.396H216.412H176.965C172.059 410.3 167.279 411.847 163.304 414.72L158.225 418.39V418.39C142.355 430.386 124.224 439.049 104.922 443.859L85.2246 448.767L91.7064 445.048C110.708 434.146 122.427 413.912 122.427 392.005V392.005V321.17V308.351Z" fill="white"/>
<path d="M139.971 314.602C139.971 248.725 193.726 195.507 259.6 196.169L309.694 196.672C321.662 197.391 332.335 189.194 334.728 177.446L335.34 174.442L341.417 184.304C344.121 188.691 346.422 193.315 348.292 198.118C350.171 202.944 356.705 203.658 359.582 199.351L362.511 194.967L375.523 176.291L375.793 179.734C376.688 191.152 386.939 199.509 398.303 198.085C404.748 197.278 409.584 191.799 409.584 185.303V180.657C409.584 173.936 411.466 167.35 415.017 161.644L426.04 143.932C421.207 158.061 423.846 173.675 433.053 185.431L434.568 187.367C440.403 194.818 450.169 197.994 459.271 195.403L460.732 194.987C465.234 193.705 468.786 190.241 470.182 185.774L474.069 173.333L476.037 175.793C481.466 182.58 481.841 192.112 476.963 199.305C476.203 200.425 477.006 201.939 478.36 201.939H487.253C493.495 201.939 499.665 200.607 505.351 198.032L518.654 192.008L513.803 197.048C506.084 205.068 499.159 213.816 493.125 223.17C481.524 241.154 476.562 262.621 479.094 283.872L480.575 296.296C477.544 348.104 434.646 388.565 382.75 388.565H309.694H267.599H225.504H183.981H174.909C168.557 388.565 162.306 390.155 156.725 393.191C152.582 395.445 148.669 398.1 145.044 401.119L134.804 409.644C138.218 401.013 139.971 391.814 139.971 382.532V370.999V314.602Z" fill="white"/>
<path d="M139.971 314.602C139.971 248.725 193.726 195.507 259.6 196.169L309.694 196.672C321.662 197.391 332.335 189.194 334.728 177.446L335.34 174.442L341.417 184.304C344.121 188.691 346.422 193.315 348.292 198.118C350.171 202.944 356.705 203.658 359.582 199.351L362.511 194.967L375.523 176.291L375.793 179.734C376.688 191.152 386.939 199.509 398.303 198.085C404.748 197.278 409.584 191.799 409.584 185.303V180.657C409.584 173.936 411.466 167.35 415.017 161.644L426.04 143.932C421.207 158.061 423.846 173.675 433.053 185.431L434.568 187.367C440.403 194.818 450.169 197.994 459.271 195.403L460.732 194.987C465.234 193.705 468.786 190.241 470.182 185.774L474.069 173.333L476.037 175.793C481.466 182.58 481.841 192.112 476.963 199.305C476.203 200.425 477.006 201.939 478.36 201.939H487.253C493.495 201.939 499.665 200.607 505.351 198.032L518.654 192.008L513.803 197.048C506.084 205.068 499.159 213.816 493.125 223.17C481.524 241.154 476.562 262.621 479.094 283.872L480.575 296.296C477.544 348.104 434.646 388.565 382.75 388.565H309.694H267.599H225.504H183.981H174.909C168.557 388.565 162.306 390.155 156.725 393.191C152.582 395.445 148.669 398.1 145.044 401.119L134.804 409.644C138.218 401.013 139.971 391.814 139.971 382.532V370.999V314.602Z" stroke="white"/>
<path d="M182.587 259.537L193.744 259.834L180.121 282.571C178.322 285.597 176.289 287.848 174.019 289.325C171.781 290.772 169.02 291.452 165.738 291.364C163.63 291.308 161.725 290.971 160.024 290.353L160.238 282.313C161.705 282.653 163.026 282.839 164.201 282.87C165.526 282.906 166.599 282.768 167.421 282.459C168.243 282.149 168.89 281.639 169.36 280.928L156.297 258.837L167.635 259.139L172.804 268.724C173.52 270.16 174.028 271.439 174.33 272.562C174.632 273.655 174.769 274.744 174.74 275.828L174.724 276.415L175.583 276.438L175.598 275.85C175.626 274.796 175.79 273.731 176.09 272.654C176.391 271.547 176.892 270.28 177.593 268.852L182.587 259.537ZM228.804 284.544L233.592 284.671L233.182 300.075L223.831 299.826L224.032 292.283L199.187 291.622L198.987 299.165L189.591 298.915L190.001 283.512L191.943 283.563C193.148 283.595 194.105 283.274 194.817 282.6C195.528 281.926 195.962 280.898 196.119 279.516L198.945 259.972L229.436 260.783L228.804 284.544ZM219.453 284.295L219.876 268.395L207.137 268.056L205.723 278.731C205.537 280.083 205.236 281.175 204.822 282.007C204.408 282.84 203.835 283.458 203.101 283.86L219.453 284.295ZM256.782 293.787C252.235 293.666 248.384 292.855 245.229 291.355C242.076 289.824 239.718 287.803 238.158 285.29C236.628 282.748 235.905 279.911 235.989 276.779C236.072 273.647 236.945 270.868 238.606 268.441C240.299 265.985 242.76 264.091 245.99 262.761C249.221 261.4 253.11 260.78 257.657 260.901C262.204 261.022 266.055 261.848 269.209 263.379C272.363 264.879 274.705 266.9 276.235 269.442C277.795 271.955 278.534 274.777 278.451 277.909C278.367 281.041 277.479 283.835 275.787 286.291C274.125 288.718 271.679 290.612 268.448 291.973C265.218 293.303 261.329 293.908 256.782 293.787ZM256.992 285.882C259.492 285.948 261.61 285.643 263.345 284.966C265.082 284.259 266.389 283.269 267.267 281.996C268.175 280.725 268.65 279.276 268.693 277.649C268.737 276.023 268.339 274.551 267.5 273.233C266.691 271.915 265.438 270.873 263.741 270.104C262.044 269.306 259.946 268.873 257.447 268.807C254.947 268.74 252.829 269.06 251.093 269.768C249.357 270.445 248.035 271.419 247.127 272.691C246.25 273.963 245.789 275.413 245.746 277.039C245.703 278.665 246.085 280.137 246.894 281.454C247.733 282.772 249.001 283.831 250.697 284.629C252.394 285.398 254.493 285.815 256.992 285.882ZM312.261 278.447C314.816 278.726 316.752 279.561 318.071 280.952C319.391 282.313 320.022 284.078 319.965 286.246C319.812 291.968 315.791 294.724 307.901 294.514L283.327 293.86L284.169 262.24L308.968 262.9C312.492 262.993 315.094 263.741 316.774 265.141C318.485 266.543 319.309 268.403 319.248 270.722C319.196 272.68 318.566 274.26 317.358 275.464C316.151 276.667 314.461 277.345 312.287 277.498L312.261 278.447ZM293.369 269.853L293.235 274.867L306.155 275.211C307.209 275.239 308.013 275.034 308.567 274.597C309.121 274.159 309.408 273.549 309.429 272.766C309.45 271.983 309.195 271.374 308.664 270.938C308.134 270.472 307.342 270.225 306.288 270.197L293.369 269.853ZM306.742 287.115C307.886 287.145 308.751 286.927 309.336 286.461C309.921 285.994 310.225 285.339 310.247 284.496C310.27 283.623 310.002 282.937 309.443 282.44C308.884 281.943 308.032 281.68 306.887 281.649L293.065 281.281L292.919 286.747L306.742 287.115ZM344.171 296.112C339.624 295.991 335.773 295.18 332.618 293.68C329.465 292.15 327.107 290.128 325.547 287.615C324.017 285.073 323.294 282.236 323.378 279.104C323.461 275.972 324.333 273.193 325.995 270.766C327.688 268.31 330.149 266.416 333.379 265.086C336.61 263.725 340.499 263.106 345.046 263.227C349.593 263.348 353.444 264.173 356.598 265.704C359.752 267.204 362.094 269.225 363.624 271.767C365.184 274.28 365.923 277.102 365.84 280.234C365.756 283.366 364.868 286.16 363.175 288.617C361.514 291.043 359.067 292.937 355.837 294.298C352.607 295.628 348.718 296.233 344.171 296.112ZM344.381 288.207C346.881 288.273 348.999 287.968 350.734 287.291C352.471 286.584 353.778 285.594 354.656 284.321C355.564 283.05 356.039 281.601 356.082 279.975C356.126 278.348 355.728 276.876 354.889 275.558C354.08 274.241 352.827 273.198 351.13 272.429C349.433 271.631 347.335 271.198 344.836 271.132C342.336 271.065 340.218 271.386 338.482 272.093C336.746 272.77 335.424 273.744 334.516 275.016C333.639 276.288 333.178 277.738 333.135 279.364C333.092 280.99 333.474 282.462 334.283 283.779C335.122 285.098 336.39 286.156 338.086 286.954C339.783 287.723 341.882 288.14 344.381 288.207ZM370.969 296.825C369.252 296.779 367.738 296.498 366.426 295.981L366.64 287.94C367.297 288.169 368.001 288.293 368.754 288.313C370.2 288.351 371.247 288.063 371.896 287.447C372.576 286.832 373.027 285.729 373.25 284.138L376.073 264.685L407.92 265.532L407.078 297.153L397.321 296.893L397.949 273.313L384.397 272.953L382.602 286.06C382.082 289.722 380.894 292.463 379.038 294.282C377.182 296.071 374.492 296.919 370.969 296.825ZM434.798 275.153C439.255 275.271 442.601 276.37 444.836 278.449C447.101 280.528 448.186 283.344 448.092 286.898C447.998 290.421 446.765 293.161 444.392 295.117C442.05 297.074 438.65 297.993 434.193 297.874L413.595 297.326L414.436 265.706L424.193 265.965L423.957 274.864L434.798 275.153ZM433.765 290.178C435.211 290.217 436.319 289.915 437.089 289.272C437.89 288.631 438.305 287.753 438.335 286.638C438.364 285.524 437.996 284.625 437.231 283.942C436.497 283.229 435.407 282.854 433.961 282.815L423.21 282.529L423.014 289.892L433.765 290.178ZM471.762 288.115L451.22 292.27L451.406 285.268L471.949 281.114L471.762 288.115ZM176.665 354.677C172.208 354.559 168.417 353.75 165.293 352.25C162.2 350.721 159.888 348.701 158.357 346.189C156.828 343.647 156.104 340.81 156.188 337.678C156.271 334.546 157.144 331.767 158.805 329.34C160.468 326.883 162.884 324.988 166.054 323.656C169.254 322.295 173.083 321.673 177.54 321.792C181.726 321.903 185.294 322.586 188.244 323.84C191.224 325.094 193.531 326.753 195.164 328.816C196.827 330.879 197.82 333.196 198.143 335.766L188.386 335.506C188.034 333.99 186.94 332.665 185.101 331.531C183.293 330.398 180.703 329.787 177.33 329.697C174.921 329.633 172.863 329.955 171.156 330.663C169.481 331.342 168.204 332.317 167.326 333.59C166.449 334.862 165.988 336.312 165.945 337.938C165.902 339.564 166.285 341.036 167.093 342.353C167.902 343.671 169.125 344.728 170.761 345.525C172.428 346.292 174.466 346.708 176.875 346.772C180.248 346.862 182.868 346.389 184.734 345.354C186.629 344.32 187.793 343.055 188.225 341.559L197.982 341.819C197.522 344.398 196.421 346.675 194.681 348.647C192.941 350.62 190.55 352.154 187.507 353.248C184.465 354.312 180.851 354.789 176.665 354.677ZM219.723 355.19L209.966 354.931L210.593 331.351L198.261 331.023L198.475 322.982L232.896 323.898L232.682 331.938L220.35 331.61L219.723 355.19ZM264.531 340.199C267.085 340.478 269.022 341.313 270.341 342.705C271.661 344.066 272.292 345.83 272.234 347.999C272.082 353.72 268.061 356.476 260.171 356.266L235.597 355.613L236.439 323.992L261.238 324.652C264.762 324.746 267.364 325.493 269.044 326.894C270.755 328.295 271.579 330.156 271.517 332.474C271.465 334.432 270.836 336.012 269.628 337.216C268.421 338.419 266.73 339.098 264.556 339.251L264.531 340.199ZM245.638 331.605L245.505 336.619L258.424 336.963C259.478 336.991 260.282 336.786 260.836 336.349C261.391 335.912 261.678 335.302 261.699 334.519C261.72 333.736 261.465 333.126 260.934 332.69C260.404 332.224 259.612 331.977 258.558 331.949L245.638 331.605ZM259.012 348.867C260.156 348.898 261.021 348.68 261.606 348.213C262.191 347.746 262.494 347.092 262.517 346.248C262.54 345.375 262.272 344.69 261.713 344.193C261.153 343.696 260.301 343.432 259.157 343.401L245.334 343.034L245.189 348.5L259.012 348.867ZM276.446 356.7L277.288 325.079L286.684 325.329L286.241 341.952C286.189 343.91 286.024 345.578 285.746 346.957C285.469 348.336 285.085 349.712 284.597 351.085L285.41 351.107L299.512 325.67L314.645 326.073L313.804 357.693L304.453 357.445L304.895 340.821C304.948 338.834 305.114 337.15 305.391 335.772C305.67 334.363 306.053 333.002 306.54 331.689L305.682 331.666L291.624 357.103L276.446 356.7ZM353.119 327.097L352.919 334.595L330.694 334.004L330.568 338.747L349.631 339.254L349.454 345.894L330.391 345.387L330.252 350.627L352.477 351.219L352.277 358.717L320.295 357.866L321.137 326.246L353.119 327.097ZM360.8 359.577C359.355 359.538 358.192 359.07 357.312 358.173C356.432 357.276 356.009 356.164 356.044 354.839C356.08 353.484 356.561 352.397 357.487 351.578C358.414 350.729 359.6 350.323 361.046 350.362C362.521 350.401 363.699 350.869 364.579 351.767C365.46 352.634 365.883 353.745 365.847 355.1C365.812 356.425 365.331 357.512 364.404 358.362C363.477 359.211 362.276 359.616 360.8 359.577ZM375.572 359.97C374.126 359.931 372.963 359.463 372.083 358.566C371.203 357.669 370.781 356.558 370.816 355.232C370.852 353.877 371.333 352.79 372.259 351.971C373.185 351.122 374.371 350.716 375.817 350.755C377.293 350.794 378.471 351.262 379.351 352.16C380.232 353.027 380.654 354.138 380.618 355.493C380.583 356.818 380.102 357.905 379.175 358.755C378.249 359.604 377.047 360.009 375.572 359.97ZM390.298 360.362C388.852 360.323 387.69 359.855 386.809 358.958C385.929 358.061 385.507 356.949 385.542 355.624C385.578 354.269 386.059 353.182 386.985 352.363C387.912 351.513 389.098 351.108 390.543 351.147C392.019 351.186 393.197 351.654 394.077 352.551C394.958 353.419 395.38 354.53 395.344 355.885C395.309 357.21 394.828 358.297 393.901 359.147C392.975 359.996 391.774 360.401 390.298 360.362Z" fill="#9D0000"/>
</svg>
