<svg width="600" height="622" viewBox="0 0 600 622" fill="none" xmlns="http://www.w3.org/2000/svg">
<path d="M105.691 199.23C152.384 143.155 235.694 135.55 291.769 182.243L333.032 216.603C336.462 219.46 340.812 220.975 345.275 220.869V220.869C354.733 220.644 363.054 214.56 366.134 205.615L370.224 193.741L375.243 201.777C383.317 214.708 384.519 230.782 378.458 244.769V244.769C377.265 247.521 379.905 250.384 382.755 249.449V249.449C392.134 246.371 401.976 244.746 411.847 244.659L431.168 244.489L411.478 258.155C406.597 261.543 406.286 268.649 410.852 272.451V272.451C410.976 272.554 411.156 272.552 411.278 272.446L416.729 267.709C434.959 251.869 460.349 247.17 483.04 255.437L494.38 259.568V259.568C476.181 263.869 461.508 277.287 455.601 295.03L453.202 302.236C451.409 307.621 455.696 313.099 461.358 312.703V312.703C467.3 312.288 472.638 308.838 475.434 303.579L483.626 288.17L485.159 293.658C489.545 309.356 490.136 326.018 486.943 342.001V342.001C486.653 343.452 487.177 344.96 488.314 345.907V345.907C499.507 355.226 513.866 359.863 528.396 358.848L540.431 358.007V358.007C523.317 372.405 502.546 381.777 480.426 385.083L476.041 385.738C458.373 388.378 442.292 397.423 430.861 411.151L410.749 435.303V435.303C368.93 485.524 294.317 492.336 244.096 450.517L186.913 402.9L112.855 341.232L81.7713 315.349C77.9062 312.13 73.1248 310.213 68.1069 309.868L61.6961 309.428V309.428C41.3204 308.468 21.3492 303.397 2.98317 294.522L-15.758 285.465L-8.21031 286.787C13.9162 290.665 36.4266 282.41 50.801 265.148V265.148L97.2795 209.331L105.691 199.23Z" fill="#9D0000"/>
<path d="M115.414 215.667C158.639 163.757 235.916 157.094 287.389 200.839L326.532 234.105C335.491 242.524 349.279 243.068 358.874 235.381L361.327 233.416L359.645 245.174C358.897 250.406 357.676 255.559 355.998 260.57C354.312 265.607 358.992 270.456 364.085 268.951L369.271 267.418L391.778 261.239L389.731 264.129C382.945 273.714 385.539 287.025 395.428 293.36C401.036 296.952 408.441 295.808 412.703 290.69L415.752 287.028C420.162 281.732 425.967 277.777 432.509 275.611L452.816 268.888C439.737 276.85 431.571 290.885 431.112 306.19L431.037 308.709C430.746 318.409 436.356 327.32 445.229 331.25L446.654 331.881C451.042 333.825 456.114 333.427 460.145 330.822L471.371 323.569L471.307 326.8C471.132 335.71 465.173 343.467 456.61 345.934C455.276 346.318 454.915 348.038 455.982 348.926L462.989 354.761C467.908 358.857 473.644 361.856 479.814 363.558L494.249 367.539L487.12 368.328C475.775 369.583 464.578 371.932 453.686 375.344C432.745 381.902 414.749 395.563 402.801 413.969L395.815 424.731C359.433 463.565 299.082 467.301 258.188 433.249L200.621 385.313L167.452 357.693L134.282 330.072L101.562 302.827L94.4138 296.874C89.4082 292.706 83.4387 289.857 77.0498 288.588C72.3056 287.645 67.4804 287.17 62.6434 287.17L48.9804 287.169C57.3339 282.607 64.7508 276.509 70.8413 269.195L78.4088 260.107L115.414 215.667Z" fill="#9D0000"/>
<path d="M115.414 215.667C158.639 163.757 235.916 157.094 287.389 200.839L326.532 234.105C335.491 242.524 349.279 243.068 358.874 235.381L361.327 233.416L359.645 245.174C358.897 250.406 357.676 255.559 355.998 260.57C354.312 265.607 358.992 270.456 364.085 268.951L369.271 267.418L391.778 261.239L389.731 264.129C382.945 273.714 385.539 287.025 395.428 293.36C401.036 296.952 408.441 295.808 412.703 290.69L415.752 287.028C420.162 281.732 425.967 277.777 432.509 275.611L452.816 268.888C439.737 276.85 431.571 290.885 431.112 306.19L431.037 308.709C430.746 318.409 436.356 327.32 445.229 331.25L446.654 331.881C451.042 333.825 456.114 333.427 460.145 330.822L471.371 323.569L471.307 326.8C471.132 335.71 465.173 343.467 456.61 345.934C455.276 346.318 454.915 348.038 455.982 348.926L462.989 354.761C467.908 358.857 473.644 361.856 479.814 363.558L494.249 367.539L487.12 368.328C475.775 369.583 464.578 371.932 453.686 375.344C432.745 381.902 414.749 395.563 402.801 413.969L395.815 424.731C359.433 463.565 299.082 467.301 258.188 433.249L200.621 385.313L167.452 357.693L134.282 330.072L101.562 302.827L94.4138 296.874C89.4082 292.706 83.4387 289.857 77.0498 288.588C72.3056 287.645 67.4804 287.17 62.6434 287.17L48.9804 287.169C57.3339 282.607 64.7508 276.509 70.8413 269.195L78.4088 260.107L115.414 215.667Z" stroke="#9D0000"/>
<path d="M241.775 311.233L247.924 316.637L230.54 336.419L218.532 325.866L227.046 316.178L195.14 288.14L186.626 297.828L174.56 287.225L191.944 267.443L194.438 269.635C195.985 270.994 197.594 271.62 199.265 271.512C200.937 271.405 202.631 270.529 204.349 268.886L229.432 246.309L268.589 280.72L241.775 311.233ZM229.767 300.681L247.711 280.261L231.352 265.885L217.82 278.359C216.097 279.93 214.509 281.035 213.054 281.676C211.6 282.317 210.171 282.501 208.767 282.227L229.767 300.681ZM268.411 353.969C262.571 348.837 258.401 343.561 255.898 338.141C253.43 332.682 252.546 327.45 253.244 322.443C254.015 317.432 256.168 312.915 259.702 308.893C263.237 304.871 267.422 302.175 272.259 300.805C277.168 299.43 282.471 299.635 288.168 301.42C293.898 303.166 299.684 306.605 305.523 311.737C311.363 316.869 315.517 322.164 317.985 327.623C320.487 333.043 321.353 338.259 320.582 343.27C319.883 348.276 317.767 352.791 314.232 356.813C310.698 360.835 306.476 363.533 301.567 364.908C296.73 366.278 291.447 366.09 285.716 364.344C280.019 362.559 274.251 359.101 268.411 353.969ZM277.332 343.817C280.542 346.638 283.657 348.553 286.677 349.562C289.731 350.532 292.531 350.662 295.075 349.95C297.658 349.273 299.867 347.89 301.702 345.801C303.537 343.713 304.625 341.345 304.965 338.696C305.343 336.082 304.838 333.342 303.449 330.476C302.094 327.572 299.812 324.71 296.602 321.889C293.392 319.068 290.26 317.173 287.206 316.202C284.186 315.193 281.385 315.028 278.802 315.705C276.258 316.416 274.068 317.816 272.233 319.905C270.397 321.993 269.291 324.344 268.912 326.959C268.572 329.607 269.08 332.384 270.434 335.288C271.823 338.153 274.122 340.996 277.332 343.817Z" fill="white"/>
</svg>
