<svg width="1029" height="874" viewBox="0 0 1029 874" fill="none" xmlns="http://www.w3.org/2000/svg">
<path d="M858.25 379.422C821.083 258.216 692.695 190.089 571.489 227.256L482.299 254.605C474.883 256.879 466.895 256.387 459.815 253.22V253.22C444.81 246.509 435.564 231.173 436.634 214.771L438.054 192.998L424.616 202.506C402.995 217.803 390.276 242.752 390.595 269.236V269.236C390.658 274.446 384.506 277.26 380.568 273.849V273.849C367.605 262.619 352.927 253.407 337.168 246.639L306.323 233.392L328.696 268.512C334.242 277.218 329.97 288.814 320.101 291.84V291.84C319.833 291.922 319.545 291.798 319.421 291.547L313.867 280.296C295.293 242.673 257.764 218.094 215.853 216.104L194.909 215.109V215.109C221.181 234.221 235.683 265.575 233.234 297.972L232.24 311.129C231.496 320.962 220.949 326.862 212.142 322.426V322.426C202.9 317.771 196.662 308.659 195.714 298.353L192.934 268.162L186.793 275.926C169.224 298.135 157.088 324.436 151.473 352.192V352.192C150.963 354.712 149.11 356.776 146.653 357.529V357.529C122.46 364.948 96.337 362.735 73.7374 351.352L55.0164 341.923V341.923C72.772 376.486 99.7614 405.452 132.987 425.601L139.573 429.595C166.112 445.689 185.805 470.981 194.904 500.654L210.913 552.86V552.86C244.2 661.413 359.185 722.429 467.738 689.141L591.341 651.239L751.419 602.153L818.606 581.55C826.961 578.988 835.91 579.125 844.182 581.943L854.75 585.542V585.542C888.044 597.685 923.45 602.971 958.839 601.081L994.951 599.153L981.969 596.204C943.91 587.56 913.383 559.218 901.941 521.905V521.905L864.945 401.256L858.25 379.422Z" fill="#9D0000"/>
<path d="M831.632 399.232C797.225 287.028 677.872 224.461 566.019 259.994L480.96 287.014C460.952 294.489 438.492 286.103 428.28 267.343L425.669 262.546L420.468 282.517C418.154 291.402 416.65 300.479 415.974 309.636C415.294 318.838 404.538 323.467 397.388 317.634L390.109 311.696L358.192 286.683L359.531 292.687C363.97 312.602 350.875 332.19 330.775 335.701C319.377 337.692 308.279 330.885 304.886 319.822L302.46 311.908C298.949 300.461 292.304 290.226 283.275 282.362L255.25 257.952C270.861 279.492 274.522 307.465 264.98 332.297L263.41 336.386C257.362 352.124 242.389 362.635 225.533 362.974L222.826 363.029C214.489 363.197 206.629 359.153 201.919 352.273L188.801 333.113L186.733 338.332C181.032 352.727 185.371 369.158 197.436 378.861C199.316 380.373 198.739 383.371 196.433 384.078L181.287 388.723C170.655 391.983 159.45 392.937 148.42 391.521L122.617 388.208L133.51 394.258C150.846 403.887 167.21 415.17 182.373 427.95C211.525 452.521 231.189 486.495 237.975 524.012L241.942 545.946C274.163 632.604 368.36 679.114 456.752 652.009L581.183 613.853L652.88 591.867L724.578 569.882L795.301 548.195L810.753 543.457C821.573 540.139 833.051 539.583 844.14 541.839C852.375 543.514 860.426 545.993 868.177 549.241L890.071 558.414C879.749 545.495 871.959 530.743 867.111 514.933L861.087 495.289L831.632 399.232Z" fill="#9D0000"/>
<path d="M831.632 399.232C797.225 287.028 677.872 224.461 566.019 259.994L480.96 287.014C460.952 294.489 438.492 286.103 428.28 267.343L425.669 262.546L420.468 282.517C418.154 291.402 416.65 300.479 415.974 309.636C415.294 318.838 404.538 323.467 397.388 317.634L390.109 311.696L358.192 286.683L359.531 292.687C363.97 312.602 350.875 332.19 330.775 335.701C319.377 337.692 308.279 330.885 304.886 319.822L302.46 311.908C298.949 300.461 292.304 290.226 283.275 282.362L255.25 257.952C270.861 279.492 274.522 307.465 264.98 332.297L263.41 336.386C257.362 352.124 242.389 362.635 225.533 362.974L222.826 363.029C214.489 363.197 206.629 359.153 201.919 352.273L188.801 333.113L186.733 338.332C181.032 352.727 185.371 369.158 197.436 378.861C199.316 380.373 198.739 383.371 196.433 384.078L181.287 388.723C170.655 391.983 159.45 392.937 148.42 391.521L122.617 388.208L133.51 394.258C150.846 403.887 167.21 415.17 182.373 427.95C211.525 452.521 231.189 486.495 237.975 524.012L241.942 545.946C274.163 632.604 368.36 679.114 456.752 652.009L581.183 613.853L652.88 591.867L724.578 569.882L795.301 548.195L810.753 543.457C821.573 540.139 833.051 539.583 844.14 541.839C852.375 543.514 860.426 545.993 868.177 549.241L890.071 558.414C879.749 545.495 871.959 530.743 867.111 514.933L861.087 495.289L831.632 399.232Z" stroke="#9D0000"/>
<path d="M319.263 536.639C324.259 535.685 328.409 536.141 331.712 538.008C335 539.818 337.218 542.792 338.368 546.929C341.4 557.845 335.389 565.395 320.336 569.576L273.451 582.599L256.693 522.269L304.009 509.127C310.731 507.259 316.089 507.164 320.082 508.839C324.133 510.499 326.773 513.541 328.002 517.966C329.039 521.7 328.764 525.057 327.178 528.035C325.592 531.013 322.786 533.278 318.761 534.829L319.263 536.639ZM278.522 531.338L281.179 540.905L305.828 534.058C307.839 533.499 309.242 532.646 310.037 531.496C310.832 530.347 311.021 529.026 310.607 527.532C310.192 526.038 309.355 525.033 308.098 524.515C306.824 523.941 305.182 523.933 303.171 524.491L278.522 531.338ZM313.848 556.246C316.031 555.64 317.541 554.725 318.377 553.502C319.214 552.28 319.408 550.864 318.962 549.255C318.499 547.589 317.594 546.448 316.247 545.832C314.9 545.216 313.135 545.211 310.951 545.818L284.578 553.143L287.475 563.572L313.848 556.246ZM389.3 551.719C380.796 554.082 373.153 554.75 366.37 553.726C359.628 552.627 354.08 550.146 349.727 546.28C345.357 542.357 342.342 537.408 340.682 531.432C339.022 525.457 339.061 519.69 340.797 514.133C342.518 508.518 345.991 503.53 351.216 499.17C356.483 494.736 363.368 491.339 371.872 488.977C379.858 486.758 387.007 485.979 393.318 486.64C399.686 487.285 405.013 489.085 409.3 492.041C413.644 494.981 416.868 498.789 418.972 503.466L400.356 508.637C398.811 505.971 395.97 504.099 391.833 503.02C387.754 501.925 382.496 502.271 376.061 504.059C371.465 505.336 367.757 507.139 364.938 509.469C362.161 511.726 360.312 514.313 359.389 517.231C358.467 520.148 358.436 523.158 359.298 526.261C360.16 529.364 361.738 531.927 364.033 533.951C366.328 535.975 369.256 537.266 372.815 537.824C376.415 538.31 380.514 537.914 385.11 536.637C391.546 534.85 396.228 532.435 399.159 529.393C402.146 526.335 403.615 523.266 403.564 520.185L422.18 515.014C422.805 520.163 422.044 525.109 419.896 529.853C417.747 534.596 414.112 538.886 408.988 542.723C403.849 546.502 397.286 549.501 389.3 551.719ZM471.084 527.703L452.468 532.874L439.971 487.885L416.443 494.42L412.181 479.079L477.855 460.837L482.116 476.178L458.587 482.714L471.084 527.703ZM523.913 448.044C532.474 445.666 539.465 445.766 544.885 448.345C550.305 450.925 553.949 455.575 555.816 462.298C557.683 469.02 556.96 474.884 553.647 479.889C550.334 484.894 544.396 488.586 535.835 490.964L515.151 496.709L519.987 514.119L501.371 519.29L484.613 458.96L523.913 448.044ZM530.904 476.552C533.604 475.802 535.476 474.632 536.52 473.042C537.548 471.395 537.775 469.537 537.2 467.469C536.626 465.4 535.481 463.954 533.767 463.131C532.037 462.25 529.822 462.184 527.121 462.934L506.264 468.728L510.047 482.345L530.904 476.552ZM620.287 421.274L624.261 435.581L581.858 447.359L584.371 456.408L620.741 446.306L624.261 458.975L587.89 469.078L590.667 479.075L633.071 467.297L637.045 481.604L576.025 498.553L559.267 438.223L620.287 421.274ZM677.088 405.496L695.704 400.325L712.461 460.655L693.845 465.826L688.507 446.607C686.419 448.672 683.862 450.496 680.836 452.079C677.868 453.647 674.229 455.029 669.919 456.226C660.267 458.907 652.409 458.583 646.348 455.254C640.344 451.908 636.041 445.553 633.439 436.188L628.651 418.95L647.267 413.779L652.055 431.017C653.22 435.211 655.276 438.044 658.222 439.515C661.226 440.971 665.285 440.989 670.398 439.568C673.846 438.611 676.66 437.489 678.84 436.202C681.061 434.842 682.871 433.226 684.269 431.352L677.088 405.496ZM724.914 457.196L708.156 396.866L726.083 391.887L734.892 423.603C735.93 427.338 736.586 430.591 736.86 433.361C737.135 436.132 737.208 438.958 737.08 441.841L738.632 441.41L750.559 385.088L779.431 377.068L796.189 437.398L778.349 442.354L769.539 410.637C768.486 406.845 767.822 403.564 767.547 400.793C767.257 397.965 767.191 395.167 767.351 392.4L765.713 392.854L753.872 449.152L724.914 457.196Z" fill="white"/>
</svg>
