<svg width="212" height="213" viewBox="0 0 212 213" fill="none" xmlns="http://www.w3.org/2000/svg">
<circle cx="106.008" cy="106.421" r="100.481" transform="rotate(90 106.008 106.421)" fill="#9D0000" stroke="#9D0000" stroke-width="10.424"/>
<path d="M64.3674 76.4688L46.721 63.3249L57.9646 52.7533L64.3674 76.4688Z" fill="white"/>
<path d="M84.7046 62.3231L70.0597 45.0735L83.3773 37.9303L84.7046 62.3231Z" fill="white"/>
<path d="M103.056 57.8638L95.6465 35.0484L110.466 35.0484L103.056 57.8638Z" fill="white"/>
<path d="M123.252 63.374L123.018 39.1033L136.849 44.807L123.252 63.374Z" fill="white"/>
<path d="M141.085 74.7124L149.085 51.465L159.412 63.2477L141.085 74.7124Z" fill="white"/>
<path d="M64.36 136.252L46.7137 149.396L57.9573 159.967L64.36 136.252Z" fill="white"/>
<path d="M84.7046 150.385L70.0597 167.635L83.3773 174.778L84.7046 150.385Z" fill="white"/>
<path d="M103.052 154.85L95.6421 177.665L110.461 177.665L103.052 154.85Z" fill="white"/>
<path d="M123.247 149.338L123.013 173.609L136.843 167.905L123.247 149.338Z" fill="white"/>
<path d="M141.082 137.998L149.082 161.245L159.409 149.463L141.082 137.998Z" fill="white"/>
</svg>
