<svg width="498" height="499" viewBox="0 0 498 499" fill="none" xmlns="http://www.w3.org/2000/svg">
<circle cx="248.736" cy="249.217" r="235.206" transform="rotate(90 248.736 249.217)" fill="#9D0000" stroke="#9D0000" stroke-width="24.4006"/>
<path d="M151.262 179.107L109.955 148.34L136.274 123.594L151.262 179.107Z" fill="white"/>
<path d="M198.87 145.995L164.589 105.617L195.763 88.8963L198.87 145.995Z" fill="white"/>
<path d="M241.821 135.556L224.477 82.1502L259.165 82.1502L241.821 135.556Z" fill="white"/>
<path d="M289.1 148.455L288.552 91.6423L320.926 104.994L289.1 148.455Z" fill="white"/>
<path d="M330.841 174.996L349.568 120.579L373.74 148.16L330.841 174.996Z" fill="white"/>
<path d="M151.243 319.044L109.936 349.811L136.255 374.557L151.243 319.044Z" fill="white"/>
<path d="M198.863 352.129L164.582 392.507L195.756 409.228L198.863 352.129Z" fill="white"/>
<path d="M241.813 362.581L224.469 415.987L259.157 415.987L241.813 362.581Z" fill="white"/>
<path d="M289.086 349.679L288.538 406.491L320.912 393.14L289.086 349.679Z" fill="white"/>
<path d="M330.833 323.134L349.56 377.551L373.733 349.97L330.833 323.134Z" fill="white"/>
</svg>
