<svg width="496" height="497" viewBox="0 0 496 497" fill="none" xmlns="http://www.w3.org/2000/svg">
<circle cx="247.921" cy="248.298" r="235.206" transform="rotate(90 247.921 248.298)" fill="#9D0000" stroke="#9D0000" stroke-width="24.4006"/>
<path d="M150.447 178.184L109.14 147.417L135.459 122.671L150.447 178.184Z" fill="white"/>
<path d="M198.052 145.073L163.771 104.695L194.945 87.9743L198.052 145.073Z" fill="white"/>
<path d="M241.005 134.635L223.661 81.2283L258.349 81.2283L241.005 134.635Z" fill="white"/>
<path d="M288.284 147.533L287.736 90.7207L320.11 104.072L288.284 147.533Z" fill="white"/>
<path d="M330.024 174.075L348.751 119.657L372.924 147.238L330.024 174.075Z" fill="white"/>
<path d="M150.429 318.123L109.123 348.89L135.442 373.636L150.429 318.123Z" fill="white"/>
<path d="M198.047 351.208L163.766 391.586L194.94 408.306L198.047 351.208Z" fill="white"/>
<path d="M240.999 361.659L223.655 415.065L258.343 415.065L240.999 361.659Z" fill="white"/>
<path d="M288.272 348.756L287.724 405.569L320.098 392.218L288.272 348.756Z" fill="white"/>
<path d="M330.015 322.215L348.742 376.632L372.915 349.051L330.015 322.215Z" fill="white"/>
</svg>
