<svg width="530" height="343" viewBox="0 0 530 343" fill="none" xmlns="http://www.w3.org/2000/svg">
<path d="M76.4891 20.4272C23.6962 42.156 -1.48618 102.568 20.2425 155.361L26.0948 169.58C118.663 394.487 442.335 378.728 512.62 145.897C547.742 29.9073 387.59 -39.91 326.515 64.7655L324.927 67.4861C321.976 72.5435 319.503 77.7965 317.28 82.5181C317.174 82.7444 317.068 82.9694 316.963 83.1932C314.577 88.2575 312.438 92.735 309.943 96.8811C288.726 132.14 233.71 130.825 217.275 90.8932L211.422 76.6744C189.694 23.8818 129.282 -1.30156 76.4891 20.4272Z" fill="#9D0000" stroke="#9D0000" stroke-width="23.4604" stroke-linecap="round"/>
<path d="M184.119 212.193L200.003 157.94L233.201 175.921L184.119 212.193Z" fill="white"/>
<path d="M267.777 232.744L249.266 175.744L286.288 175.744L267.777 232.744Z" fill="white"/>
<path d="M341.76 212.665L296.625 172.171L330.46 156.294L341.76 212.665Z" fill="white"/>
<path d="M400.087 162.791L340.317 148.642L367.06 120.059L400.087 162.791Z" fill="white"/>
<path d="M435.099 103.432L373.961 109.336L390.045 73.6509L435.099 103.432Z" fill="white"/>
<path d="M300.589 209.646L289.206 269.206L325.744 261.343L300.589 209.646Z" fill="white"/>
<path d="M373.357 181.234L383.485 241.814L413.789 217.039L373.357 181.234Z" fill="white"/>
<path d="M163.885 179.486L117.038 211.126L144.269 237.277L163.885 179.486Z" fill="white"/>
<path d="M417.961 129.265L455.576 177.822L470.529 141.648L417.961 129.265Z" fill="white"/>
<path d="M230.82 205.579L198.113 255.796L233.859 265.431L230.82 205.579Z" fill="white"/>
<path d="M122.308 130.053L70.878 149.462L90.5972 182.594L122.308 130.053Z" fill="white"/>
<path d="M132.367 156.267L170.177 116.364L193.089 147.373L132.367 156.267Z" fill="white"/>
<path d="M94.7645 94.1664L144.083 69.8868L154.793 106.926L94.7645 94.1664Z" fill="white"/>
</svg>
