<svg width="366" height="433" viewBox="0 0 366 433" fill="none" xmlns="http://www.w3.org/2000/svg">
<path d="M346.243 304.749L350.737 115.212C351.735 73.1134 322.522 36.3085 281.296 27.7236L245.053 20.1765C205.195 11.8766 164.142 11.051 123.983 17.7417L92.9198 22.917C51.6148 29.7986 21.0229 65.0532 20.0305 106.916L15.3915 302.589C14.1725 354.007 49.5829 399.068 99.8303 410.042C148.035 420.57 197.777 422.047 246.522 414.4L250.764 413.734C304.752 405.264 344.948 359.382 346.243 304.749Z" fill="black" stroke="black" stroke-width="24.2919"/>
<path d="M102.083 133.16L75.7429 94.2532L105.845 80.8422L102.083 133.16Z" fill="white"/>
<path d="M142.49 119.081L119.602 76.5279L150.598 67.5516L142.49 119.081Z" fill="white"/>
<path d="M184.556 115.419L169.893 66.34L201.528 67.09L184.556 115.419Z" fill="white"/>
<path d="M230.872 121.491L222.351 70.3685L253.413 77.827L230.872 121.491Z" fill="white"/>
<path d="M269.388 136.229L270.723 83.748L299.329 101.096L269.388 136.229Z" fill="white"/>
<path d="M98.0648 296.417L69.9108 334.032L99.3437 348.855L98.0648 296.417Z" fill="white"/>
<path d="M137.757 312.413L112.878 353.834L143.414 364.269L137.757 312.413Z" fill="white"/>
<path d="M179.607 318.043L162.635 366.373L194.269 367.123L179.607 318.043Z" fill="white"/>
<path d="M226.166 314.161L215.232 364.822L246.613 358.844L226.166 314.161Z" fill="white"/>
<path d="M265.331 301.286L264.177 353.771L293.573 337.798L265.331 301.286Z" fill="white"/>
</svg>
