<svg width="534" height="349" viewBox="0 0 534 349" fill="none" xmlns="http://www.w3.org/2000/svg">
<path d="M77.5177 22.5167C24.7248 44.2455 -0.457623 104.658 21.2711 157.451L27.1234 171.669C119.692 396.577 443.364 380.817 513.648 147.987C548.77 31.9968 388.619 -37.8205 327.543 66.855L325.956 69.5756C323.005 74.6329 320.532 79.886 318.309 84.6076C318.203 84.8339 318.097 85.0589 317.991 85.2826C315.606 90.347 313.466 94.8245 310.971 98.9706C289.754 134.23 234.739 132.915 218.303 92.9827L212.451 78.7639C190.722 25.9713 130.311 0.787906 77.5177 22.5167Z" fill="white" stroke="white" stroke-width="23.4604" stroke-linecap="round"/>
<path d="M185.15 214.293L201.034 160.04L234.232 178.021L185.15 214.293Z" fill="black"/>
<path d="M268.812 234.843L250.301 177.843L287.323 177.843L268.812 234.843Z" fill="black"/>
<path d="M342.782 214.757L297.647 174.263L331.482 158.386L342.782 214.757Z" fill="black"/>
<path d="M401.112 164.888L341.342 150.739L368.085 122.156L401.112 164.888Z" fill="black"/>
<path d="M436.121 105.534L374.984 111.438L391.068 75.7527L436.121 105.534Z" fill="black"/>
<path d="M301.623 211.736L290.24 271.296L326.778 263.433L301.623 211.736Z" fill="black"/>
<path d="M374.39 183.324L384.518 243.905L414.821 219.129L374.39 183.324Z" fill="black"/>
<path d="M164.915 181.583L118.067 213.223L145.298 239.375L164.915 181.583Z" fill="black"/>
<path d="M418.992 131.357L456.607 179.914L471.56 143.74L418.992 131.357Z" fill="black"/>
<path d="M231.857 207.668L199.149 257.886L234.896 267.521L231.857 207.668Z" fill="black"/>
<path d="M123.336 132.151L71.9051 151.561L91.6243 184.692L123.336 132.151Z" fill="black"/>
<path d="M133.4 158.353L171.21 118.449L194.122 149.459L133.4 158.353Z" fill="black"/>
<path d="M95.7968 96.2619L145.115 71.9823L155.825 109.021L95.7968 96.2619Z" fill="black"/>
</svg>
