<svg width="558" height="557" viewBox="0 0 558 557" fill="none" xmlns="http://www.w3.org/2000/svg">
<circle cx="277.204" cy="279.714" r="263.397" transform="rotate(90 277.204 279.714)" fill="white" stroke="white" stroke-width="27.3251"/>
<path d="M168.046 201.2L121.789 166.745L151.262 139.033L168.046 201.2Z" fill="black"/>
<path d="M221.359 164.131L182.969 118.913L217.879 100.188L221.359 164.131Z" fill="black"/>
<path d="M269.458 152.435L250.035 92.6274L288.881 92.6274L269.458 152.435Z" fill="black"/>
<path d="M322.409 166.892L321.795 103.27L358.05 118.222L322.409 166.892Z" fill="black"/>
<path d="M369.147 196.603L390.118 135.663L417.189 166.55L369.147 196.603Z" fill="black"/>
<path d="M168.027 357.918L121.77 392.373L151.243 420.085L168.027 357.918Z" fill="black"/>
<path d="M221.37 394.985L182.98 440.203L217.891 458.928L221.37 394.985Z" fill="black"/>
<path d="M269.461 406.67L250.038 466.477L288.884 466.477L269.461 406.67Z" fill="black"/>
<path d="M322.402 392.24L321.788 455.862L358.042 440.911L322.402 392.24Z" fill="black"/>
<path d="M369.144 362.507L390.116 423.447L417.186 392.561L369.144 362.507Z" fill="black"/>
</svg>
