<svg width="364" height="432" viewBox="0 0 364 432" fill="none" xmlns="http://www.w3.org/2000/svg">
<path d="M344.75 304.649L349.244 115.112C350.242 73.0133 321.029 36.2084 279.803 27.6236L243.56 20.0764C203.702 11.7765 162.649 10.9509 122.49 17.6417L91.4269 22.8169C50.1219 29.6985 19.53 64.9531 18.5375 106.816L13.8986 302.489C12.6796 353.906 48.09 398.968 98.3374 409.942C146.542 420.47 196.284 421.947 245.029 414.3L249.271 413.634C303.259 405.164 343.455 359.282 344.75 304.649Z" fill="black" stroke="black" stroke-width="24.2919"/>
<path d="M100.586 133.054L74.2461 94.1465L104.348 80.7356L100.586 133.054Z" fill="white"/>
<path d="M140.993 118.976L118.105 76.4227L149.101 67.4463L140.993 118.976Z" fill="white"/>
<path d="M183.062 115.323L168.399 66.2441L200.034 66.994L183.062 115.323Z" fill="white"/>
<path d="M229.383 121.398L220.863 70.2757L251.925 77.7342L229.383 121.398Z" fill="white"/>
<path d="M267.894 136.128L269.228 83.6476L297.834 100.995L267.894 136.128Z" fill="white"/>
<path d="M96.5677 296.31L68.4138 333.925L97.8466 348.748L96.5677 296.31Z" fill="white"/>
<path d="M136.26 312.312L111.382 353.732L141.918 364.168L136.26 312.312Z" fill="white"/>
<path d="M178.117 317.953L161.145 366.282L192.779 367.032L178.117 317.953Z" fill="white"/>
<path d="M224.666 314.057L213.733 364.718L245.114 358.74L224.666 314.057Z" fill="white"/>
<path d="M263.842 301.194L262.688 353.679L292.084 337.707L263.842 301.194Z" fill="white"/>
</svg>
