<svg width="532" height="345" viewBox="0 0 532 345" fill="none" xmlns="http://www.w3.org/2000/svg">
<path d="M77.5585 21.4793C24.7656 43.2081 -0.416829 103.62 21.3119 156.413L27.1642 170.632C119.734 395.542 443.414 379.779 513.692 146.939C548.802 30.9552 388.658 -38.855 327.584 65.8175L325.997 68.5381C323.046 73.5955 320.573 78.8485 318.35 83.5702C318.243 83.7964 318.137 84.0214 318.032 84.2451C315.646 89.3095 313.507 93.787 311.012 97.9331C289.795 133.192 234.779 131.877 218.344 91.9452L212.492 77.7265C190.763 24.9338 130.351 -0.249529 77.5585 21.4793Z" fill="#9D0000" stroke="#9D0000" stroke-width="23.4604" stroke-linecap="round"/>
<path d="M185.193 213.237L201.077 158.983L234.275 176.964L185.193 213.237Z" fill="white"/>
<path d="M268.848 233.779L250.337 176.78L287.359 176.78L268.848 233.779Z" fill="white"/>
<path d="M342.817 213.707L297.682 173.213L331.517 157.336L342.817 213.707Z" fill="white"/>
<path d="M401.15 163.837L341.38 149.688L368.123 121.106L401.15 163.837Z" fill="white"/>
<path d="M436.163 104.482L375.026 110.386L391.109 74.7007L436.163 104.482Z" fill="white"/>
<path d="M301.66 210.686L290.277 270.245L326.815 262.383L301.66 210.686Z" fill="white"/>
<path d="M374.426 182.274L384.555 242.854L414.858 218.079L374.426 182.274Z" fill="white"/>
<path d="M164.96 180.529L118.113 212.169L145.344 238.321L164.96 180.529Z" fill="white"/>
<path d="M419.031 130.304L456.645 178.86L471.599 142.687L419.031 130.304Z" fill="white"/>
<path d="M231.893 206.614L199.185 256.832L234.932 266.467L231.893 206.614Z" fill="white"/>
<path d="M123.376 131.095L71.9451 150.504L91.6644 183.636L123.376 131.095Z" fill="white"/>
<path d="M133.437 157.316L171.247 117.413L194.159 148.423L133.437 157.316Z" fill="white"/>
<path d="M95.8343 95.2042L145.153 70.9246L155.863 107.963L95.8343 95.2042Z" fill="white"/>
</svg>
