<svg width="361" height="432" viewBox="0 0 361 432" fill="none" xmlns="http://www.w3.org/2000/svg">
<path d="M343.679 304.501L348.172 114.964C349.17 72.8654 319.958 36.0605 278.731 27.4756L242.488 19.9285C202.63 11.6286 161.577 10.803 121.418 17.4937L90.3551 22.669C49.0501 29.5506 18.4582 64.8052 17.4658 106.668L12.8268 302.341C11.6078 353.759 47.0182 398.82 97.2656 409.794C145.47 420.322 195.212 421.799 243.957 414.152L248.199 413.487C302.187 405.016 342.383 359.134 343.679 304.501Z" fill="black" stroke="black" stroke-width="24.2919"/>
<path d="M99.5221 132.904L73.1823 93.9973L103.284 80.5864L99.5221 132.904Z" fill="white"/>
<path d="M139.919 118.827L117.031 76.2735L148.028 67.2971L139.919 118.827Z" fill="white"/>
<path d="M181.985 115.17L167.323 66.0901L198.957 66.8401L181.985 115.17Z" fill="white"/>
<path d="M228.309 121.249L219.788 70.1263L250.851 77.5848L228.309 121.249Z" fill="white"/>
<path d="M266.828 135.966L268.162 83.485L296.769 100.833L266.828 135.966Z" fill="white"/>
<path d="M95.5013 296.166L67.3473 333.781L96.7802 348.604L95.5013 296.166Z" fill="white"/>
<path d="M135.19 312.161L110.311 353.581L140.847 364.016L135.19 312.161Z" fill="white"/>
<path d="M177.045 317.796L160.073 366.125L191.708 366.875L177.045 317.796Z" fill="white"/>
<path d="M223.606 313.902L212.673 364.564L244.053 358.586L223.606 313.902Z" fill="white"/>
<path d="M262.77 301.035L261.616 353.52L291.012 337.548L262.77 301.035Z" fill="white"/>
</svg>
