<svg width="364" height="432" viewBox="0 0 364 432" fill="none" xmlns="http://www.w3.org/2000/svg">
<path d="M19.7112 127.965L15.2177 317.502C14.2196 359.601 43.432 396.406 84.6584 404.991L120.901 412.538C160.759 420.838 201.812 421.663 241.972 414.973L273.035 409.797C314.34 402.916 344.931 367.661 345.924 325.799L350.563 130.125C351.782 78.7077 316.371 33.6461 266.124 22.6723C217.919 12.1446 168.178 10.6668 119.433 18.3143L115.191 18.9798C61.2027 27.4498 21.0064 73.3319 19.7112 127.965Z" fill="black" stroke="black" stroke-width="24.2919"/>
<path d="M263.868 299.554L290.208 338.461L260.105 351.872L263.868 299.554Z" fill="white"/>
<path d="M223.473 313.643L246.361 356.196L215.365 365.172L223.473 313.643Z" fill="white"/>
<path d="M181.403 317.3L196.065 366.379L164.431 365.629L181.403 317.3Z" fill="white"/>
<path d="M135.076 311.218L143.597 362.341L112.535 354.883L135.076 311.218Z" fill="white"/>
<path d="M96.5725 296.493L95.2384 348.974L66.6321 331.627L96.5725 296.493Z" fill="white"/>
<path d="M267.879 136.293L296.033 98.6779L266.6 83.8555L267.879 136.293Z" fill="white"/>
<path d="M228.204 120.307L253.083 78.8863L222.547 68.4512L228.204 120.307Z" fill="white"/>
<path d="M186.335 114.661L203.307 66.3318L171.672 65.5818L186.335 114.661Z" fill="white"/>
<path d="M139.797 118.562L150.73 67.9004L119.35 73.8786L139.797 118.562Z" fill="white"/>
<path d="M100.624 131.425L101.778 78.9399L72.3822 94.9123L100.624 131.425Z" fill="white"/>
</svg>
