<svg width="364" height="433" viewBox="0 0 364 433" fill="none" xmlns="http://www.w3.org/2000/svg">
<path d="M345.312 304.228L349.806 114.691C350.804 72.5922 321.591 35.7873 280.365 27.2024L244.122 19.6553C204.264 11.3554 163.211 10.5298 123.052 17.2205L91.9889 22.3958C50.6839 29.2774 20.092 64.532 19.0995 106.394L14.4606 302.068C13.2416 353.485 48.652 398.547 98.8994 409.521C147.104 420.048 196.846 421.526 245.591 413.879L249.833 413.213C303.821 404.743 344.017 358.861 345.312 304.228Z" fill="white" stroke="white" stroke-width="24.2919"/>
<path d="M101.155 132.639L74.8156 93.7317L104.918 80.3208L101.155 132.639Z" fill="black"/>
<path d="M141.549 118.551L118.661 75.9976L149.657 67.0213L141.549 118.551Z" fill="black"/>
<path d="M183.621 114.894L168.958 65.8147L200.593 66.5647L183.621 114.894Z" fill="black"/>
<path d="M229.946 120.975L221.426 69.8518L252.488 77.3104L229.946 120.975Z" fill="black"/>
<path d="M268.454 135.699L269.788 83.2179L298.395 100.565L268.454 135.699Z" fill="black"/>
<path d="M97.1432 295.901L68.9892 333.516L98.422 348.339L97.1432 295.901Z" fill="black"/>
<path d="M136.82 311.889L111.941 353.309L142.477 363.745L136.82 311.889Z" fill="black"/>
<path d="M178.687 317.534L161.715 365.864L193.35 366.614L178.687 317.534Z" fill="black"/>
<path d="M225.242 313.644L214.309 364.305L245.689 358.327L225.242 313.644Z" fill="black"/>
<path d="M264.4 300.769L263.245 353.254L292.642 337.282L264.4 300.769Z" fill="black"/>
</svg>
