<svg width="362" height="431" viewBox="0 0 362 431" fill="none" xmlns="http://www.w3.org/2000/svg">
<path d="M17.9578 126.684L13.4642 316.221C12.4662 358.319 41.6786 395.124 82.9049 403.709L119.148 411.256C159.006 419.556 200.059 420.382 240.218 413.691L271.281 408.516C312.586 401.634 343.178 366.38 344.17 324.517L348.809 128.844C350.028 77.4263 314.618 32.3647 264.371 21.3909C216.166 10.8632 166.424 9.38541 117.679 17.0328L113.437 17.6983C59.4493 26.1683 19.253 72.0504 17.9578 126.684Z" fill="#9D0000" stroke="#9D0000" stroke-width="24.2919"/>
<path d="M262.12 298.279L288.46 337.186L258.358 350.597L262.12 298.279Z" fill="white"/>
<path d="M221.714 312.358L244.602 354.911L213.606 363.887L221.714 312.358Z" fill="white"/>
<path d="M179.652 316.029L194.315 365.108L162.68 364.358L179.652 316.029Z" fill="white"/>
<path d="M133.324 309.936L141.844 361.058L110.782 353.6L133.324 309.936Z" fill="white"/>
<path d="M94.8113 295.206L93.4772 347.687L64.8708 330.339L94.8113 295.206Z" fill="white"/>
<path d="M266.137 135.024L294.291 97.4089L264.858 82.5865L266.137 135.024Z" fill="white"/>
<path d="M226.447 119.021L251.325 77.6007L220.789 67.1655L226.447 119.021Z" fill="white"/>
<path d="M184.588 113.382L201.56 65.0528L169.925 64.3028L184.588 113.382Z" fill="white"/>
<path d="M138.037 117.277L148.97 66.615L117.589 72.5932L138.037 117.277Z" fill="white"/>
<path d="M98.8631 130.141L100.017 77.6555L70.6212 93.6279L98.8631 130.141Z" fill="white"/>
</svg>
