<svg width="532" height="343" viewBox="0 0 532 343" fill="none" xmlns="http://www.w3.org/2000/svg">
<path d="M77.1588 21.1221C24.3659 42.8508 -0.816487 103.263 20.9123 156.056L26.7645 170.275C119.334 395.185 443.014 379.422 513.292 146.582C548.402 30.598 388.258 -39.2123 327.184 65.4603L325.597 68.1808C322.646 73.2382 320.173 78.4913 317.95 83.2129C317.844 83.4392 317.738 83.6642 317.632 83.8879C315.247 88.9523 313.107 93.4298 310.612 97.5759C289.395 132.835 234.38 131.52 217.944 91.588L212.092 77.3692C190.363 24.5766 129.952 -0.606768 77.1588 21.1221Z" fill="black" stroke="black" stroke-width="23.4604" stroke-linecap="round"/>
<path d="M184.794 212.88L200.678 158.627L233.876 176.608L184.794 212.88Z" fill="white"/>
<path d="M268.45 233.422L249.939 176.423L286.961 176.423L268.45 233.422Z" fill="white"/>
<path d="M342.417 213.35L297.282 172.856L331.117 156.979L342.417 213.35Z" fill="white"/>
<path d="M400.751 163.48L340.981 149.331L367.724 120.749L400.751 163.48Z" fill="white"/>
<path d="M435.764 104.128L374.627 110.032L390.711 74.3467L435.764 104.128Z" fill="white"/>
<path d="M301.263 210.329L289.879 269.888L326.418 262.026L301.263 210.329Z" fill="white"/>
<path d="M374.029 181.919L384.157 242.5L414.46 217.724L374.029 181.919Z" fill="white"/>
<path d="M164.559 180.174L117.711 211.814L144.942 237.965L164.559 180.174Z" fill="white"/>
<path d="M418.631 129.947L456.245 178.504L471.199 142.33L418.631 129.947Z" fill="white"/>
<path d="M231.494 206.258L198.787 256.476L234.533 266.111L231.494 206.258Z" fill="white"/>
<path d="M122.978 130.738L71.5472 150.147L91.2664 183.279L122.978 130.738Z" fill="white"/>
<path d="M133.039 156.96L170.848 117.056L193.76 148.066L133.039 156.96Z" fill="white"/>
<path d="M95.4376 94.8466L144.756 70.567L155.466 107.606L95.4376 94.8466Z" fill="white"/>
</svg>
