<svg width="496" height="498" viewBox="0 0 496 498" fill="none" xmlns="http://www.w3.org/2000/svg">
<circle cx="247.984" cy="249.208" r="235.206" transform="rotate(90 247.984 249.208)" fill="white" stroke="white" stroke-width="24.4005"/>
<path d="M150.51 179.094L109.203 148.327L135.522 123.581L150.51 179.094Z" fill="black"/>
<path d="M198.118 145.992L163.837 105.614L195.011 88.893L198.118 145.992Z" fill="black"/>
<path d="M241.075 135.551L223.73 82.1451L258.419 82.1451L241.075 135.551Z" fill="black"/>
<path d="M288.356 148.453L287.808 91.6404L320.182 104.992L288.356 148.453Z" fill="black"/>
<path d="M330.096 174.989L348.823 120.571L372.996 148.152L330.096 174.989Z" fill="black"/>
<path d="M150.491 319.041L109.184 349.808L135.503 374.554L150.491 319.041Z" fill="black"/>
<path d="M198.117 352.129L163.836 392.507L195.01 409.228L198.117 352.129Z" fill="black"/>
<path d="M241.069 362.562L223.725 415.968L258.413 415.968L241.069 362.562Z" fill="black"/>
<path d="M288.341 349.677L287.793 406.49L320.167 393.139L288.341 349.677Z" fill="black"/>
<path d="M330.078 323.139L348.805 377.557L372.978 349.976L330.078 323.139Z" fill="black"/>
</svg>
