<svg width="497" height="496" viewBox="0 0 497 496" fill="none" xmlns="http://www.w3.org/2000/svg">
<circle cx="248.171" cy="247.63" r="235.206" transform="rotate(90 248.171 247.63)" fill="#9D0000" stroke="#9D0000" stroke-width="24.4006"/>
<path d="M150.698 177.519L109.391 146.751L135.71 122.005L150.698 177.519Z" fill="white"/>
<path d="M198.302 144.408L164.021 104.03L195.195 87.3093L198.302 144.408Z" fill="white"/>
<path d="M241.256 133.969L223.912 80.5625L258.6 80.5625L241.256 133.969Z" fill="white"/>
<path d="M288.534 146.867L287.986 90.0542L320.36 103.405L288.534 146.867Z" fill="white"/>
<path d="M330.274 173.409L349.001 118.991L373.174 146.572L330.274 173.409Z" fill="white"/>
<path d="M150.682 317.458L109.375 348.225L135.694 372.971L150.682 317.458Z" fill="white"/>
<path d="M198.298 350.542L164.018 390.92L195.191 407.641L198.298 350.542Z" fill="white"/>
<path d="M241.249 360.994L223.905 414.4L258.593 414.4L241.249 360.994Z" fill="white"/>
<path d="M288.522 348.091L287.974 404.904L320.348 391.553L288.522 348.091Z" fill="white"/>
<path d="M330.268 321.547L348.995 375.965L373.168 348.384L330.268 321.547Z" fill="white"/>
</svg>
