<svg width="168" height="200" viewBox="0 0 168 200" fill="none" xmlns="http://www.w3.org/2000/svg">
<path d="M160.117 141.012L162.203 53.0191C162.666 33.4747 149.105 16.388 129.965 12.4024L113.139 8.89866C94.6352 5.04541 75.5763 4.66213 56.9323 7.76833L42.5113 10.1709C23.3355 13.3657 9.13313 29.7327 8.67238 49.1674L6.51872 140.009C5.9528 163.88 22.3921 184.799 45.7195 189.894C68.0987 194.782 91.1913 195.468 113.821 191.917L115.79 191.608C140.855 187.676 159.516 166.375 160.117 141.012Z" fill="#9D0000" stroke="#9D0000" stroke-width="11.2775"/>
<path d="M46.7648 61.3473L34.5365 43.2846L48.5115 37.0586L46.7648 61.3473Z" fill="white"/>
<path d="M65.5242 54.8112L54.8986 35.056L69.2886 30.8887L65.5242 54.8112Z" fill="white"/>
<path d="M85.0504 53.1083L78.2433 30.3231L92.9296 30.6713L85.0504 53.1083Z" fill="white"/>
<path d="M106.557 55.9371L102.602 32.2034L117.022 35.666L106.557 55.9371Z" fill="white"/>
<path d="M124.437 62.7743L125.057 38.41L138.337 46.4636L124.437 62.7743Z" fill="white"/>
<path d="M44.9003 137.14L31.8298 154.603L45.494 161.484L44.9003 137.14Z" fill="white"/>
<path d="M63.3265 144.568L51.7766 163.798L65.953 168.643L63.3265 144.568Z" fill="white"/>
<path d="M82.7599 147.186L74.8806 169.623L89.567 169.971L82.7599 147.186Z" fill="white"/>
<path d="M104.371 145.378L99.295 168.898L113.864 166.123L104.371 145.378Z" fill="white"/>
<path d="M122.556 139.406L122.02 163.772L135.667 156.357L122.556 139.406Z" fill="white"/>
</svg>
