<svg width="277" height="179" viewBox="0 0 277 179" fill="none" xmlns="http://www.w3.org/2000/svg">
<path d="M11.0517 81.457L16.6765 79.142L11.0517 81.457L14.1043 88.8735C62.3875 206.184 231.214 197.964 267.874 76.5206C286.193 16.0209 202.659 -20.3955 170.802 34.2028L169.974 35.6218C168.435 38.2596 167.145 40.9995 165.986 43.4622L165.82 43.8145C164.575 46.4561 163.459 48.7915 162.158 50.9541C151.091 69.345 122.396 68.6591 113.823 47.8308L110.77 40.4144C99.4368 12.878 67.9263 -0.257553 40.3897 11.0761C12.8532 22.4097 -0.281868 53.9205 11.0517 81.457Z" fill="#9D0000" stroke="#9D0000" stroke-width="12.2368" stroke-linecap="round"/>
<path d="M96.5336 111.096L104.819 82.7973L122.135 92.1763L96.5336 111.096Z" fill="white"/>
<path d="M140.167 121.81L130.512 92.0795L149.823 92.0795L140.167 121.81Z" fill="white"/>
<path d="M178.749 111.341L155.206 90.2193L172.855 81.938L178.749 111.341Z" fill="white"/>
<path d="M209.175 85.3288L178 77.9487L191.948 63.0404L209.175 85.3288Z" fill="white"/>
<path d="M227.438 54.3689L195.549 57.4481L203.938 38.835L227.438 54.3689Z" fill="white"/>
<path d="M157.281 109.765L151.343 140.831L170.402 136.73L157.281 109.765Z" fill="white"/>
<path d="M195.237 94.9451L200.52 126.544L216.326 113.621L195.237 94.9451Z" fill="white"/>
<path d="M85.9793 94.0361L61.544 110.539L75.7474 124.18L85.9793 94.0361Z" fill="white"/>
<path d="M218.502 67.8384L238.121 93.1653L245.921 74.2975L218.502 67.8384Z" fill="white"/>
<path d="M120.893 107.641L103.833 133.835L122.478 138.86L120.893 107.641Z" fill="white"/>
<path d="M64.2899 68.2501L37.464 78.3739L47.7495 95.6554L64.2899 68.2501Z" fill="white"/>
<path d="M69.5372 81.928L89.2583 61.1146L101.209 77.2891L69.5372 81.928Z" fill="white"/>
<path d="M49.9243 49.5303L75.6486 36.8662L81.2347 56.1855L49.9243 49.5303Z" fill="white"/>
</svg>
