<svg width="623" height="412" viewBox="0 0 623 412" fill="none" xmlns="http://www.w3.org/2000/svg">
<path d="M22.9832 181.824L35.7201 176.581L22.9832 181.824L29.8549 198.52C138.549 462.606 518.605 444.101 601.133 170.711C642.374 34.5156 454.324 -47.464 382.608 75.4462L380.745 78.6407C377.28 84.5792 374.376 90.7474 371.766 96.2916C371.641 96.5572 371.516 96.8214 371.393 97.084C368.591 103.031 366.079 108.288 363.15 113.156C338.237 154.558 273.637 153.013 254.339 106.125L247.467 89.4297C221.953 27.4405 151.018 -2.12987 89.028 23.3841C27.0385 48.8981 -2.53076 119.834 22.9832 181.824Z" fill="white" stroke="white" stroke-width="27.5472" stroke-linecap="round"/>
<path d="M215.41 248.569L234.061 184.865L273.042 205.979L215.41 248.569Z" fill="black"/>
<path d="M313.644 272.697L291.909 205.769L335.38 205.769L313.644 272.697Z" fill="black"/>
<path d="M400.502 249.114L347.505 201.566L387.234 182.924L400.502 249.114Z" fill="black"/>
<path d="M468.993 190.556L398.811 173.943L430.212 140.381L468.993 190.556Z" fill="black"/>
<path d="M510.101 120.864L438.313 127.796L457.199 85.8947L510.101 120.864Z" fill="black"/>
<path d="M352.174 245.567L338.807 315.502L381.711 306.27L352.174 245.567Z" fill="black"/>
<path d="M437.614 212.205L449.507 283.339L485.089 254.247L437.614 212.205Z" fill="black"/>
<path d="M191.649 210.16L136.641 247.312L168.616 278.019L191.649 210.16Z" fill="black"/>
<path d="M489.988 151.185L534.155 208.2L551.713 165.725L489.988 151.185Z" fill="black"/>
<path d="M270.253 240.791L231.848 299.756L273.822 311.07L270.253 240.791Z" fill="black"/>
<path d="M142.827 152.117L82.4369 174.908L105.591 213.811L142.827 152.117Z" fill="black"/>
<path d="M154.645 182.884L199.041 136.029L225.945 172.441L154.645 182.884Z" fill="black"/>
<path d="M110.491 109.976L168.401 81.467L180.976 124.958L110.491 109.976Z" fill="black"/>
</svg>
