<svg width="388" height="471" viewBox="0 0 388 471" fill="none" xmlns="http://www.w3.org/2000/svg">
<path d="M366.799 329.225L371.586 127.303C372.649 82.4534 341.528 43.2436 297.608 34.0978L258.997 26.0575C216.534 17.2152 172.799 16.3357 130.015 23.4636L96.9226 28.977C52.9187 36.3083 20.3278 73.8665 19.2705 118.464L14.3283 326.924C13.0297 381.701 50.754 429.707 104.285 441.398C155.639 452.613 208.631 454.188 260.561 446.041L265.08 445.332C322.596 436.308 365.419 387.428 366.799 329.225Z" fill="black" stroke="black" stroke-width="25.8792"/>
<path d="M106.681 146.417L78.6203 104.968L110.689 90.6804L106.681 146.417Z" fill="white"/>
<path d="M149.727 131.419L125.344 86.0856L158.366 76.5227L149.727 131.419Z" fill="white"/>
<path d="M194.546 127.527L178.925 75.2411L212.627 76.0401L194.546 127.527Z" fill="white"/>
<path d="M243.894 134L234.817 79.5366L267.909 87.4825L243.894 134Z" fill="white"/>
<path d="M284.92 149.692L286.341 93.782L316.817 112.263L284.92 149.692Z" fill="white"/>
<path d="M102.4 320.342L72.4069 360.415L103.763 376.206L102.4 320.342Z" fill="white"/>
<path d="M144.687 337.389L118.183 381.516L150.714 392.633L144.687 337.389Z" fill="white"/>
<path d="M189.277 343.398L171.196 394.885L204.897 395.684L189.277 343.398Z" fill="white"/>
<path d="M238.869 339.247L227.221 393.219L260.652 386.85L238.869 339.247Z" fill="white"/>
<path d="M280.605 325.544L279.375 381.459L310.692 364.443L280.605 325.544Z" fill="white"/>
</svg>
