<svg width="365" height="340" viewBox="0 0 365 340" fill="none" xmlns="http://www.w3.org/2000/svg">
<circle cx="183.187" cy="169.295" r="160.021" transform="rotate(90 183.187 169.295)" fill="#9D0000" stroke="#9D0000" stroke-width="16.6008"/>
<path d="M116.87 121.595L88.7677 100.663L106.674 83.8269L116.87 121.595Z" fill="white"/>
<path d="M149.261 99.0674L125.938 71.5966L147.147 60.2206L149.261 99.0674Z" fill="white"/>
<path d="M178.482 91.9661L166.682 55.6314L190.282 55.6314L178.482 91.9661Z" fill="white"/>
<path d="M210.649 100.742L210.276 62.0895L232.301 71.173L210.649 100.742Z" fill="white"/>
<path d="M239.046 118.799L251.787 81.7762L268.233 100.541L239.046 118.799Z" fill="white"/>
<path d="M116.859 216.801L88.756 237.733L106.662 254.569L116.859 216.801Z" fill="white"/>
<path d="M149.257 239.31L125.934 266.781L147.143 278.157L149.257 239.31Z" fill="white"/>
<path d="M178.477 246.421L166.677 282.756L190.277 282.756L178.477 246.421Z" fill="white"/>
<path d="M210.64 237.643L210.267 276.295L232.293 267.212L210.64 237.643Z" fill="white"/>
<path d="M239.041 219.584L251.781 256.607L268.227 237.842L239.041 219.584Z" fill="white"/>
</svg>
