<svg width="386" height="252" viewBox="0 0 386 252" fill="none" xmlns="http://www.w3.org/2000/svg">
<path d="M15.3726 117.594L23.1414 114.396L15.3726 117.594L19.5881 127.836C86.2686 289.845 319.424 278.491 370.048 110.769C395.338 27.2228 279.982 -23.0635 235.989 52.335L234.845 54.2947C232.72 57.9377 230.938 61.7216 229.337 65.1228L229.108 65.6089C227.39 69.257 225.849 72.4822 224.052 75.4688C208.769 100.867 169.139 99.9195 157.3 71.1555L149.778 74.2518L157.3 71.1555L153.085 60.9133C137.433 22.8853 93.9168 4.74503 55.8886 20.3969C17.8603 36.0487 -0.279245 79.5654 15.3726 117.594Z" fill="black" stroke="black" stroke-width="16.8992" stroke-linecap="round"/>
<path d="M133.421 158.526L144.863 119.446L168.776 132.398L133.421 158.526Z" fill="white"/>
<path d="M193.682 173.323L180.348 132.265L207.016 132.265L193.682 173.323Z" fill="white"/>
<path d="M246.963 158.865L214.451 129.696L238.823 118.259L246.963 158.865Z" fill="white"/>
<path d="M288.981 122.942L245.928 112.75L265.191 92.1618L288.981 122.942Z" fill="white"/>
<path d="M314.202 80.1894L270.163 84.4419L281.749 58.737L314.202 80.1894Z" fill="white"/>
<path d="M217.317 156.689L209.118 199.591L235.437 193.927L217.317 156.689Z" fill="white"/>
<path d="M269.733 136.224L277.029 179.862L298.857 162.015L269.733 136.224Z" fill="white"/>
<path d="M118.847 134.967L85.1012 157.758L104.716 176.596L118.847 134.967Z" fill="white"/>
<path d="M301.86 98.7872L328.955 133.764L339.726 107.707L301.86 98.7872Z" fill="white"/>
<path d="M167.061 153.755L143.501 189.929L169.25 196.869L167.061 153.755Z" fill="white"/>
<path d="M88.8934 99.3563L51.8466 113.337L66.0509 137.203L88.8934 99.3563Z" fill="white"/>
<path d="M96.1412 118.245L123.376 89.502L139.881 111.839L96.1412 118.245Z" fill="white"/>
<path d="M69.0568 73.5042L104.582 56.0149L112.297 82.6951L69.0568 73.5042Z" fill="white"/>
</svg>
