<svg width="259" height="313" viewBox="0 0 259 313" fill="none" xmlns="http://www.w3.org/2000/svg">
<path d="M242.089 216.961L245.246 83.7837C245.948 54.2033 225.422 28.3426 196.455 22.3105L170.989 17.0076C142.983 11.1757 114.137 10.5956 85.9194 15.2968L64.0933 18.9331C35.0707 23.7684 13.5754 48.5398 12.8781 77.9542L9.61854 215.443C8.76203 251.571 33.6429 283.233 68.9489 290.944C102.82 298.341 137.77 299.379 172.021 294.006L175.001 293.538C212.935 287.587 241.179 255.348 242.089 216.961Z" fill="white" stroke="white" stroke-width="17.0685"/>
<path d="M70.5335 96.395L52.0261 69.0572L73.1771 59.6341L70.5335 96.395Z" fill="black"/>
<path d="M98.916 86.4964L82.8341 56.5968L104.613 50.2897L98.916 86.4964Z" fill="black"/>
<path d="M128.476 83.9279L118.174 49.4426L140.402 49.9696L128.476 83.9279Z" fill="black"/>
<path d="M161.027 88.2004L155.041 52.2793L176.866 57.52L161.027 88.2004Z" fill="black"/>
<path d="M188.085 98.5459L189.022 61.6706L209.122 73.8597L188.085 98.5459Z" fill="black"/>
<path d="M67.7143 211.111L47.9321 237.541L68.6128 247.956L67.7143 211.111Z" fill="black"/>
<path d="M95.5929 222.345L78.1122 251.449L99.5681 258.781L95.5929 222.345Z" fill="black"/>
<path d="M125.011 226.311L113.085 260.27L135.313 260.797L125.011 226.311Z" fill="black"/>
<path d="M157.723 223.577L150.041 259.174L172.09 254.974L157.723 223.577Z" fill="black"/>
<path d="M185.235 214.531L184.424 251.41L205.079 240.187L185.235 214.531Z" fill="black"/>
</svg>
