<svg width="383" height="388" viewBox="0 0 383 388" fill="none" xmlns="http://www.w3.org/2000/svg">
<circle cx="190.261" cy="193.276" r="177.316" transform="rotate(90 190.261 193.276)" fill="white" stroke="white" stroke-width="18.395"/>
<path d="M116.777 140.419L85.6369 117.224L105.478 98.5688L116.777 140.419Z" fill="black"/>
<path d="M152.667 115.463L126.824 85.0231L150.325 72.4176L152.667 115.463Z" fill="black"/>
<path d="M185.051 107.592L171.975 67.3307L198.126 67.3307L185.051 107.592Z" fill="black"/>
<path d="M220.696 117.32L220.283 74.4901L244.689 84.5553L220.696 117.32Z" fill="black"/>
<path d="M252.163 137.324L266.281 96.2994L284.504 117.092L252.163 137.324Z" fill="black"/>
<path d="M116.763 245.922L85.6227 269.116L105.464 287.772L116.763 245.922Z" fill="black"/>
<path d="M152.667 270.866L126.824 301.306L150.325 313.911L152.667 270.866Z" fill="black"/>
<path d="M185.047 278.731L171.972 318.993L198.123 318.993L185.047 278.731Z" fill="black"/>
<path d="M220.685 269.018L220.272 311.847L244.678 301.782L220.685 269.018Z" fill="black"/>
<path d="M252.15 249.012L266.267 290.036L284.491 269.244L252.15 249.012Z" fill="black"/>
</svg>
