<svg width="1414" height="498" viewBox="0 0 1414 498" fill="none" xmlns="http://www.w3.org/2000/svg">
<path d="M80.7778 259.453L118.989 197.831C127.476 184.143 124.977 166.347 113.048 155.528L102.56 146.016C91.027 135.555 77.6514 127.328 63.1137 121.751L51.869 117.438C36.9166 111.703 19.9982 117.398 11.5586 131.009L-27.8898 194.626C-38.2557 211.343 -35.3127 233.062 -20.8721 246.418C-7.01841 259.23 9.09566 269.357 26.6494 276.281L28.1771 276.884C47.619 284.553 69.7636 277.215 80.7778 259.453Z" fill="#9D0000" stroke="#9D0000" stroke-width="9.29031"/>
<path d="M33.5276 155.563L32.3827 137.631L44.9066 139.043L33.5276 155.563Z" fill="white"/>
<path d="M49.5762 158.746L50.2761 140.281L62.2354 143.328L49.5762 158.746Z" fill="white"/>
<path d="M64.1562 165.693L68.8327 146.67L79.1177 153.047L64.1562 165.693Z" fill="white"/>
<path d="M78.2516 176.676L85.3492 158.169L94.1454 166.648L78.2516 176.676Z" fill="white"/>
<path d="M88.095 188.993L98.705 171.947L104.775 183.211L88.095 188.993Z" fill="white"/>
<path d="M0.566283 208.616L-16.0058 215.562L-9.17375 226.153L0.566283 208.616Z" fill="white"/>
<path d="M10.5505 221.576L-5.67904 230.412L2.36687 239.77L10.5505 221.576Z" fill="white"/>
<path d="M23.2597 231.55L8.29829 244.196L18.5833 250.574L23.2597 231.55Z" fill="white"/>
<path d="M39.3644 239.29L25.942 253.875L37.4471 257.985L39.3644 239.29Z" fill="white"/>
<path d="M54.7704 242.632L44.2189 259.714L57.0065 260.144L54.7704 242.632Z" fill="white"/>
<path d="M244.988 215.664C217.005 213.242 192.357 233.963 189.935 261.946L189.282 269.482C178.962 388.696 324.007 454.89 407.3 368.981C448.835 326.21 394.597 259.536 344.266 291.499L342.958 292.33C340.526 293.875 338.259 295.612 336.221 297.175C336.124 297.249 336.027 297.324 335.93 297.398C333.744 299.073 331.798 300.547 329.771 301.796C312.536 312.417 288.784 299.42 290.617 278.254L291.269 270.718C293.691 242.735 272.971 218.087 244.988 215.664Z" fill="#9D0000" stroke="#9D0000" stroke-width="11.5422" stroke-linecap="round"/>
<circle cx="615.566" cy="389.656" r="68.3133" transform="rotate(-55.3358 615.566 389.656)" fill="#9D0000" stroke="#9D0000" stroke-width="7.08691"/>
<path d="M627.268 422.506L632.054 436.68L621.678 438.244L627.268 422.506Z" fill="white"/>
<path d="M610.427 422.55L611.946 437.858L601.737 436.703L610.427 422.55Z" fill="white"/>
<path d="M598.44 417.948L593.761 433.571L585.474 427.841L598.44 417.948Z" fill="white"/>
<path d="M589.277 407.055L580.023 420.718L574.495 412.18L589.277 407.055Z" fill="white"/>
<path d="M583.689 393.821L570.226 403.727L569.007 393.145L583.689 393.821Z" fill="white"/>
<path d="M650.392 389.078L665.342 388.552L663.143 378.293L650.392 389.078Z" fill="white"/>
<path d="M644.48 373.306L659.339 369.323L654.654 360.179L644.48 373.306Z" fill="white"/>
<path d="M635.943 363.719L648.909 353.826L640.622 348.096L635.943 363.719Z" fill="white"/>
<path d="M622.522 358.988L632.038 345.507L622.098 343.348L622.522 358.988Z" fill="white"/>
<path d="M608.168 358.433L612.683 342.339L602.353 344.935L608.168 358.433Z" fill="white"/>
<path d="M248.733 323.795L267.926 303.667L278.377 319.022L248.733 323.795Z" fill="white"/>
<path d="M280.663 351.668L285.442 322.573L301.625 330.933L280.663 351.668Z" fill="white"/>
<path d="M317.531 359.591L306.946 331.699L325.32 332.399L317.531 359.591Z" fill="white"/>
<path d="M354.29 350.963L331.358 331.282L349.501 324.827L354.29 350.963Z" fill="white"/>
<path d="M382.993 332.923L354.936 321.699L370.024 309.732L382.993 332.923Z" fill="white"/>
<path d="M300.222 348.977L281.798 372.441L299.544 377.255L300.222 348.977Z" fill="white"/>
<path d="M338.444 352.988L329.193 381.755L348.033 377.768L338.444 352.988Z" fill="white"/>
<path d="M247.274 304.929L219.652 308.181L225.65 325.761L247.274 304.929Z" fill="white"/>
<path d="M369.675 340.343L375.153 370.061L389.857 357.626L369.675 340.343Z" fill="white"/>
<path d="M270.646 331.446L245.01 346.012L258.46 358.295L270.646 331.446Z" fill="white"/>
<path d="M240.259 273.932L213.396 270.804L214.534 289.739L240.259 273.932Z" fill="white"/>
<path d="M238.744 287.659L264.28 278.753L267.294 297.482L238.744 287.659Z" fill="white"/>
<path d="M236.327 252.028L263.367 252.551L259.685 271.159L236.327 252.028Z" fill="white"/>
<path d="M941.33 398.024L908.348 333.452C901.022 319.109 884.498 312.046 869.068 316.661L855.504 320.718C840.586 325.18 826.627 332.373 814.336 341.932L804.83 349.326C792.188 359.158 788.314 376.584 795.599 390.846L829.649 457.509C838.596 475.026 858.708 483.739 877.606 478.285C895.737 473.054 912.737 464.499 927.742 453.055L929.048 452.059C945.666 439.385 950.837 416.637 941.33 398.024Z" fill="#9D0000" stroke="#9D0000" stroke-width="9.29031"/>
<path d="M827.975 384.74L812.035 376.446L819.72 366.457L827.975 384.74Z" fill="white"/>
<path d="M838.999 372.651L823.556 362.502L832.348 353.842L838.999 372.651Z" fill="white"/>
<path d="M852.485 363.764L838.621 349.924L849.398 344.419L852.485 363.764Z" fill="white"/>
<path d="M869.174 357.378L857.004 341.733L868.81 338.589L869.174 357.378Z" fill="white"/>
<path d="M884.807 355.324L875.705 337.428L888.484 338.057L884.807 355.324Z" fill="white"/>
<path d="M856.338 440.387L853.714 458.164L866.311 457.793L856.338 440.387Z" fill="white"/>
<path d="M872.594 438.544L871.764 457.005L883.934 454.958L872.594 438.544Z" fill="white"/>
<path d="M887.704 432.823L890.79 452.169L901.568 446.664L887.704 432.823Z" fill="white"/>
<path d="M902.656 423.042L908.198 442.073L917.665 434.351L902.656 423.042Z" fill="white"/>
<path d="M913.484 411.585L922.647 429.45L929.628 418.727L913.484 411.585Z" fill="white"/>
<circle cx="1342.09" cy="72.5844" r="68.3133" transform="rotate(-90 1342.09 72.5844)" fill="#9D0000" stroke="#9D0000" stroke-width="7.08691"/>
<path d="M1370.4 92.9476L1382.4 101.884L1374.75 109.071L1370.4 92.9476Z" fill="white"/>
<path d="M1356.57 102.562L1366.53 114.289L1357.48 119.146L1356.57 102.562Z" fill="white"/>
<path d="M1344.1 105.594L1349.14 121.106L1339.06 121.106L1344.1 105.594Z" fill="white"/>
<path d="M1330.37 101.847L1330.52 118.348L1321.12 114.47L1330.37 101.847Z" fill="white"/>
<path d="M1318.24 94.1403L1312.8 109.945L1305.78 101.935L1318.24 94.1403Z" fill="white"/>
<path d="M1370.41 52.3014L1382.4 43.3654L1374.76 36.1781L1370.41 52.3014Z" fill="white"/>
<path d="M1356.57 42.6913L1366.53 30.9639L1357.48 26.1075L1356.57 42.6913Z" fill="white"/>
<path d="M1344.1 39.6611L1349.14 24.1498L1339.06 24.1498L1344.1 39.6611Z" fill="white"/>
<path d="M1330.37 43.4035L1330.53 26.9028L1321.13 30.7806L1330.37 43.4035Z" fill="white"/>
<path d="M1318.25 51.1109L1312.81 35.3058L1305.79 43.3165L1318.25 51.1109Z" fill="white"/>
<path d="M1064.81 336.879L1067.35 333.108L1064.81 336.879L1069.76 340.204C1147.95 392.793 1248.89 318.113 1221.48 227.952C1207.86 183.018 1141.23 194.952 1144.05 241.822L1144.12 243.041C1144.26 245.305 1144.59 247.53 1144.89 249.53C1144.9 249.626 1144.92 249.721 1144.93 249.816C1145.25 251.961 1145.53 253.864 1145.61 255.737C1146.36 271.664 1128.34 283.07 1114.46 273.733L1109.51 270.409C1091.16 258.065 1066.27 262.937 1053.93 281.293C1041.58 299.648 1046.46 324.535 1064.81 336.879Z" fill="#9D0000" stroke="#9D0000" stroke-width="9.09001" stroke-linecap="round"/>
<path d="M1129.86 319.963L1123.31 299.06L1137.88 297.718L1129.86 319.963Z" fill="white"/>
<path d="M1161.24 308.597L1143.02 294.205L1154.95 286.244L1161.24 308.597Z" fill="white"/>
<path d="M1180.77 286.218L1157.51 282.871L1165 270.478L1180.77 286.218Z" fill="white"/>
<path d="M1188.84 257.601L1166.54 265.892L1169.01 250.929L1188.84 257.601Z" fill="white"/>
<path d="M1187.37 230.942L1168.93 245.991L1166.44 231.031L1187.37 230.942Z" fill="white"/>
<path d="M1166.85 294.094L1175.99 315.74L1186.07 305.349L1166.85 294.094Z" fill="white"/>
<path d="M1184.19 269.29L1200.48 286.638L1204.92 272.137L1184.19 269.29Z" fill="white"/>
<path d="M1116.3 313.771L1108.01 334.042L1122.41 336.616L1116.3 313.771Z" fill="white"/>
<path d="M1187.4 242.948L1209.96 250.511L1207 235.636L1187.4 242.948Z" fill="white"/>
<path d="M1143.49 307.784L1143.74 331.003L1157.34 326.423L1143.49 307.784Z" fill="white"/>
<path d="M1092.27 306.778L1079.87 324.093L1093.35 330.532L1092.27 306.778Z" fill="white"/>
<path d="M1101.15 313.059L1104.76 292.068L1118.81 297.136L1101.15 313.059Z" fill="white"/>
<path d="M1075.68 301.131L1086.35 282.701L1097.77 292.336L1075.68 301.131Z" fill="white"/>
</svg>
