<svg width="795" height="737" viewBox="0 0 795 737" fill="none" xmlns="http://www.w3.org/2000/svg">
<path d="M779.018 668.076L753.595 711.029L717.955 695.198C685.043 680.579 654.911 660.372 628.894 635.474L622.2 629.306C618.82 626.191 614.68 624.018 610.196 623.006L541.701 607.549L377.913 570.587L210.638 532.838C108.57 509.804 44.4991 408.389 67.5329 306.32L75.9322 269.101C80.5224 248.76 76.2274 227.427 64.1233 210.448L57.5666 201.25C36.433 171.604 25.0949 136.094 25.1382 99.6869L50.2646 99.7167L69.5385 83.5968L79.6053 95.6332C90.6594 108.85 105.194 118.619 121.482 123.886C140.48 108.131 162.552 96.4367 186.337 89.5744L198.733 85.9981L226.201 78.0732L231.582 74.8921L243.649 52.8529L266.752 65.5024C277.103 71.1695 286.205 78.376 293.876 86.7173L292.921 69.0156L340.02 119.11L361.205 141.642C367.464 148.299 373.192 155.418 378.343 162.932C394.009 150.454 413.456 143.096 433.997 142.38L455.623 141.627L509.682 139.743L476.251 182.267L468.305 192.375C465.978 195.334 466.135 199.543 468.675 202.322C468.899 202.568 469.194 202.739 469.519 202.813L592.109 230.477C714.331 258.059 791.052 379.5 763.47 501.722L741.265 600.118C736.666 620.501 744.377 641.694 761 654.354L779.018 668.076Z" fill="white" stroke="#9D0000" stroke-width="50.2528"/>
<path d="M143.801 247.098C139.38 246.013 136.275 244.285 134.485 241.916C132.696 239.547 132.174 236.84 132.921 233.798C133.368 231.977 134.206 230.473 135.435 229.286C136.67 228.073 138.258 227.277 140.198 226.899C142.139 226.52 144.344 226.634 146.815 227.241C149.701 227.949 151.81 228.963 153.141 230.282C154.504 231.582 155.26 233.05 155.41 234.686L155.917 234.81L156.022 234.381C156.654 231.807 156.193 229.529 154.639 227.548C153.091 225.541 150.393 224.066 146.544 223.121C142.825 222.208 139.359 221.95 136.146 222.347L137.391 217.276C140.318 216.808 143.823 217.076 147.906 218.078C151.547 218.972 154.488 220.356 156.73 222.23C158.979 224.078 160.459 226.302 161.172 228.904C161.911 231.511 161.894 234.389 161.121 237.535C160.413 240.422 159.237 242.684 157.594 244.321C156.094 245.938 154.167 246.995 151.811 247.493C149.488 247.97 146.818 247.839 143.801 247.098ZM145.262 242.328C147.733 242.934 149.72 242.926 151.224 242.303C152.728 241.679 153.656 240.652 154.007 239.222C154.364 237.766 154.021 236.413 152.976 235.164C151.958 233.921 150.2 232.993 147.704 232.381C145.207 231.768 143.22 231.776 141.742 232.406C140.264 233.036 139.346 234.079 138.988 235.535C138.637 236.966 138.971 238.302 139.989 239.545C141.034 240.794 142.791 241.721 145.262 242.328ZM175.085 254.777C172.12 254.05 169.709 252.975 167.852 251.554C166.001 250.107 164.735 248.473 164.051 246.651C163.4 244.809 163.314 242.913 163.793 240.962C164.272 239.012 165.223 237.384 166.646 236.079C168.102 234.755 169.982 233.893 172.286 233.493C174.596 233.067 177.234 233.219 180.198 233.946C183.137 234.668 185.532 235.752 187.382 237.199C189.239 238.62 190.493 240.251 191.144 242.093C191.827 243.915 191.93 245.801 191.451 247.752C190.972 249.702 190.005 251.34 188.549 252.664C187.126 253.969 185.259 254.835 182.949 255.26C180.645 255.66 178.023 255.499 175.085 254.777ZM176.272 249.94C178.743 250.547 180.769 250.493 182.351 249.778C183.939 249.037 184.931 247.861 185.326 246.248C185.716 244.662 185.375 243.186 184.304 241.82C183.239 240.428 181.472 239.429 179.001 238.823C176.531 238.216 174.488 238.28 172.874 239.014C171.293 239.729 170.307 240.879 169.918 242.466C169.522 244.078 169.856 245.58 170.921 246.972C172.018 248.344 173.802 249.334 176.272 249.94ZM206.295 262.439C201.613 261.289 198.355 259.345 196.518 256.606C194.714 253.847 194.313 250.426 195.315 246.343C196.355 242.104 198.372 239.166 201.366 237.529C204.392 235.873 208.389 235.655 213.356 236.874C215.384 237.372 216.915 237.652 217.948 237.712C218.981 237.773 219.695 237.672 220.09 237.411C220.517 237.13 220.811 236.664 220.97 236.014L227.212 237.546C226.727 239.522 226.044 240.954 225.165 241.841C224.318 242.709 223.005 243.172 221.225 243.232C219.446 243.291 216.905 242.916 213.602 242.105C209.779 241.166 206.853 241.124 204.824 241.977C202.821 242.836 201.526 244.462 200.938 246.855L200.852 247.206L201.359 247.33C202.256 245.923 203.567 244.963 205.292 244.449C207.018 243.935 209.428 244.058 212.523 244.818C214.993 245.424 216.991 246.328 218.516 247.53C220.073 248.712 221.118 250.071 221.651 251.608C222.209 253.151 222.278 254.781 221.857 256.498C221.174 259.28 219.519 261.246 216.894 262.393C214.301 263.521 210.768 263.537 206.295 262.439ZM207.19 257.612C209.738 258.238 211.71 258.295 213.104 257.782C214.505 257.243 215.368 256.311 215.693 254.985C216.012 253.684 215.66 252.481 214.635 251.375C213.643 250.249 211.886 249.376 209.363 248.757C206.815 248.132 204.827 248.085 203.401 248.617C202.007 249.13 201.15 250.036 200.831 251.336C200.505 252.663 200.838 253.889 201.83 255.015C202.855 256.121 204.641 256.987 207.19 257.612ZM221.947 273.684L228.65 246.378L234.813 247.891L232.555 253.044L233.219 253.207C234.302 251.488 235.801 250.325 237.714 249.72C239.634 249.088 241.946 249.104 244.651 249.768C246.887 250.317 248.729 251.238 250.177 252.531C251.624 253.823 252.608 255.375 253.129 257.184C253.656 258.968 253.671 260.874 253.173 262.903C252.669 264.957 251.767 266.666 250.467 268.029C249.174 269.366 247.586 270.272 245.705 270.748C243.83 271.198 241.774 271.148 239.537 270.599C236.833 269.935 234.773 268.892 233.357 267.469C231.948 266.02 231.158 264.296 230.987 262.296L230.324 262.133C230.304 263.562 230.235 264.855 230.117 266.011C230.005 267.142 229.802 268.305 229.508 269.502L228.11 275.197L221.947 273.684ZM238.384 265.187C240.699 265.755 242.621 265.676 244.151 264.948C245.687 264.195 246.653 263.012 247.048 261.399C247.444 259.787 247.133 258.304 246.114 256.951C245.095 255.598 243.428 254.638 241.113 254.069C238.773 253.495 236.838 253.571 235.308 254.299C233.804 255.033 232.855 256.206 232.459 257.818C232.063 259.431 232.372 260.926 233.384 262.305C234.403 263.658 236.07 264.619 238.384 265.187ZM267.77 277.529C264.805 276.801 262.394 275.727 260.537 274.306C258.687 272.859 257.42 271.225 256.736 269.403C256.086 267.561 255.999 265.665 256.478 263.714C256.957 261.764 257.908 260.136 259.331 258.831C260.787 257.506 262.667 256.644 264.971 256.245C267.281 255.819 269.919 255.97 272.883 256.698C275.822 257.42 278.217 258.504 280.067 259.951C281.924 261.372 283.178 263.003 283.829 264.845C284.512 266.667 284.615 268.553 284.136 270.503C283.657 272.454 282.69 274.092 281.234 275.416C279.811 276.721 277.944 277.586 275.634 278.012C273.33 278.411 270.709 278.251 267.77 277.529ZM268.957 272.692C271.428 273.298 273.454 273.244 275.036 272.53C276.624 271.789 277.616 270.612 278.011 269C278.401 267.414 278.06 265.938 276.989 264.572C275.924 263.18 274.157 262.181 271.686 261.574C269.216 260.968 267.173 261.032 265.559 261.766C263.978 262.481 262.992 263.631 262.603 265.218C262.207 266.83 262.541 268.332 263.606 269.724C264.703 271.096 266.487 272.086 268.957 272.692ZM302.558 285.531L296.394 284.018L301.259 264.201L326.342 270.359L321.477 290.175L315.353 288.672L318.944 274.043L306.149 270.903L302.558 285.531ZM339.426 295.119C336.462 294.391 334.051 293.317 332.194 291.896C330.343 290.449 329.076 288.815 328.393 286.992C327.742 285.151 327.656 283.255 328.135 281.304C328.614 279.354 329.565 277.726 330.988 276.421C332.444 275.096 334.323 274.234 336.627 273.835C338.938 273.409 341.575 273.56 344.54 274.288C347.479 275.009 349.873 276.094 351.724 277.541C353.581 278.961 354.835 280.593 355.486 282.435C356.169 284.257 356.271 286.143 355.792 288.093C355.314 290.044 354.346 291.681 352.891 293.006C351.467 294.311 349.601 295.176 347.29 295.602C344.986 296.001 342.365 295.84 339.426 295.119ZM340.614 290.282C343.084 290.888 345.111 290.834 346.692 290.12C348.28 289.379 349.272 288.202 349.668 286.59C350.057 285.004 349.717 283.528 348.646 282.162C347.581 280.77 345.814 279.771 343.343 279.164C340.872 278.558 338.83 278.622 337.216 279.356C335.634 280.071 334.649 281.221 334.259 282.808C333.864 284.42 334.198 285.922 335.263 287.314C336.359 288.686 338.143 289.675 340.614 290.282ZM384.258 294.626L391.317 307.319L383.905 305.5L377.678 293.631L375.284 303.384L369.394 301.938L371.788 292.185L360.773 299.821L353.361 298.002L365.495 290.02L358.616 278.281L365.871 280.062L372.046 291.132L374.258 282.121L380.149 283.567L377.937 292.578L388.536 285.626L395.792 287.407L384.258 294.626ZM401.496 310.356C398.349 309.583 396.166 308.482 394.945 307.052C393.757 305.602 393.389 303.954 393.842 302.107C394.289 300.287 395.372 299.022 397.09 298.314C398.834 297.611 401.279 297.646 404.426 298.419C406.689 298.974 408.51 299.642 409.89 300.422C411.277 301.176 412.603 302.122 413.867 303.259L414.222 301.816C414.605 300.256 414.326 298.864 413.386 297.64C412.445 296.417 410.831 295.524 408.542 294.962C406.54 294.471 404.916 294.403 403.67 294.759C402.451 295.121 401.583 295.735 401.067 296.601L394.943 295.098C395.803 292.828 397.469 291.21 399.939 290.245C402.436 289.286 405.712 289.304 409.769 290.3C414.008 291.341 416.983 293.036 418.695 295.386C420.439 297.717 420.931 300.43 420.172 303.525L419.137 307.738C419.01 308.258 419.034 308.664 419.211 308.955C419.387 309.247 419.71 309.45 420.178 309.565C420.568 309.66 420.945 309.698 421.308 309.677L420.131 314.475C419.124 314.531 418.179 314.451 417.295 314.234C415.734 313.851 414.624 313.206 413.964 312.299C413.311 311.367 413.125 310.329 413.406 309.184L413.444 309.028L412.781 308.866L412.752 308.983C412.592 309.633 412.062 310.164 411.161 310.577C410.266 310.964 408.991 311.161 407.335 311.168C405.705 311.182 403.758 310.911 401.496 310.356ZM404.822 306.746C407.657 307.442 410.362 307.541 412.939 307.043L413.207 305.951C412.08 305.15 410.95 304.473 409.817 303.919C408.711 303.372 407.391 302.91 405.856 302.533C403.88 302.048 402.47 301.895 401.626 302.074C400.809 302.259 400.317 302.69 400.151 303.366C399.985 304.043 400.221 304.652 400.86 305.195C401.499 305.738 402.82 306.255 404.822 306.746ZM424.218 315.933C422.866 315.601 421.831 315.154 421.115 314.592L422.388 309.404C422.838 309.707 423.335 309.926 423.881 310.06C424.87 310.303 425.662 310.221 426.257 309.816C426.886 309.391 427.392 308.675 427.778 307.667L432.016 296.299L453.198 301.499L448.333 321.315L442.209 319.812L445.8 305.183L436.048 302.789L433.148 310.557C432.307 312.859 431.129 314.459 429.613 315.355C428.123 316.258 426.325 316.45 424.218 315.933ZM466.245 326.25C463.28 325.522 460.869 324.448 459.012 323.027C457.161 321.58 455.894 319.945 455.211 318.123C454.56 316.281 454.474 314.385 454.953 312.435C455.432 310.484 456.383 308.857 457.806 307.552C459.262 306.227 461.142 305.365 463.446 304.965C465.756 304.54 468.393 304.691 471.358 305.419C474.297 306.14 476.691 307.224 478.542 308.671C480.399 310.092 481.653 311.723 482.304 313.565C482.987 315.387 483.089 317.274 482.611 319.224C482.132 321.174 481.165 322.812 479.709 324.137C478.286 325.442 476.419 326.307 474.109 326.732C471.805 327.132 469.183 326.971 466.245 326.25ZM467.432 321.413C469.903 322.019 471.929 321.965 473.51 321.25C475.098 320.51 476.09 319.333 476.486 317.721C476.876 316.134 476.535 314.658 475.464 313.292C474.399 311.9 472.632 310.901 470.161 310.295C467.691 309.688 465.648 309.752 464.034 310.487C462.452 311.201 461.467 312.352 461.077 313.938C460.682 315.551 461.016 317.053 462.081 318.445C463.178 319.817 464.961 320.806 467.432 321.413ZM506.798 324.996C508.332 325.373 509.446 326.115 510.139 327.222C510.859 328.336 511.046 329.596 510.701 331C510.292 332.664 509.388 333.821 507.988 334.47C506.614 335.125 504.744 335.163 502.377 334.582L484.355 330.158L489.219 310.341L506.812 314.66C508.997 315.196 510.54 316.043 511.441 317.202C512.368 318.367 512.66 319.652 512.315 321.056C512.002 322.33 511.344 323.272 510.339 323.88C509.361 324.495 508.248 324.649 507 324.342L506.922 324.323L506.759 324.986L506.798 324.996ZM494.095 316.087L493.176 319.832L503.24 322.303C503.891 322.462 504.439 322.418 504.886 322.169C505.366 321.901 505.673 321.494 505.807 320.947C505.941 320.401 505.854 319.911 505.547 319.478C505.272 319.024 504.81 318.718 504.16 318.558L494.095 316.087ZM501.899 329.956C502.68 330.148 503.306 330.122 503.779 329.88C504.285 329.618 504.614 329.175 504.767 328.551C504.914 327.953 504.821 327.433 504.488 326.993C504.187 326.533 503.647 326.208 502.867 326.016L492.295 323.421L491.328 327.361L501.899 329.956ZM521.228 339.747C518.082 338.974 515.898 337.873 514.677 336.443C513.489 334.993 513.122 333.345 513.575 331.499C514.022 329.678 515.104 328.414 516.822 327.705C518.566 327.002 521.012 327.038 524.159 327.81C526.421 328.365 528.243 329.033 529.623 329.813C531.009 330.567 532.335 331.513 533.6 332.651L533.954 331.207C534.337 329.647 534.058 328.255 533.118 327.031C532.178 325.808 530.563 324.915 528.275 324.353C526.272 323.862 524.648 323.794 523.403 324.15C522.183 324.513 521.315 325.127 520.8 325.993L514.675 324.489C515.536 322.219 517.201 320.601 519.672 319.636C522.168 318.677 525.445 318.696 529.502 319.691C533.741 320.732 536.716 322.427 538.428 324.778C540.172 327.108 540.664 329.821 539.904 332.916L538.87 337.129C538.742 337.649 538.767 338.055 538.943 338.346C539.12 338.638 539.442 338.841 539.91 338.956C540.3 339.052 540.677 339.089 541.041 339.068L539.863 343.866C538.857 343.922 537.911 343.842 537.027 343.625C535.467 343.242 534.357 342.597 533.697 341.691C533.043 340.758 532.857 339.72 533.138 338.576L533.176 338.42L532.513 338.257L532.484 338.374C532.325 339.024 531.795 339.556 530.894 339.969C529.999 340.356 528.724 340.553 527.067 340.56C525.437 340.573 523.491 340.302 521.228 339.747ZM524.555 336.138C527.389 336.834 530.095 336.932 532.671 336.434L532.939 335.342C531.812 334.542 530.682 333.864 529.55 333.311C528.444 332.763 527.123 332.301 525.589 331.925C523.612 331.44 522.202 331.286 521.359 331.465C520.541 331.651 520.049 332.082 519.883 332.758C519.717 333.434 519.954 334.043 520.593 334.586C521.231 335.129 522.552 335.646 524.555 336.138ZM553.904 347.23L547.78 345.727L551.37 331.098L542.671 328.963L543.945 323.775L567.468 329.549L566.194 334.737L557.495 332.602L553.904 347.23ZM583.454 339.264C586.315 339.966 588.304 341.13 589.422 342.755C590.572 344.361 590.869 346.295 590.313 348.558C589.758 350.82 588.596 352.41 586.827 353.327C585.09 354.224 582.791 354.321 579.93 353.619L565.497 350.076L570.362 330.259L576.525 331.772L575.184 337.234L583.454 339.264ZM580.31 348.873C581.35 349.128 582.201 349.089 582.862 348.755C583.529 348.395 583.958 347.825 584.15 347.045C584.348 346.238 584.231 345.534 583.8 344.932C583.375 344.304 582.643 343.862 581.602 343.607L573.684 341.663L572.391 346.929L580.31 348.873ZM623.902 353.742C625.436 354.119 626.55 354.861 627.243 355.968C627.962 357.082 628.15 358.342 627.805 359.746C627.396 361.41 626.492 362.567 625.092 363.216C623.718 363.871 621.848 363.909 619.481 363.328L601.459 358.904L606.323 339.087L623.916 343.406C626.101 343.942 627.644 344.789 628.545 345.948C629.472 347.113 629.763 348.398 629.419 349.802C629.106 351.076 628.447 352.018 627.443 352.626C626.465 353.241 625.352 353.395 624.104 353.088L624.026 353.069L623.863 353.732L623.902 353.742ZM611.199 344.833L610.28 348.578L620.344 351.049C620.995 351.208 621.543 351.164 621.99 350.915C622.47 350.647 622.776 350.24 622.911 349.694C623.045 349.147 622.958 348.657 622.651 348.224C622.376 347.77 621.914 347.464 621.264 347.304L611.199 344.833ZM619.003 358.702C619.784 358.894 620.41 358.868 620.883 358.626C621.389 358.364 621.718 357.921 621.871 357.297C622.018 356.699 621.925 356.179 621.592 355.739C621.291 355.279 620.751 354.954 619.971 354.762L609.399 352.167L608.432 356.107L619.003 358.702Z" fill="#9D0000"/>
<path d="M32.8645 48.4655L20.252 107.855L73.8462 93.262L32.8645 48.4655Z" fill="#9D0000"/>
<path d="M144.531 342.898L124.967 333.48L150.198 281.069L217.746 313.587L192.514 365.997L172.951 356.579L190.25 320.643L161.831 306.962L144.531 342.898Z" fill="black"/>
<path d="M270.655 421.154C270.072 422.806 269.32 424.48 268.398 426.175L212.254 406.359C212.44 409.494 213.798 412.398 216.33 415.068C218.861 417.739 222.605 419.95 227.562 421.699C232.448 423.423 236.312 424.262 239.156 424.216C242.072 424.195 244.574 423.745 246.662 422.866L266.383 429.826C264.215 432.535 261.174 434.855 257.261 436.786C253.347 438.717 248.401 439.799 242.421 440.032C236.467 440.192 229.682 438.929 222.066 436.241C214.02 433.401 207.58 429.674 202.745 425.059C197.982 420.469 194.889 415.499 193.465 410.149C192.138 404.753 192.425 399.36 194.327 393.972C196.229 388.584 199.39 384.206 203.81 380.838C208.302 377.495 213.866 375.58 220.501 375.094C227.161 374.537 234.55 375.69 242.668 378.556C250.787 381.421 257.263 385.161 262.098 389.776C266.957 394.319 270.074 399.337 271.448 404.831C272.846 410.253 272.582 415.694 270.655 421.154ZM237.534 393.104C232.577 391.354 228.275 390.724 224.628 391.215C220.98 391.705 218.088 393.148 215.949 395.544L252.912 408.59C252.752 405.382 251.406 402.443 248.874 399.772C246.343 397.102 242.563 394.879 237.534 393.104Z" fill="black"/>
<path d="M293.478 455.921L312.126 357.29L338.898 362.351L331.523 380.513L334.2 381.019C341.32 368.063 354.226 363.352 372.919 366.887C380.716 368.361 387.271 371.254 392.585 375.567C397.917 379.786 401.638 385.062 403.748 391.396C405.859 397.73 406.212 404.607 404.809 412.028C403.406 419.449 400.519 425.713 396.148 430.822C391.871 435.948 386.472 439.548 379.95 441.623C373.54 443.622 366.437 443.884 358.64 442.41C339.947 438.876 329.652 429.778 327.753 415.117L325.076 414.611C325.836 424.484 325.471 433.366 323.979 441.256L320.249 460.983L293.478 455.921ZM352.042 419.418C359.369 420.803 365.307 420.272 369.856 417.824C374.405 415.376 377.132 411.757 378.038 406.966C378.962 402.082 377.753 397.669 374.411 393.73C371.07 389.79 365.736 387.127 358.409 385.742C351.27 384.392 345.426 384.941 340.877 387.389C336.328 389.837 333.591 393.503 332.668 398.388C331.762 403.179 332.98 407.544 336.321 411.483C339.663 415.423 344.903 418.068 352.042 419.418Z" fill="black"/>
<path d="M437.957 495.769C437.48 497.455 436.835 499.173 436.022 500.922L378.737 484.698C379.121 487.816 380.66 490.627 383.355 493.132C386.051 495.638 389.927 497.607 394.985 499.039C399.97 500.451 403.88 501.044 406.715 500.817C409.624 500.612 412.092 500.004 414.12 498.995L434.242 504.694C432.249 507.534 429.362 510.042 425.578 512.217C421.795 514.392 416.927 515.785 410.974 516.395C405.041 516.932 398.19 516.1 390.42 513.9C382.21 511.574 375.547 508.262 370.43 503.962C365.387 499.683 361.985 494.919 360.225 489.67C358.559 484.368 358.505 478.968 360.062 473.47C361.619 467.973 364.497 463.403 368.695 459.762C372.967 456.142 378.399 453.879 384.989 452.975C391.601 451.997 399.048 452.681 407.332 455.027C415.615 457.373 422.315 460.695 427.432 464.995C432.569 469.222 435.997 474.033 437.715 479.429C439.454 484.751 439.535 490.198 437.957 495.769ZM403.128 469.87C398.07 468.438 393.736 468.082 390.128 468.802C386.519 469.521 383.723 471.145 381.741 473.671L419.455 484.353C419.092 481.162 417.562 478.314 414.867 475.808C412.172 473.303 408.259 471.324 403.128 469.87Z" fill="black"/>
<path d="M461.069 433.93C452 429.564 446.089 425.451 443.335 421.593C440.66 417.707 440.21 413.918 441.987 410.227C443.586 406.906 446.043 404.906 449.357 404.228C452.723 403.576 456.232 403.706 459.884 404.62C463.561 405.481 468.044 406.827 473.333 408.659C477.516 410.088 480.579 411.01 482.522 411.426C484.517 411.867 485.756 411.587 486.239 410.585C486.721 409.583 486.377 408.476 485.207 407.264C484.116 406.024 481.514 404.414 477.401 402.434C470.652 399.185 466.449 399.077 464.794 402.112L449.45 394.726C452.098 389.765 456.338 387.163 462.171 386.919C468.082 386.647 474.94 388.389 482.743 392.146C491.76 396.487 497.712 400.716 500.6 404.834C503.489 408.953 504.019 412.91 502.192 416.706C500.719 419.765 498.378 421.592 495.168 422.19C491.957 422.788 488.526 422.63 484.874 421.716C481.275 420.828 476.95 419.492 471.898 417.71C467.373 416.181 464.074 415.21 462 414.796C460.004 414.355 458.74 414.688 458.207 415.795C457.851 416.533 457.809 417.227 458.081 417.878C458.405 418.553 459.242 419.378 460.591 420.353C461.941 421.327 464.092 422.525 467.044 423.946C474.743 427.652 479.366 427.897 480.914 424.681L481.067 424.365L496.41 431.751L496.258 432.067C494.938 434.809 492.77 436.883 489.755 438.289C486.818 439.668 482.925 440.067 478.074 439.485C473.276 438.929 467.608 437.077 461.069 433.93Z" fill="black"/>
<path d="M524.424 500.547C515.762 497.622 509.886 493.949 506.795 489.529C503.704 485.108 503.024 480.335 504.754 475.21C506.46 470.157 509.87 466.846 514.984 465.275C520.122 463.633 527.021 464.274 535.683 467.198C541.602 469.197 546.268 471.335 549.68 473.613C553.189 475.843 556.576 478.554 559.84 481.747L560.9 478.607C562.094 475.07 561.625 471.695 559.494 468.483C557.458 465.222 553.734 462.678 548.32 460.85C543.628 459.266 539.788 458.734 536.798 459.252C533.833 459.698 531.6 460.834 530.099 462.659L509.527 455.714C512.539 449.413 517.771 445.229 525.224 443.162C532.701 441.023 542.178 441.89 553.655 445.765C565.709 449.835 573.951 455.432 578.381 462.557C582.882 469.705 583.683 477.574 580.783 486.164L577.603 495.584C577.164 496.883 577.1 497.907 577.41 498.655C577.817 499.355 578.598 499.9 579.753 500.29C580.763 500.631 581.714 500.792 582.606 500.771L577.196 516.796C574.208 516.832 571.235 516.351 568.275 515.352C563.511 513.743 560.207 511.502 558.363 508.628C556.591 505.778 556.266 502.693 557.387 499.373L557.46 499.156L555.511 498.498L555.401 498.823C554.792 500.628 553.269 502.043 550.831 503.07C548.394 504.096 544.936 504.456 540.456 504.15C536.048 503.868 530.704 502.667 524.424 500.547ZM536.898 489.681C543.466 491.899 549.871 492.935 556.111 492.791L556.989 490.192C551.655 486.22 545.921 483.199 539.786 481.127C535.021 479.519 531.651 478.783 529.675 478.92C527.771 479.081 526.576 479.884 526.088 481.327C525.625 482.699 526.102 484.026 527.519 485.308C529.007 486.615 532.134 488.072 536.898 489.681Z" fill="black"/>
<path d="M605.395 554.25L619.727 468.145L643.098 472.036L637.033 487.966L639.371 488.355C645.313 476.955 656.444 472.614 672.763 475.33C679.569 476.463 685.324 478.853 690.026 482.501C694.742 486.067 698.077 490.584 700.033 496.05C701.988 501.516 702.427 507.489 701.349 513.967C700.27 520.445 697.88 525.947 694.177 530.471C690.556 535.009 685.931 538.243 680.3 540.171C674.766 542.031 668.595 542.394 661.789 541.261C645.47 538.545 636.346 530.832 634.416 518.122L632.079 517.733C632.928 526.302 632.779 534.031 631.633 540.919L628.766 558.14L605.395 554.25ZM655.614 521.398C662.01 522.462 667.163 521.887 671.071 519.672C674.979 517.458 677.281 514.259 677.977 510.077C678.687 505.813 677.552 502 674.572 498.638C671.592 495.277 666.904 493.064 660.507 491.999C654.275 490.962 649.205 491.551 645.296 493.765C641.388 495.98 639.079 499.22 638.369 503.484C637.673 507.666 638.815 511.438 641.795 514.8C644.775 518.161 649.382 520.36 655.614 521.398Z" fill="black"/>
</svg>
