<svg width="1370" height="307" viewBox="0 0 1370 307" fill="none" xmlns="http://www.w3.org/2000/svg">
<path d="M49.1403 82.9484L60.3394 80.743L46.7899 125.986C45.0103 131.992 42.7638 136.447 40.0503 139.351C37.3887 142.245 33.7507 144.146 29.1362 145.055C27.7363 145.33 26.4716 145.472 25.3419 145.479C24.2225 145.538 22.9947 145.456 21.6584 145.235L20.081 137.224C22.2043 137.614 24.303 137.605 26.3769 137.196C29.1767 136.645 31.3248 135.656 32.8214 134.231C34.318 132.805 35.5628 130.648 36.5559 127.759L36.8069 126.983L7.76577 91.096L18.9649 88.8907L36.7569 112.37C38.5007 114.935 39.5513 117.125 39.9087 118.939L39.9393 119.095L41.1059 118.865L41.0752 118.71C40.6873 116.739 40.8032 114.32 41.4232 111.451L49.1403 82.9484Z" fill="white"/>
<path d="M173.639 116.163L178.598 101.44L187.838 104.552L175.035 142.562L165.796 139.449L171.033 123.9L141.136 113.83L135.898 129.379L126.659 126.267L139.462 88.2572L148.701 91.3694L143.742 106.093L173.639 116.163Z" fill="white"/>
<path d="M232.558 152.01C226.171 152.3 221.424 151.432 218.316 149.404C215.209 147.377 213.571 144.515 213.403 140.82C213.235 137.125 214.606 134.127 217.517 131.826C220.427 129.524 225.076 128.229 231.464 127.938C236.321 127.717 240.38 128.009 243.644 128.813C246.905 129.564 250.106 130.741 253.247 132.343L253.088 128.859C252.92 125.164 251.441 122.296 248.65 120.254C245.857 118.159 241.848 117.23 236.622 117.468C231.871 117.684 228.238 118.643 225.723 120.344C223.259 121.99 221.788 123.961 221.31 126.257L211.571 126.7C211.943 122.081 214.173 118.198 218.262 115.049C222.348 111.848 228.377 110.067 236.348 109.704C244.794 109.32 251.238 110.852 255.68 114.3C260.119 117.696 262.48 122.508 262.763 128.737L263.231 139.031C263.337 141.353 264.445 142.467 266.557 142.371C267.401 142.332 268.215 142.19 268.997 141.942L269.346 149.623C267.943 150.163 266.37 150.473 264.628 150.552C261.724 150.684 259.45 150.1 257.803 148.799C256.21 147.496 255.361 145.683 255.255 143.361L255.237 142.965L254.049 143.019L254.053 143.098C254.111 144.365 253.322 145.644 251.688 146.935C250.054 148.226 247.592 149.343 244.303 150.286C241.013 151.229 237.098 151.804 232.558 152.01ZM235.726 144.883C242.535 144.574 248.487 142.848 253.581 139.707L253.466 137.174C250.611 136.034 247.795 135.183 245.019 134.622C242.243 134.06 238.98 133.865 235.232 134.035C230.64 134.244 227.468 134.864 225.716 135.896C223.964 136.928 223.127 138.289 223.204 139.978C223.283 141.72 224.242 143.025 226.08 143.894C227.918 144.762 231.133 145.092 235.726 144.883Z" fill="white"/>
<path d="M323.259 145.757C317.797 144.293 313.34 142.142 309.889 139.302C306.488 136.476 304.177 133.258 302.956 129.649C301.786 126.053 301.714 122.341 302.74 118.513C303.766 114.684 305.684 111.506 308.495 108.976C311.371 106.41 314.988 104.753 319.346 104.006C323.755 103.273 328.691 103.638 334.152 105.101C339.103 106.428 343.244 108.33 346.573 110.809C349.954 113.301 352.367 116.136 353.813 119.314C355.311 122.505 355.845 125.821 355.415 129.262L345.921 126.718C346.084 123.863 345.009 121.14 342.694 118.55C340.379 115.96 336.848 114.03 332.101 112.758C328.63 111.828 325.493 111.589 322.691 112.042C319.889 112.494 317.59 113.52 315.795 115.117C313.999 116.715 312.786 118.688 312.157 121.036C311.528 123.384 311.592 125.699 312.348 127.98C313.104 130.262 314.583 132.299 316.783 134.092C318.983 135.885 321.819 137.247 325.29 138.177C330.037 139.449 334.06 139.542 337.36 138.457C340.659 137.372 342.952 135.552 344.239 132.997L353.733 135.541C352.384 138.735 350.264 141.34 347.372 143.355C344.544 145.333 341.043 146.556 336.869 147.024C332.747 147.506 328.21 147.083 323.259 145.757Z" fill="white"/>
<path d="M507.399 179.863C499.299 175.187 494.296 169.796 492.389 163.692C490.483 157.588 491.59 150.966 495.712 143.827C500.045 136.322 505.45 131.876 511.925 130.489C518.446 129.128 526.146 131.011 535.024 136.137C539.006 138.435 542.073 139.993 544.226 140.808C546.405 141.578 548.013 141.805 549.05 141.489C550.087 141.172 550.962 140.396 551.676 139.16L560.188 144.075C558.417 147.141 556.53 149.194 554.527 150.234C552.523 151.274 549.832 151.337 546.454 150.424C543.148 149.492 538.635 147.374 532.914 144.071C525.592 139.844 519.639 138.054 515.054 138.702C510.47 139.35 506.751 142.146 503.897 147.088L503.461 147.843L504.285 148.319C509.795 142.897 517.79 143.211 528.27 149.261C532.755 151.851 536.134 154.717 538.408 157.86C540.754 160.984 541.995 164.172 542.131 167.423C542.313 170.701 541.532 173.851 539.788 176.871C536.908 181.859 532.724 184.721 527.234 185.457C521.745 186.193 515.133 184.328 507.399 179.863ZM510.94 172.938C515.974 175.844 520.206 177.128 523.635 176.789C527.137 176.431 529.707 174.834 531.345 171.996C532.957 169.205 533.016 166.249 531.522 163.129C530.1 159.989 526.873 156.967 521.839 154.06C516.759 151.127 512.504 149.83 509.075 150.169C505.672 150.462 503.164 152.004 501.553 154.796C499.914 157.633 499.793 160.644 501.188 163.829C502.609 166.969 505.86 170.005 510.94 172.938Z" fill="white"/>
<path d="M609.127 185.679L619.019 191.375L579.079 216.58C573.792 219.939 569.171 221.821 565.218 222.228C561.31 222.661 557.318 221.704 553.242 219.357C552.006 218.645 550.959 217.921 550.103 217.184C549.221 216.493 548.348 215.625 547.487 214.58L551.56 207.504C552.905 209.193 554.493 210.565 556.325 211.62C558.798 213.044 561.067 213.71 563.132 213.618C565.197 213.527 567.553 212.718 570.199 211.193L570.898 210.773L572.583 164.638L582.475 170.333L580.461 199.724C580.091 202.803 579.444 205.144 578.521 206.747L578.442 206.884L579.473 207.477L579.552 207.34C580.554 205.6 582.231 203.852 584.583 202.097L609.127 185.679Z" fill="white"/>
<path d="M668.333 234.44C659.86 232.169 653.926 228.692 650.531 224.007C647.136 219.323 646.225 214.046 647.798 208.176C648.769 204.552 650.524 201.575 653.063 199.247C655.615 196.867 658.839 195.351 662.734 194.699C666.642 193.995 671.072 194.307 676.024 195.634C682.098 197.261 686.513 199.566 689.27 202.548C692.092 205.492 693.525 208.721 693.568 212.234L694.487 212.48L694.795 211.331C696.422 205.257 695.678 199.97 692.562 195.47C689.459 190.918 683.927 187.576 675.964 185.442C668.206 183.363 661.288 182.741 655.211 183.574L657.303 175.765C662.972 174.822 669.941 175.458 678.21 177.674C688.623 180.464 695.907 185.233 700.061 191.981C704.267 198.743 705.098 206.871 702.555 216.365C701.201 221.418 699.094 225.504 696.234 228.622C693.214 232.134 689.35 234.409 684.641 235.445C679.945 236.43 674.51 236.095 668.333 234.44ZM670.824 226.983C676.388 228.474 680.867 228.498 684.263 227.055C687.709 225.626 689.884 223.227 690.786 219.859C691.716 216.388 691.039 213.197 688.755 210.288C686.523 207.392 682.624 205.198 677.061 203.707C671.599 202.244 667.145 202.227 663.698 203.656C660.266 205.034 658.091 207.432 657.175 210.852C656.272 214.221 656.956 217.386 659.226 220.347C661.496 223.307 665.362 225.519 670.824 226.983Z" fill="white"/>
<path d="M777.161 255.617C776.778 256.37 776.252 257.289 775.583 258.371L735.871 238.187C735.094 241.348 735.617 244.46 737.44 247.52C739.263 250.581 742.413 253.249 746.888 255.523C753.86 259.067 759.741 259.626 764.53 257.199L773.08 261.545C771.321 263.141 769.044 264.414 766.249 265.364C763.525 266.291 760.191 266.553 756.247 266.149C752.374 265.721 748.082 264.311 743.372 261.916C738.284 259.33 734.345 256.291 731.556 252.799C728.767 249.306 727.148 245.668 726.701 241.884C726.3 238.124 726.998 234.477 728.794 230.944C730.589 227.411 733.148 224.71 736.469 222.841C739.814 220.925 743.719 220.065 748.184 220.26C752.649 220.455 757.449 221.857 762.584 224.467C767.719 227.077 771.681 230.128 774.47 233.62C777.259 237.113 778.842 240.763 779.219 244.57C779.643 248.401 778.957 252.084 777.161 255.617ZM759.244 231.038C754.722 228.74 750.675 227.78 747.104 228.158C743.533 228.536 740.699 230.03 738.602 232.639L770.046 248.622C770.918 245.39 770.455 242.22 768.656 239.112C766.856 236.004 763.719 233.313 759.244 231.038Z" fill="white"/>
<path d="M825.833 261.359L816.416 258.836L824.683 227.981L806.691 223.159L808.804 215.273L854.283 227.459L852.17 235.346L834.101 230.504L825.833 261.359Z" fill="white"/>
<path d="M998.967 201.883L1025.97 216.311L1013.88 219.552L988.724 205.612L993.894 224.906L984.782 227.348L979.592 207.977L964.723 232.723L952.702 235.944L968.877 209.945L943.087 196.997L954.878 193.838L979.202 206.522L974.402 188.606L983.513 186.165L988.293 204.004L1002.96 180.954L1014.83 177.774L998.967 201.883Z" fill="white"/>
<path d="M1077.32 201.86C1071.2 203.73 1066.39 204.069 1062.87 202.878C1059.36 201.687 1057.06 199.323 1055.98 195.785C1054.9 192.248 1055.48 189.003 1057.73 186.05C1059.98 183.098 1064.16 180.687 1070.27 178.817C1074.92 177.395 1078.92 176.668 1082.29 176.635C1085.63 176.551 1089.02 176.895 1092.46 177.667L1091.44 174.332C1090.36 170.794 1088.22 168.384 1085.01 167.1C1081.78 165.765 1077.67 165.863 1072.66 167.393C1068.11 168.784 1064.83 170.616 1062.82 172.889C1060.84 175.096 1059.91 177.371 1060.02 179.714L1050.69 182.565C1049.91 177.998 1051.1 173.682 1054.28 169.616C1057.44 165.5 1062.84 162.275 1070.47 159.941C1078.55 157.469 1085.17 157.35 1090.33 159.586C1095.48 161.77 1098.96 165.844 1100.79 171.807L1103.8 181.661C1104.48 183.885 1105.83 184.687 1107.85 184.069C1108.66 183.822 1109.41 183.481 1110.11 183.047L1112.36 190.4C1111.13 191.272 1109.68 191.963 1108.02 192.473C1105.24 193.323 1102.89 193.323 1100.97 192.472C1099.1 191.607 1097.83 190.062 1097.15 187.839L1097.03 187.46L1095.9 187.807L1095.92 187.883C1096.29 189.096 1095.85 190.531 1094.58 192.187C1093.32 193.844 1091.22 195.538 1088.26 197.27C1085.31 199.001 1081.66 200.531 1077.32 201.86ZM1078.61 194.17C1085.13 192.177 1090.47 189.025 1094.62 184.716L1093.88 182.291C1090.83 181.897 1087.89 181.773 1085.06 181.92C1082.23 182.066 1079.03 182.688 1075.44 183.785C1071.04 185.13 1068.12 186.519 1066.68 187.954C1065.24 189.389 1064.77 190.915 1065.26 192.532C1065.77 194.2 1067.03 195.226 1069.02 195.61C1071.02 195.994 1074.22 195.514 1078.61 194.17Z" fill="white"/>
<path d="M1147.04 191.162L1119.3 143.11L1127.74 138.235L1132.03 148.668L1133.06 148.073C1132.28 144.19 1132.86 140.438 1134.8 136.818C1136.75 133.125 1140.18 129.866 1145.08 127.039C1149.15 124.687 1153.15 123.417 1157.06 123.229C1160.98 123.042 1164.55 123.881 1167.76 125.748C1171 127.543 1173.63 130.202 1175.66 133.726C1177.7 137.249 1178.7 140.883 1178.66 144.625C1178.64 148.296 1177.58 151.781 1175.45 155.081C1173.31 158.335 1170.19 161.138 1166.12 163.489C1161.18 166.343 1156.66 167.704 1152.55 167.571C1148.45 167.439 1144.91 166.065 1141.94 163.45L1140.91 164.044C1142.87 166.388 1144.47 168.423 1145.71 170.148C1147 171.846 1148.23 173.725 1149.42 175.785L1155.49 186.287L1147.04 191.162ZM1159.11 158.477C1163.73 155.808 1166.72 152.682 1168.06 149.097C1169.38 145.466 1169.08 141.981 1167.15 138.64C1165.22 135.299 1162.37 133.316 1158.59 132.691C1154.79 132.019 1150.57 133.018 1145.95 135.687C1141.28 138.382 1138.29 141.544 1136.97 145.175C1135.62 148.76 1135.91 152.222 1137.84 155.563C1139.77 158.904 1142.64 160.91 1146.44 161.581C1150.22 162.207 1154.44 161.172 1159.11 158.477Z" fill="white"/>
<path d="M1230.01 91.6244L1260.54 105.108L1247.22 108.678L1218.64 95.4113L1223.87 114.935L1214.45 117.459L1204.07 78.7171L1213.49 76.1937L1218.31 94.1863L1236.3 70.0801L1249.4 66.572L1230.01 91.6244Z" fill="white"/>
<path d="M1331.18 65.8582C1328.65 71.1485 1325.64 75.2767 1322.17 78.2431C1318.72 81.1617 1315.11 82.8895 1311.34 83.4265C1307.57 83.9634 1303.89 83.376 1300.32 81.6642C1296.75 79.9524 1293.98 77.4585 1292.04 74.1827C1290.04 70.884 1289.1 66.9765 1289.22 62.4601C1289.35 57.8961 1290.68 52.969 1293.22 47.6787C1295.75 42.3885 1298.74 38.284 1302.19 35.3653C1305.66 32.399 1309.31 30.6588 1313.13 30.1447C1316.9 29.6077 1320.57 30.1952 1324.15 31.907C1327.72 33.6188 1330.48 36.1126 1332.43 39.3885C1334.38 42.6643 1335.28 46.5843 1335.15 51.1483C1335.04 55.6646 1333.71 60.5679 1331.18 65.8582ZM1324.1 62.4688C1325.74 59.0373 1326.62 55.8551 1326.74 52.9223C1326.86 49.9895 1326.32 47.5051 1325.12 45.4691C1323.91 43.3626 1322.18 41.773 1319.94 40.7003C1317.7 39.6275 1315.4 39.2885 1313.04 39.6832C1310.66 40.0074 1308.36 41.1337 1306.15 43.0623C1303.94 44.9908 1302.01 47.6708 1300.37 51.1024C1298.72 54.5339 1297.84 57.716 1297.73 60.6488C1297.61 63.5816 1298.16 66.1013 1299.38 68.2078C1300.57 70.2438 1302.29 71.7981 1304.53 72.8709C1306.77 73.9436 1309.08 74.3179 1311.46 73.9937C1313.82 73.599 1316.11 72.4374 1318.32 70.5089C1320.53 68.5804 1322.46 65.9003 1324.1 62.4688Z" fill="white"/>
</svg>
