<svg width="384" height="493" viewBox="0 0 384 493" fill="none" xmlns="http://www.w3.org/2000/svg">
<path d="M64.7138 460.379L57.0796 466.444L32.1329 435.038L71.173 404.027L96.1197 435.433L88.4855 441.497L68.6169 416.484L44.8452 435.367L64.7138 460.379Z" fill="white"/>
<path d="M155.521 349.374C159.962 345.874 164.071 344.216 167.85 344.4C171.628 344.585 174.908 346.441 177.688 349.969C180.435 353.455 181.457 357.057 180.753 360.774C180.05 364.491 177.477 368.099 173.036 371.599L150.5 389.36L125.674 357.858L133.331 351.824L140.642 361.1L155.521 349.374ZM167.766 366.064C169.8 364.461 170.996 362.778 171.356 361.015C171.682 359.21 171.241 357.539 170.03 356.004C168.788 354.426 167.267 353.607 165.468 353.544C163.637 353.44 161.704 354.189 159.67 355.792L144.978 367.371L153.074 377.643L167.766 366.064Z" fill="white"/>
<path d="M246.545 266.8L281.279 286.854L276.405 295.298L265.009 288.719L257.004 302.585C256 304.324 255.468 305.878 255.41 307.248C255.351 308.618 255.85 309.973 256.906 311.315L262.85 318.774L256.866 329.14L252.244 322.719C250.537 320.391 249.566 318.427 249.33 316.826C249.076 315.154 249.487 313.226 250.566 311.041L249.605 310.486C247.783 313.218 245.469 314.902 242.66 315.538C239.852 316.175 237.098 315.713 234.398 314.155C230.829 312.094 228.75 309.246 228.164 305.613C227.577 301.979 228.723 297.668 231.603 292.679L246.545 266.8ZM259.658 284.988L248.469 278.528L238.402 295.964C237.107 298.206 236.62 300.213 236.94 301.984C237.26 303.756 238.289 305.143 240.028 306.147C241.721 307.125 243.415 307.309 245.109 306.701C246.802 306.092 248.297 304.667 249.591 302.424L259.658 284.988Z" fill="white"/>
<path d="M281.194 171.243L265.684 170.34L266.251 160.607L306.291 162.939L305.724 172.672L289.344 171.718L287.51 203.212L303.89 204.166L303.323 213.899L263.283 211.567L263.85 201.834L279.359 202.737L281.194 171.243Z" fill="white"/>
<path d="M342.163 82.2201C338.016 86.3677 333.812 89.2636 329.552 90.9077C325.33 92.5144 321.351 92.9441 317.614 92.1968C313.877 91.4495 310.608 89.6746 307.805 86.8722C305.003 84.0697 303.228 80.8002 302.481 77.0636C301.696 73.2896 302.107 69.2915 303.714 65.0691C305.358 60.8094 308.254 56.6057 312.401 52.4581C316.549 48.3105 320.734 45.4333 324.956 43.8266C329.216 42.1825 333.233 41.7528 337.007 42.5375C340.743 43.2848 344.013 45.0597 346.815 47.8621C349.618 50.6645 351.393 53.9341 352.14 57.6707C352.887 61.4073 352.439 65.4054 350.795 69.6651C349.188 73.8875 346.311 78.0725 342.163 82.2201ZM336.615 76.6713C339.305 73.9809 341.192 71.2719 342.275 68.5442C343.359 65.8165 343.677 63.2942 343.228 60.9776C342.78 58.5861 341.678 56.5123 339.921 54.7561C338.165 52.9999 336.11 51.9163 333.756 51.5053C331.402 51.0195 328.861 51.3185 326.133 52.4021C323.406 53.4857 320.697 55.3727 318.006 58.063C315.316 60.7534 313.429 63.4624 312.345 66.1901C311.262 68.9178 310.944 71.4774 311.392 73.8688C311.841 76.1855 312.943 78.222 314.699 79.9782C316.456 81.7344 318.511 82.8553 320.865 83.3411C323.219 83.7521 325.76 83.4158 328.487 82.3322C331.215 81.2486 333.924 79.3616 336.615 76.6713Z" fill="white"/>
</svg>
