<svg width="1196" height="876" viewBox="0 0 1196 876" fill="none" xmlns="http://www.w3.org/2000/svg">
<path d="M772.173 574.966L777.184 564.71L805.042 602.848C808.751 607.895 810.943 612.377 811.617 616.294C812.314 620.164 811.63 624.211 809.566 628.437C808.939 629.719 808.287 630.812 807.61 631.716C806.981 632.644 806.174 633.573 805.19 634.503L797.854 630.919C799.448 629.463 800.709 627.785 801.637 625.886C802.89 623.322 803.4 621.013 803.169 618.959C802.937 616.905 801.971 614.61 800.27 612.073L799.803 611.404L753.66 612.854L758.671 602.598L788.13 602.613C791.228 602.773 793.607 603.26 795.269 604.072L795.412 604.141L795.934 603.073L795.791 603.004C793.987 602.122 792.129 600.567 790.218 598.34L772.173 574.966Z" fill="black"/>
<path d="M842.631 522.059C839.208 529.964 835.907 535.128 832.727 537.551C829.498 539.954 826.26 540.452 823.011 539.045C820.004 537.743 818.163 535.679 817.486 532.852C816.782 529.956 816.79 526.879 817.51 523.621C818.182 520.341 819.304 516.22 820.876 511.258C821.971 507.931 822.762 505.308 823.247 503.388C823.706 501.398 823.872 499.685 823.745 498.248C823.591 496.742 822.957 495.747 821.841 495.264C820.435 494.655 818.865 495.156 817.131 496.766C815.419 498.328 813.439 501.703 811.192 506.892C809.198 511.499 808.348 515.191 808.643 517.967C808.91 520.674 810.114 522.549 812.254 523.591L808.317 532.683C803.988 530.578 801.51 527.058 800.884 522.122C800.257 517.187 801.497 511.13 804.604 503.953C811.134 488.872 817.939 482.864 825.019 485.93C827.832 487.147 829.552 489.159 830.18 491.965C830.829 494.722 830.818 497.74 830.146 501.02C829.496 504.251 828.402 508.24 826.865 512.987C825.777 516.432 824.993 519.173 824.513 521.211C824.055 523.201 823.892 524.973 824.025 526.528C824.179 528.034 824.838 529.039 826.002 529.543C827.02 529.984 828.005 530.036 828.957 529.7C829.882 529.294 830.937 528.254 832.122 526.579C833.329 524.856 834.689 522.248 836.2 518.757C840.715 508.331 840.741 502.152 836.28 500.22L835.843 500.031L839.749 491.012L840.185 491.201C844.113 492.901 846.474 496.227 847.267 501.177C848.061 506.127 846.515 513.088 842.631 522.059Z" fill="black"/>
<path d="M924.472 387.273L886.326 346.98L893.406 340.277L899.996 349.429L900.86 348.611C899.201 345.015 898.894 341.231 899.937 337.26C900.982 333.214 903.558 329.247 907.664 325.36C911.08 322.127 914.671 319.964 918.439 318.871C922.207 317.778 925.871 317.766 929.43 318.835C932.991 319.83 936.17 321.805 938.968 324.76C941.765 327.714 943.581 331.016 944.416 334.665C945.252 338.239 945.022 341.877 943.724 345.58C942.39 349.244 940.016 352.692 936.6 355.926C932.456 359.849 928.373 362.223 924.35 363.048C920.328 363.872 916.567 363.358 913.066 361.505L912.203 362.322C914.658 364.147 916.688 365.753 918.295 367.143C919.94 368.496 921.58 370.037 923.215 371.763L931.552 380.57L924.472 387.273ZM928.615 352.679C932.491 349.01 934.668 345.276 935.146 341.476C935.587 337.638 934.482 334.318 931.83 331.517C929.178 328.715 925.942 327.449 922.122 327.719C918.265 327.949 914.399 329.899 910.523 333.569C906.609 337.274 904.431 341.046 903.99 344.884C903.512 348.684 904.599 351.984 907.251 354.786C909.903 357.587 913.157 358.872 917.014 358.641C920.834 358.372 924.701 356.385 928.615 352.679Z" fill="black"/>
<path d="M1039.06 285.652L1034.19 270.897L1043.45 267.845L1056.01 305.937L1046.75 308.989L1041.61 293.406L1011.65 303.283L1016.79 318.866L1007.53 321.919L994.973 283.827L1004.23 280.775L1009.1 295.53L1039.06 285.652Z" fill="black"/>
<path d="M1126.16 306.056C1120.32 305.456 1115.43 304.023 1111.46 301.756C1107.55 299.495 1104.71 296.679 1102.93 293.309C1101.15 289.939 1100.46 286.283 1100.87 282.34C1101.27 278.398 1102.69 274.957 1105.12 272.02C1107.55 269.029 1110.91 266.825 1115.2 265.406C1119.54 263.993 1124.63 263.587 1130.46 264.187C1136.3 264.786 1141.17 266.217 1145.08 268.478C1149.05 270.745 1151.91 273.589 1153.69 277.012C1155.47 280.382 1156.15 284.039 1155.75 287.981C1155.34 291.924 1153.93 295.364 1151.5 298.302C1149.07 301.239 1145.69 303.415 1141.35 304.828C1137.06 306.246 1131.99 306.656 1126.16 306.056ZM1126.96 298.25C1130.75 298.639 1134.04 298.393 1136.84 297.512C1139.64 296.631 1141.8 295.286 1143.31 293.476C1144.88 291.619 1145.79 289.455 1146.05 286.984C1146.3 284.514 1145.85 282.236 1144.68 280.15C1143.57 278.017 1141.73 276.235 1139.17 274.803C1136.61 273.371 1133.44 272.461 1129.65 272.072C1125.87 271.683 1122.58 271.928 1119.78 272.809C1116.98 273.69 1114.79 275.059 1113.22 276.916C1111.7 278.726 1110.82 280.866 1110.57 283.337C1110.31 285.808 1110.74 288.109 1111.85 290.242C1113.01 292.327 1114.88 294.086 1117.44 295.518C1120 296.95 1123.18 297.861 1126.96 298.25Z" fill="black"/>
<path d="M869.886 442.123C866.37 447.463 862.878 450.795 859.412 452.119C855.946 453.443 852.668 453.088 849.579 451.054C846.49 449.019 844.869 446.148 844.716 442.441C844.563 438.734 846.245 434.21 849.762 428.87C852.435 424.81 855.056 421.695 857.623 419.526C860.146 417.328 862.979 415.429 866.121 413.828L863.208 411.91C860.119 409.876 856.929 409.388 853.637 410.447C850.301 411.477 847.194 414.177 844.317 418.546C841.701 422.518 840.343 426.021 840.243 429.056C840.128 432.017 840.86 434.365 842.438 436.1L837.075 444.243C833.555 441.229 831.722 437.143 831.576 431.985C831.385 426.797 833.485 420.872 837.873 414.208C842.523 407.146 847.548 402.831 852.947 401.262C858.303 399.663 863.584 400.579 868.792 404.008L877.398 409.676C879.34 410.954 880.892 410.711 882.054 408.946C882.519 408.24 882.882 407.498 883.141 406.719L889.562 410.948C889.175 412.401 888.502 413.856 887.543 415.312C885.944 417.74 884.135 419.238 882.116 419.806C880.125 420.33 878.159 419.953 876.217 418.674L875.886 418.456L875.233 419.449L875.299 419.493C876.358 420.19 876.93 421.579 877.015 423.66C877.1 425.741 876.558 428.389 875.389 431.606C874.22 434.822 872.386 438.328 869.886 442.123ZM865.979 435.374C869.728 429.681 871.828 423.85 872.278 417.883L870.159 416.488C867.56 418.129 865.217 419.909 863.132 421.826C861.047 423.743 858.973 426.268 856.91 429.401C854.381 433.241 853.02 436.173 852.826 438.196C852.632 440.22 853.242 441.697 854.654 442.627C856.11 443.586 857.73 443.577 859.512 442.6C861.295 441.622 863.45 439.214 865.979 435.374Z" fill="black"/>
<path d="M56.1815 636.378L28.4609 607.391L35.278 600.872L50.6174 616.912C52.4436 618.822 53.882 620.517 54.9328 621.998C56.0218 623.443 57.1241 625.13 58.2396 627.061L59.0989 626.24L54.6408 582.355L65.6397 571.837L93.3603 600.823L86.6005 607.288L71.2611 591.248C69.3984 589.3 67.9226 587.604 66.8336 586.159C65.7463 584.64 64.6623 582.971 63.5816 581.153L62.7796 581.92L67.2377 625.805L56.1815 636.378Z" fill="black"/>
<path d="M195.832 482.48C190.09 483.679 184.987 483.8 180.523 482.843C176.11 481.875 172.545 480.056 169.828 477.384C167.11 474.713 165.347 471.437 164.536 467.558C163.726 463.678 164.031 459.97 165.452 456.435C166.862 452.847 169.396 449.727 173.053 447.074C176.761 444.41 181.486 442.478 187.228 441.279C192.969 440.08 198.047 439.964 202.46 440.932C206.924 441.889 210.52 443.729 213.249 446.453C215.966 449.124 217.73 452.4 218.54 456.279C219.35 460.159 219.045 463.867 217.624 467.402C216.203 470.938 213.638 474.038 209.93 476.702C206.273 479.355 201.574 481.281 195.832 482.48ZM194.228 474.799C197.952 474.021 201.015 472.787 203.415 471.098C205.816 469.41 207.463 467.473 208.356 465.289C209.29 463.043 209.504 460.704 208.996 458.272C208.488 455.841 207.362 453.809 205.618 452.176C203.914 450.481 201.624 449.339 198.748 448.752C195.873 448.165 192.573 448.261 188.848 449.038C185.124 449.816 182.061 451.05 179.661 452.738C177.26 454.427 175.593 456.395 174.659 458.642C173.765 460.826 173.572 463.133 174.08 465.564C174.588 467.996 175.693 470.059 177.397 471.755C179.142 473.388 181.452 474.498 184.328 475.085C187.203 475.672 190.504 475.576 194.228 474.799Z" fill="black"/>
<path d="M305.835 445.434L315.471 446.918L309.367 486.559L299.731 485.075L301.927 470.817C299.456 471.933 296.888 472.634 294.225 472.919C291.613 473.212 288.453 473.073 284.745 472.502C277.12 471.328 271.811 468.826 268.818 464.997C265.826 461.168 264.864 455.78 265.934 448.833L267.369 439.511L277.005 440.995L275.654 449.769C274.971 454.208 275.569 457.615 277.449 459.99C279.389 462.32 282.944 463.884 288.115 464.68C291.249 465.163 294.021 465.215 296.431 464.838C298.842 464.46 301.104 463.659 303.217 462.434L305.835 445.434Z" fill="black"/>
<path d="M414.978 496.116C414.688 496.91 414.277 497.885 413.743 499.04L371.893 483.774C371.502 487.006 372.395 490.031 374.572 492.851C376.75 495.67 380.197 497.94 384.913 499.661C392.26 502.341 398.166 502.189 402.629 499.205L411.64 502.491C410.085 504.287 407.977 505.824 405.317 507.104C402.724 508.352 399.446 509.012 395.482 509.085C391.585 509.126 387.155 508.241 382.191 506.43C376.829 504.474 372.554 501.93 369.365 498.798C366.177 495.666 364.133 492.249 363.234 488.546C362.384 484.861 362.638 481.157 363.997 477.434C365.355 473.71 367.57 470.722 370.642 468.467C373.733 466.163 377.506 464.84 381.963 464.497C386.419 464.154 391.353 464.969 396.764 466.943C402.175 468.917 406.475 471.47 409.664 474.602C412.852 477.734 414.862 481.167 415.694 484.902C416.575 488.654 416.336 492.392 414.978 496.116ZM394.238 473.868C389.472 472.13 385.339 471.663 381.839 472.468C378.34 473.272 375.706 475.096 373.937 477.938L407.075 490.026C407.552 486.713 406.711 483.622 404.551 480.753C402.392 477.884 398.954 475.589 394.238 473.868Z" fill="black"/>
<path d="M521.659 514.086L525.097 498.935L534.605 501.092L525.73 540.206L516.222 538.049L519.853 522.048L489.087 515.067L485.457 531.068L475.949 528.911L484.824 489.797L494.331 491.954L490.894 507.105L521.659 514.086Z" fill="black"/>
<path d="M623.358 543.826C628.604 545.936 632.088 548.675 633.808 552.044C635.529 555.413 635.552 559.181 633.876 563.349C632.219 567.467 629.604 570.146 626.03 571.385C622.456 572.625 618.046 572.19 612.8 570.08L586.178 559.374L601.143 522.162L610.189 525.8L605.782 536.758L623.358 543.826ZM614.977 562.754C617.38 563.72 619.435 563.92 621.144 563.354C622.872 562.739 624.101 561.525 624.83 559.711C625.579 557.848 625.534 556.121 624.693 554.529C623.871 552.889 622.26 551.586 619.857 550.62L602.502 543.64L597.622 555.774L614.977 562.754Z" fill="black"/>
</svg>
