<svg width="1048" height="259" viewBox="0 0 1048 259" fill="none" xmlns="http://www.w3.org/2000/svg">
<path d="M20.0589 155.043L39.531 119.979L47.7774 124.558L37.0023 143.962C35.7196 146.272 34.5265 148.148 33.4233 149.59C32.3662 151.058 31.0808 152.611 29.567 154.249L30.6064 154.826L71.1998 137.565L84.5048 144.954L65.0327 180.018L56.8556 175.477L67.6307 156.074C68.9391 153.718 70.1218 151.806 71.1789 150.338C72.3078 148.849 73.5804 147.32 74.9968 145.749L74.0266 145.21L33.4333 162.47L20.0589 155.043Z" fill="white"/>
<path d="M291.39 125.32C285.007 124.94 280.377 123.579 277.499 121.238C274.621 118.896 273.292 115.879 273.512 112.186C273.731 108.494 275.409 105.656 278.545 103.672C281.68 101.688 286.439 100.886 292.822 101.266C297.675 101.555 301.682 102.27 304.843 103.411C308.008 104.499 311.068 106.005 314.024 107.928L314.231 104.446C314.451 100.754 313.28 97.7461 310.718 95.4232C308.16 93.0476 304.27 91.7043 299.047 91.3934C294.3 91.1108 290.587 91.6838 287.908 93.1124C285.285 94.4914 283.616 96.2978 282.9 98.5315L273.168 97.9521C274.021 93.3974 276.646 89.7687 281.042 87.0659C285.441 84.3103 291.623 83.1697 299.588 83.6439C308.028 84.1463 314.276 86.3446 318.332 90.2387C322.392 94.0801 324.236 99.113 323.865 105.338L323.253 115.624C323.115 117.945 324.101 119.168 326.211 119.294C327.055 119.344 327.879 119.287 328.682 119.123L328.226 126.798C326.773 127.188 325.176 127.332 323.436 127.228C320.534 127.055 318.333 126.236 316.832 124.77C315.384 123.308 314.729 121.416 314.868 119.095L314.891 118.699L313.704 118.629L313.7 118.708C313.624 119.974 312.706 121.163 310.946 122.276C309.186 123.389 306.621 124.242 303.25 124.835C299.88 125.429 295.926 125.59 291.39 125.32ZM295.286 118.564C302.091 118.969 308.191 117.877 313.586 115.286L313.736 112.754C311.016 111.322 308.305 110.181 305.602 109.332C302.9 108.483 299.677 107.947 295.931 107.724C291.342 107.451 288.122 107.736 286.272 108.579C284.422 109.421 283.447 110.687 283.347 112.375C283.243 114.115 284.06 115.514 285.797 116.57C287.534 117.626 290.697 118.291 295.286 118.564Z" fill="white"/>
<path d="M350.603 151.629L362.119 113.21L376.621 117.557L382.488 142.982C382.975 145.775 383.044 147.754 382.695 148.919L382.627 149.146L383.766 149.488L383.834 149.26C384.122 148.298 385.268 146.683 387.272 144.415L406.233 126.432L420.659 130.756L409.144 169.176L400.184 166.49L407.125 143.332C408.233 139.637 409.604 136.352 411.238 133.477L410.099 133.135L386.288 155.705L377.1 152.952L369.629 121.005L368.566 120.687C368.243 124.341 367.581 127.839 366.58 131.18L359.639 154.338L350.603 151.629Z" fill="white"/>
<path d="M567.305 227.29L557.883 229.795L547.575 191.034L595.759 178.221L606.066 216.983L596.644 219.488L588.435 188.617L559.096 196.419L567.305 227.29Z" fill="white"/>
<path d="M667.888 192.836C663.231 196.402 658.684 198.721 654.245 199.791C649.848 200.828 645.846 200.731 642.241 199.499C638.635 198.267 635.627 196.078 633.217 192.932C630.807 189.785 629.477 186.311 629.228 182.508C628.946 178.664 629.879 174.755 632.026 170.78C634.216 166.773 637.639 162.987 642.296 159.42C646.953 155.854 651.48 153.552 655.877 152.514C660.316 151.444 664.354 151.546 667.992 152.82C671.598 154.052 674.606 156.241 677.016 159.387C679.426 162.534 680.755 166.008 681.005 169.811C681.255 173.613 680.285 177.518 678.095 181.524C675.947 185.499 672.545 189.269 667.888 192.836ZM663.117 186.606C666.137 184.292 668.364 181.855 669.797 179.293C671.23 176.732 671.876 174.273 671.736 171.918C671.606 169.488 670.786 167.287 669.276 165.315C667.765 163.344 665.87 161.999 663.591 161.282C661.321 160.492 658.763 160.454 655.916 161.17C653.07 161.885 650.136 163.4 647.116 165.713C644.095 168.027 641.869 170.464 640.436 173.026C639.003 175.587 638.352 178.083 638.482 180.513C638.622 182.868 639.447 185.032 640.957 187.004C642.467 188.975 644.357 190.357 646.627 191.148C648.907 191.865 651.47 191.865 654.316 191.15C657.163 190.434 660.096 188.919 663.117 186.606Z" fill="white"/>
<path d="M793.501 111.881C787.891 112.588 782.952 112.279 778.683 110.954C774.467 109.621 771.112 107.514 768.618 104.633C766.177 101.746 764.708 98.3356 764.212 94.4035C763.716 90.4714 764.292 86.8035 765.94 83.3999C767.634 79.9373 770.357 77.0372 774.11 74.6996C777.916 72.3554 782.623 70.8295 788.233 70.1219C793.319 69.4804 797.871 69.6785 801.89 70.7162C805.961 71.7472 809.267 73.4608 811.806 75.8568C814.398 78.2463 816.144 81.1152 817.046 84.4635L807.295 85.6935C806.367 82.9876 804.343 80.8728 801.221 79.3491C798.1 77.8254 794.101 77.3711 789.225 77.9861C785.66 78.4358 782.666 79.3994 780.242 80.8769C777.819 82.3543 776.077 84.1718 775.018 86.3294C773.959 88.487 773.581 90.7717 773.885 93.1834C774.189 95.5951 775.122 97.7144 776.684 99.5413C778.246 101.368 780.385 102.696 783.099 103.526C785.814 104.355 788.953 104.545 792.519 104.095C797.394 103.48 801.155 102.047 803.8 99.796C806.446 97.5449 807.882 94.9936 808.108 92.1422L817.86 90.9121C817.818 94.3795 816.838 97.5923 814.921 100.55C813.05 103.45 810.27 105.904 806.582 107.914C802.947 109.917 798.586 111.239 793.501 111.881Z" fill="white"/>
<path d="M892.043 77.9666C891.783 78.7713 891.408 79.7609 890.918 80.9354L848.523 67.2577C848.253 70.5024 849.26 73.4923 851.543 76.2276C853.825 78.9629 857.355 81.1012 862.133 82.6426C869.576 85.0439 875.471 84.6694 879.819 81.519L888.947 84.4638C887.461 86.3165 885.413 87.9322 882.802 89.3111C880.258 90.6559 877.007 91.4393 873.049 91.6614C869.157 91.8495 864.696 91.1322 859.667 89.5097C854.236 87.7575 849.868 85.3766 846.563 82.367C843.259 79.3575 841.088 76.0196 840.049 72.3531C839.062 68.7029 839.176 64.9918 840.393 61.22C841.61 57.4482 843.711 54.3781 846.696 52.0096C849.697 49.5908 853.418 48.126 857.858 47.6152C862.299 47.1043 867.26 47.7331 872.741 49.5017C878.223 51.2702 882.616 53.6592 885.921 56.6687C889.225 59.6782 891.363 63.0332 892.335 66.7338C893.357 70.4505 893.259 74.1948 892.043 77.9666ZM870.478 56.5173C865.65 54.9597 861.503 54.6488 858.036 55.5848C854.569 56.5207 852.006 58.4422 850.346 61.3494L883.915 72.1795C884.267 68.8506 883.31 65.7933 881.044 63.0077C878.778 60.2221 875.256 58.0586 870.478 56.5173Z" fill="white"/>
<path d="M924.735 142.005C915.529 140.352 908.994 136.977 905.131 131.881C901.267 126.785 900.064 120.18 901.52 112.067C903.052 103.537 906.628 97.5214 912.25 94.0207C917.923 90.5295 925.805 89.6895 935.895 91.501C940.42 92.3134 943.834 92.7383 946.136 92.7757C948.447 92.7611 950.037 92.4291 950.905 91.7796C951.773 91.1302 952.333 90.1033 952.585 88.699L962.26 90.4357C961.634 93.9205 960.555 96.4918 959.023 98.1494C957.49 99.8071 954.98 100.779 951.493 101.066C948.067 101.31 943.103 100.848 936.601 99.681C928.279 98.187 922.072 98.5222 917.979 100.687C913.886 102.851 911.335 106.742 910.327 112.359L910.172 113.217L911.109 113.385C914.454 106.416 922.082 104 933.992 106.138C939.09 107.053 943.24 108.604 946.445 110.79C949.711 112.933 951.96 115.511 953.19 118.524C954.473 121.546 954.807 124.774 954.19 128.206C953.173 133.876 950.206 137.987 945.292 140.541C940.377 143.095 933.525 143.583 924.735 142.005ZM925.717 134.289C931.439 135.316 935.855 135.089 938.967 133.607C942.139 132.083 944.015 129.708 944.594 126.484C945.164 123.311 944.217 120.51 941.754 118.082C939.352 115.61 935.29 113.861 929.569 112.834C923.796 111.797 919.353 112.02 916.242 113.501C913.14 114.931 911.304 117.232 910.734 120.405C910.155 123.63 911.062 126.504 913.455 129.027C915.856 131.498 919.944 133.252 925.717 134.289Z" fill="white"/>
<path d="M1030.99 102.954C1031.2 103.771 1031.43 104.805 1031.65 106.057L988.624 117.587C990.159 120.458 992.628 122.423 996.03 123.481C999.432 124.539 1003.56 124.418 1008.41 123.119C1015.96 121.094 1020.71 117.579 1022.65 112.573L1031.91 110.091C1031.67 112.453 1030.83 114.922 1029.38 117.497C1027.98 120.008 1025.67 122.431 1022.47 124.766C1019.3 127.037 1015.17 128.856 1010.06 130.224C1004.55 131.701 999.59 132.073 995.181 131.34C990.772 130.606 987.137 128.982 984.274 126.466C981.463 123.937 979.545 120.758 978.519 116.93C977.493 113.102 977.591 109.383 978.812 105.773C980.019 102.113 982.349 98.8626 985.8 96.023C989.252 93.1834 993.76 91.0182 999.323 89.5274C1004.89 88.0366 1009.87 87.6579 1014.28 88.3913C1018.69 89.1247 1022.31 90.7815 1025.13 93.3617C1028.01 95.9282 1029.96 99.1256 1030.99 102.954ZM1001.23 96.6479C996.331 97.9609 992.679 99.9514 990.276 102.62C987.873 105.288 986.763 108.293 986.947 111.636L1021.02 102.506C1019.51 99.5194 1017.04 97.4714 1013.63 96.3624C1010.21 95.2534 1006.08 95.3486 1001.23 96.6479Z" fill="white"/>
<path d="M230.826 150.368C226.191 153.606 221.676 155.632 217.281 156.445C212.929 157.229 208.979 156.927 205.431 155.538C201.926 154.119 199.038 151.785 196.769 148.536C194.499 145.287 193.301 141.772 193.175 137.993C193.062 134.14 194.122 130.305 196.355 126.489C198.632 122.643 202.088 119.101 206.723 115.863C210.925 112.927 215.046 110.983 219.086 110.031C223.169 109.047 226.892 109.025 230.255 109.964C233.661 110.872 236.543 112.597 238.9 115.141L230.842 120.77C228.762 118.806 225.985 117.877 222.513 117.982C219.041 118.087 215.291 119.547 211.262 122.361C208.316 124.419 206.115 126.665 204.658 129.101C203.201 131.537 202.506 133.957 202.573 136.359C202.64 138.762 203.369 140.96 204.761 142.952C206.153 144.945 207.966 146.386 210.199 147.276C212.432 148.166 214.942 148.346 217.731 147.816C220.519 147.286 223.387 145.992 226.332 143.935C230.361 141.12 233.022 138.101 234.315 134.877C235.609 131.653 235.692 128.727 234.564 126.098L242.622 120.469C244.199 123.558 244.828 126.857 244.508 130.368C244.202 133.805 242.885 137.271 240.557 140.766C238.272 144.232 235.028 147.432 230.826 150.368Z" fill="white"/>
</svg>
