<svg width="1418" height="374" viewBox="0 0 1418 374" fill="none" xmlns="http://www.w3.org/2000/svg">
<path d="M677.591 335.882L713.468 277.01C721.436 263.934 718.928 247.032 707.506 236.833L697.465 227.866C686.422 218.005 673.644 210.281 659.78 205.087L649.057 201.069C634.798 195.726 618.754 201.266 610.83 214.269L573.792 275.047C564.06 291.017 567.018 311.646 580.847 324.238C594.113 336.318 609.509 345.827 626.25 352.282L627.707 352.843C646.249 359.992 667.25 352.851 677.591 335.882Z" fill="white" stroke="white" stroke-width="8.83344"/>
<path d="M631.899 237.45L630.678 220.408L642.596 221.658L631.899 237.45Z" fill="black"/>
<path d="M647.184 240.363L647.713 222.801L659.106 225.609L647.184 240.363Z" fill="black"/>
<path d="M661.096 246.855L665.402 228.733L675.228 234.721L661.096 246.855Z" fill="black"/>
<path d="M674.578 257.197L681.19 239.548L689.616 247.544L674.578 257.197Z" fill="black"/>
<path d="M684.028 268.837L693.99 252.552L699.845 263.217L684.028 268.837Z" fill="black"/>
<path d="M600.95 288.132L585.245 294.859L591.819 304.878L600.95 288.132Z" fill="black"/>
<path d="M610.54 300.388L595.174 308.909L602.894 317.747L610.54 300.388Z" fill="black"/>
<path d="M622.697 309.774L608.565 321.908L618.391 327.896L622.697 309.774Z" fill="black"/>
<path d="M638.065 317.012L625.41 330.978L636.38 334.801L638.065 317.012Z" fill="black"/>
<path d="M652.74 320.083L642.834 336.402L654.995 336.717L652.74 320.083Z" fill="black"/>
<circle cx="85.6314" cy="149.358" r="68.2346" transform="rotate(66.6535 85.6314 149.358)" fill="white" stroke="white" stroke-width="7.07874"/>
<path d="M51.6094 141.89L37.07 138.444L41.2352 128.827L51.6094 141.89Z" fill="black"/>
<path d="M60.4825 127.597L46.7096 120.783L53.0905 112.746L60.4825 127.597Z" fill="black"/>
<path d="M70.7233 119.879L59.9637 107.648L69.203 103.66L70.7233 119.879Z" fill="black"/>
<path d="M84.7989 117.879L78.1214 102.809L88.2793 102.644L84.7989 117.879Z" fill="black"/>
<path d="M98.9681 120.15L97.6999 103.502L107.309 108.07L98.9681 120.15Z" fill="black"/>
<path d="M67.6929 179.165L60.228 192.108L70.0831 195.674L67.6929 179.165Z" fill="black"/>
<path d="M84.1807 182.502L79.692 197.198L89.9176 198.068L84.1807 182.502Z" fill="black"/>
<path d="M96.8204 180.349L98.3407 196.568L107.58 192.58L96.8204 180.349Z" fill="black"/>
<path d="M107.929 171.477L114.314 186.672L121.402 179.394L107.929 171.477Z" fill="black"/>
<path d="M115.997 159.607L127.241 171.949L130.509 161.823L115.997 159.607Z" fill="black"/>
<circle cx="1148.8" cy="162.706" r="83.5681" transform="rotate(66.6535 1148.8 162.706)" fill="white" stroke="white" stroke-width="8.66945"/>
<path d="M1107.13 153.559L1089.33 149.339L1094.43 137.561L1107.13 153.559Z" fill="black"/>
<path d="M1118 136.055L1101.13 127.71L1108.95 117.866L1118 136.055Z" fill="black"/>
<path d="M1130.54 126.602L1117.37 111.623L1128.68 106.738L1130.54 126.602Z" fill="black"/>
<path d="M1147.78 124.153L1139.6 105.697L1152.04 105.494L1147.78 124.153Z" fill="black"/>
<path d="M1165.13 126.934L1163.58 106.545L1175.35 112.139L1165.13 126.934Z" fill="black"/>
<path d="M1126.83 199.21L1117.69 215.063L1129.76 219.429L1126.83 199.21Z" fill="black"/>
<path d="M1147.02 203.298L1141.53 221.296L1154.05 222.361L1147.02 203.298Z" fill="black"/>
<path d="M1162.5 200.66L1164.37 220.524L1175.68 215.64L1162.5 200.66Z" fill="black"/>
<path d="M1176.11 189.795L1183.93 208.405L1192.61 199.491L1176.11 189.795Z" fill="black"/>
<path d="M1185.99 175.258L1199.76 190.373L1203.76 177.972L1185.99 175.258Z" fill="black"/>
<path d="M256.741 76.3241L262.779 77.3094L256.741 76.3241L255.449 84.2396C235.021 209.442 383.068 291.002 477.983 206.837C525.315 164.938 473.298 90.1161 417.536 119.89L416.087 120.663C413.393 122.102 410.857 123.758 408.578 125.246C408.469 125.318 408.36 125.389 408.252 125.459C405.807 127.056 403.632 128.459 401.39 129.617C382.321 139.47 358.25 123.833 361.877 101.604L363.168 93.6885C367.963 64.2995 348.026 36.5874 318.637 31.7924C289.248 26.9973 261.536 46.9351 256.741 76.3241Z" fill="white" stroke="white" stroke-width="12.2368" stroke-linecap="round"/>
<path d="M313.97 146.397L335.868 126.65L345.69 143.718L313.97 146.397Z" fill="black"/>
<path d="M345.499 178.408L352.874 148.031L369.314 158.16L345.499 178.408Z" fill="black"/>
<path d="M383.838 189.732L374.873 159.4L394.243 161.607L383.838 189.732Z" fill="black"/>
<path d="M423.387 183.546L400.716 160.91L420.412 155.534L423.387 183.546Z" fill="black"/>
<path d="M455.175 166.767L426.41 152.662L443.316 141.215L455.175 166.767Z" fill="black"/>
<path d="M366.388 177.129L345.037 200.464L363.414 206.969L366.388 177.129Z" fill="black"/>
<path d="M406.476 184.421L394.399 214.095L414.635 211.384L406.476 184.421Z" fill="black"/>
<path d="M313.933 126.336L284.473 127.569L289.41 146.633L313.933 126.336Z" fill="black"/>
<path d="M440.502 173.546L443.92 205.401L460.458 193.428L440.502 173.546Z" fill="black"/>
<path d="M336.521 156.233L308.256 169.585L321.494 183.644L336.521 156.233Z" fill="black"/>
<path d="M308.993 93.0062L280.843 87.5539L280.535 107.662L308.993 93.0062Z" fill="black"/>
<path d="M306.285 107.403L333.993 100.028L335.684 120.067L306.285 107.403Z" fill="black"/>
<path d="M306.582 69.5329L335.126 72.2446L329.748 91.6229L306.582 69.5329Z" fill="black"/>
<path d="M848.519 294.644L850.809 291.673L848.519 294.644L852.413 297.646C914.011 345.132 1001.13 289.013 983.365 213.292C974.543 175.558 919.03 181.83 918.853 220.584L918.848 221.591C918.84 223.463 918.995 225.314 919.134 226.977C919.141 227.056 919.147 227.136 919.154 227.214C919.303 228.998 919.426 230.58 919.398 232.128C919.16 245.285 903.714 253.717 892.777 245.286L890.6 248.111L892.777 245.286L888.883 242.284C874.424 231.138 853.667 233.823 842.521 248.282C831.375 262.741 834.06 283.498 848.519 294.644Z" fill="white" stroke="white" stroke-width="7.50228" stroke-linecap="round"/>
<path d="M902.99 284.177L898.715 266.613L910.784 266.284L902.99 284.177Z" fill="black"/>
<path d="M929.443 276.491L915.203 263.665L925.456 257.745L929.443 276.491Z" fill="black"/>
<path d="M946.719 259.105L927.745 255.107L934.576 245.3L946.719 259.105Z" fill="black"/>
<path d="M954.9 235.967L936.085 241.605L938.921 229.414L954.9 235.967Z" fill="black"/>
<path d="M955.107 213.93L939.119 225.34L937.868 212.886L955.107 213.93Z" fill="black"/>
<path d="M934.837 264.849L941.208 283.164L950.07 275.144L934.837 264.849Z" fill="black"/>
<path d="M950.447 245.345L962.938 260.503L967.369 248.796L950.447 245.345Z" fill="black"/>
<path d="M892.158 278.354L884.243 294.607L895.966 297.496L892.158 278.354Z" fill="black"/>
<path d="M954.49 223.821L972.671 231.254L971.028 218.845L954.49 223.821Z" fill="black"/>
<path d="M914.865 274.876L913.837 294.013L925.277 290.966L914.865 274.876Z" fill="black"/>
<path d="M872.737 271.313L861.597 284.911L872.356 290.934L872.737 271.313Z" fill="black"/>
<path d="M879.717 276.966L883.808 259.87L895.111 264.794L879.717 276.966Z" fill="black"/>
<path d="M859.372 265.777L869.148 251.167L878.036 259.712L859.372 265.777Z" fill="black"/>
<path d="M1406.08 123.379L1435.46 75.1552C1441.99 64.444 1439.94 50.5991 1430.58 42.2446L1422.36 34.8999C1413.31 26.8227 1402.84 20.4956 1391.49 16.2404L1382.7 12.9491C1371.02 8.57264 1357.88 13.1107 1351.39 23.7618L1321.05 73.5469C1313.08 86.629 1315.5 103.527 1326.83 113.841C1337.7 123.736 1350.31 131.526 1364.02 136.813L1365.22 137.273C1380.4 143.128 1397.61 137.279 1406.08 123.379Z" fill="white" stroke="white" stroke-width="7.23575"/>
<path d="M1368.65 42.7498L1367.65 28.7904L1377.41 29.8141L1368.65 42.7498Z" fill="black"/>
<path d="M1381.17 45.1362L1381.6 30.7505L1390.94 33.0513L1381.17 45.1362Z" fill="black"/>
<path d="M1392.57 50.4541L1396.09 35.6098L1404.14 40.5147L1392.57 50.4541Z" fill="black"/>
<path d="M1403.61 58.9255L1409.03 44.469L1415.93 51.0191L1403.61 58.9255Z" fill="black"/>
<path d="M1411.35 68.4608L1419.51 55.1215L1424.31 63.8569L1411.35 68.4608Z" fill="black"/>
<path d="M1343.3 84.2655L1330.43 89.7757L1335.82 97.9828L1343.3 84.2655Z" fill="black"/>
<path d="M1351.15 94.3043L1338.57 101.284L1344.89 108.524L1351.15 94.3043Z" fill="black"/>
<path d="M1361.11 101.994L1349.54 111.933L1357.59 116.838L1361.11 101.994Z" fill="black"/>
<path d="M1373.7 107.922L1363.34 119.362L1372.32 122.494L1373.7 107.922Z" fill="black"/>
<path d="M1385.72 110.438L1377.61 123.805L1387.57 124.063L1385.72 110.438Z" fill="black"/>
</svg>
